<svg width="154" height="36" viewBox="0 0 154 36" fill="none" xmlns="http://www.w3.org/2000/svg">
<path d="M17.0482 35.0418C26.4637 35.0418 34.0965 27.409 34.0965 17.9935C34.0965 8.57807 26.4637 0.945312 17.0482 0.945312C7.63275 0.945312 0 8.57807 0 17.9935C0 27.409 7.63275 35.0418 17.0482 35.0418Z" fill="#32A562"/>
<mask id="mask0_5089_196" style="mask-type:alpha" maskUnits="userSpaceOnUse" x="0" y="0" width="35" height="36">
<path d="M17.0482 35.0418C26.4637 35.0418 34.0965 27.409 34.0965 17.9935C34.0965 8.57807 26.4637 0.945312 17.0482 0.945312C7.63275 0.945312 0 8.57807 0 17.9935C0 27.409 7.63275 35.0418 17.0482 35.0418Z" fill="white"/>
</mask>
<g mask="url(#mask0_5089_196)">
<path d="M10.5781 11.5394L14.8916 7.22713L23.6109 7.21094L37.7422 21.3385L37.7522 24.2757L34.8773 27.1505L21.0785 13.353L17.4663 13.3343L14.9153 15.8778L10.5781 11.5394Z" fill="white"/>
<path d="M23.6141 24.5691C22.0546 26.085 20.7492 27.3443 19.1922 28.8602L10.5826 28.8702L-3.4927 14.7949L-3.50391 11.8727L-0.639023 9.00781L13.0751 22.7318L16.7085 22.7132L19.2345 20.1896L23.6141 24.5691Z" fill="white"/>
</g>
<path d="M59.4445 13.9238C58.7157 13.4707 57.9376 13.0866 57.1103 12.7715C56.3026 12.4366 55.5147 12.1805 54.7465 12.0032C53.998 11.8063 53.3381 11.7078 52.7669 11.7078C52.1168 11.7078 51.5948 11.8358 51.2009 12.0919C50.8069 12.3283 50.6099 12.7025 50.6099 13.2147C50.6099 13.7268 50.797 14.1503 51.1713 14.4852C51.5653 14.8004 52.0873 15.0663 52.7373 15.283C53.3873 15.4996 54.1063 15.7163 54.8942 15.933C55.6822 16.1497 56.4602 16.4057 57.2285 16.7012C57.9967 16.9967 58.7058 17.3808 59.3558 17.8535C60.0059 18.3066 60.5279 18.8975 60.9218 19.6264C61.3158 20.3552 61.5128 21.2613 61.5128 22.3447C61.5128 23.7433 61.1385 24.9251 60.39 25.8903C59.6415 26.8359 58.6369 27.5548 57.3762 28.0473C56.1155 28.52 54.717 28.7564 53.1805 28.7564C52.0183 28.7564 50.8561 28.6284 49.694 28.3723C48.5515 28.0965 47.4582 27.7124 46.4142 27.22C45.3899 26.7078 44.4641 26.107 43.6368 25.4176L45.7347 21.2515C46.4438 21.8818 47.2416 22.4333 48.128 22.9061C49.0144 23.3788 49.9106 23.7531 50.8167 24.0289C51.7229 24.285 52.5305 24.413 53.2396 24.413C54.0472 24.413 54.6776 24.2653 55.1306 23.9698C55.6034 23.6546 55.8397 23.2016 55.8397 22.6106C55.8397 22.0985 55.6428 21.6848 55.2488 21.3696C54.8548 21.0348 54.3328 20.759 53.6828 20.5423C53.0328 20.3257 52.3138 20.1188 51.5259 19.9218C50.7577 19.7052 49.9796 19.4589 49.1917 19.1832C48.4234 18.8877 47.7143 18.5233 47.0643 18.0899C46.4142 17.6369 45.8922 17.0558 45.4983 16.3467C45.124 15.6375 44.9369 14.7511 44.9369 13.6874C44.9369 12.407 45.2718 11.2941 45.9415 10.3486C46.6309 9.3834 47.5961 8.64472 48.8371 8.13257C50.0978 7.60073 51.5554 7.3348 53.2101 7.3348C54.7268 7.3348 56.214 7.55148 57.6717 7.98484C59.1293 8.4182 60.3998 8.97959 61.4832 9.66902L59.4445 13.9238ZM64.275 7.74846H80.6145V12.0032H69.6821V15.9625H79.5508V20.1878H69.6821V24.2062H80.9099V28.4609H64.275V7.74846ZM93.5208 7.74846C96.2785 7.74846 98.4059 8.38865 99.9029 9.66902C101.4 10.9297 102.148 12.7124 102.148 15.017C102.148 17.4399 101.4 19.3309 99.9029 20.6901C98.4059 22.0295 96.2785 22.6993 93.5208 22.6993H89.6206V28.4609H84.2134V7.74846H93.5208ZM93.5208 18.4445C94.6435 18.4445 95.5004 18.1687 96.0914 17.6172C96.702 17.0656 97.0073 16.2482 97.0073 15.1648C97.0073 14.1208 96.702 13.3329 96.0914 12.801C95.5004 12.2692 94.6435 12.0032 93.5208 12.0032H89.6206V18.4445H93.5208ZM92.5753 20.7196H97.8346L102.769 28.4609H96.6527L92.5753 20.7196ZM103.353 7.74846H109.174L114.345 22.8175L119.545 7.74846H125.1L116.974 28.4609H111.39L103.353 7.74846ZM141.334 13.9238C140.605 13.4707 139.827 13.0866 138.999 12.7715C138.192 12.4366 137.404 12.1805 136.636 12.0032C135.887 11.8063 135.227 11.7078 134.656 11.7078C134.006 11.7078 133.484 11.8358 133.09 12.0919C132.696 12.3283 132.499 12.7025 132.499 13.2147C132.499 13.7268 132.686 14.1503 133.06 14.4852C133.454 14.8004 133.976 15.0663 134.626 15.283C135.276 15.4996 135.995 15.7163 136.783 15.933C137.571 16.1497 138.349 16.4057 139.118 16.7012C139.886 16.9967 140.595 17.3808 141.245 17.8535C141.895 18.3066 142.417 18.8975 142.811 19.6264C143.205 20.3552 143.402 21.2613 143.402 22.3447C143.402 23.7433 143.028 24.9251 142.279 25.8903C141.531 26.8359 140.526 27.5548 139.265 28.0473C138.005 28.52 136.606 28.7564 135.07 28.7564C133.907 28.7564 132.745 28.6284 131.583 28.3723C130.441 28.0965 129.347 27.7124 128.303 27.22C127.279 26.7078 126.353 26.107 125.526 25.4176L127.624 21.2515C128.333 21.8818 129.131 22.4333 130.017 22.9061C130.904 23.3788 131.8 23.7531 132.706 24.0289C133.612 24.285 134.42 24.413 135.129 24.413C135.936 24.413 136.567 24.2653 137.02 23.9698C137.493 23.6546 137.729 23.2016 137.729 22.6106C137.729 22.0985 137.532 21.6848 137.138 21.3696C136.744 21.0348 136.222 20.759 135.572 20.5423C134.922 20.3257 134.203 20.1188 133.415 19.9218C132.647 19.7052 131.869 19.4589 131.081 19.1832C130.313 18.8877 129.603 18.5233 128.953 18.0899C128.303 17.6369 127.781 17.0558 127.387 16.3467C127.013 15.6375 126.826 14.7511 126.826 13.6874C126.826 12.407 127.161 11.2941 127.831 10.3486C128.52 9.3834 129.485 8.64472 130.726 8.13257C131.987 7.60073 133.445 7.3348 135.099 7.3348C136.616 7.3348 138.103 7.55148 139.561 7.98484C141.018 8.4182 142.289 8.97959 143.372 9.66902L141.334 13.9238ZM146.164 7.74846H151.571V28.4609H146.164V7.74846Z" fill="white"/>
</svg>
