<svg width="160" height="190" viewBox="0 0 160 190" fill="none" xmlns="http://www.w3.org/2000/svg">
<g clip-path="url(#clip0_755_7136)">
<path d="M121.045 104.953C102.301 117.113 86.0904 124.546 72.3748 128.299L72.3376 117.956L52.4951 123.961L52.4579 131.357C9.89589 131.886 4.14149 86.4623 33.2114 56.3682C13.7415 101.236 80.0939 93.9048 108.624 98.0848C116.147 99.1877 121.045 101.088 121.045 104.953Z" fill="white"/>
<path d="M139.905 134.008V139.476L127.548 143.219L127.556 137.748L139.905 134.008Z" fill="white"/>
<path d="M75.1916 151.694V157.682L72.3423 158.544L62.5654 161.509V155.523L72.3423 152.557L75.1916 151.694Z" fill="white"/>
<path d="M60.5187 156.721V162.708L52.4924 165.146L47.8926 166.536V160.549L52.4924 159.158L60.5187 156.721Z" fill="white"/>
<path d="M145.486 108.843V119.914C145.486 122 143.624 124.626 139.39 126.144L126.863 129.938L122.208 131.348V148.01C122.091 151.254 119.531 152.876 117.438 153.693L103.176 158.013L96.7786 159.95C96.7786 159.95 82.6747 164.233 82.549 164.26C79.6672 164.887 78.5424 163.476 78.3896 162.145V150.747L96.7795 145.186V151.872C96.7795 153.881 103.121 153.398 103.177 150.617V121.663L121.901 115.992V123.332C123.063 125.515 127.525 124.898 127.563 121.923V114.276L139.9 110.541L145.486 108.843Z" fill="white"/>
<path d="M122.447 103.194C150.381 81.8774 168.073 41.4027 2.63867 26.2676C147.281 -38.6105 197.562 51.292 122.447 103.194Z" fill="white"/>
<path d="M96.7789 123.602V136.337C96.7789 137.672 95.5209 139.525 93.1661 140.146L78.389 144.623L75.1859 145.596L72.3367 146.458L62.5598 149.415L60.5206 150.036L52.4943 152.464L47.8945 153.863L47.252 154.058L34.1137 158.034C31.1062 158.525 28.1638 157.487 27.6982 155.254V144.53L47.252 138.608V146.912C47.5779 148.228 52.1963 147.876 52.3732 145.754L52.457 131.379L52.4943 123.982L72.3367 117.978L72.3739 128.321L72.4205 138.748C72.5136 140.48 77.3369 139.415 77.3182 137.33L77.281 129.506L78.389 129.174L96.7789 123.602Z" fill="white"/>
<path d="M20.4229 184.839L23.5096 175.848H25.0096L28.0963 184.839H26.8113L25.9808 182.326H22.4825L21.6519 184.839H20.4229ZM25.6437 181.306L24.2293 177.066L22.8214 181.306H25.6437Z" fill="white"/>
<path d="M37.1688 184.839H31.8623V175.848H33.0802V183.777H37.1698V184.839H37.1688Z" fill="white"/>
<path d="M43.9253 185.055C43.2782 185.055 42.685 184.958 42.1487 184.765C41.6114 184.572 41.1505 184.278 40.765 183.883C40.3796 183.485 40.0844 182.992 39.8795 182.403C39.6747 181.816 39.5723 181.14 39.5723 180.375C39.5723 179.651 39.6756 179.002 39.8823 178.427C40.089 177.854 40.3851 177.364 40.7706 176.956C41.1431 176.562 41.6031 176.258 42.1478 176.045C42.6925 175.832 43.2893 175.725 43.9365 175.725C44.2447 175.725 44.5389 175.747 44.822 175.79C45.105 175.836 45.3751 175.895 45.6339 175.972C45.8388 176.032 46.0678 176.116 46.3192 176.223C46.5716 176.33 46.7755 176.422 46.931 176.498V177.942H46.8267C46.6749 177.808 46.5185 177.683 46.3565 177.564C46.1945 177.446 45.9663 177.317 45.6712 177.181C45.4254 177.06 45.1423 176.959 44.822 176.879C44.5026 176.798 44.1581 176.758 43.7894 176.758C42.9076 176.758 42.1962 177.084 41.6524 177.737C41.1086 178.389 40.8377 179.257 40.8377 180.339C40.8377 180.944 40.9094 181.471 41.0528 181.921C41.1962 182.373 41.4029 182.756 41.6738 183.069C41.9364 183.379 42.253 183.616 42.6245 183.779C42.996 183.942 43.4123 184.023 43.876 184.023C44.2205 184.023 44.5622 184 44.903 183.951C45.2429 183.903 45.5296 183.831 45.7634 183.734V181.41H43.6488V180.358H46.9692V184.284C46.8137 184.352 46.6051 184.439 46.3453 184.542C46.0846 184.647 45.8416 184.73 45.6162 184.791C45.3164 184.88 45.0464 184.946 44.8043 184.99C44.5622 185.035 44.2698 185.055 43.9253 185.055Z" fill="white"/>
<path d="M52.8918 176.904V179.368H57.0921V180.43H52.8918V183.77H57.3994V184.833H51.6748V175.842H53.457L54.3807 173.886L55.133 174.352L54.3648 175.842H57.3994V176.904H52.8918Z" fill="white"/>
<path d="M67.154 184.839H65.5739L62.6716 181.264H61.2814V184.839H60.0635V175.848H62.4248C62.9491 175.848 63.3895 175.875 63.7442 175.932C64.099 175.989 64.4361 176.119 64.7554 176.324C65.0748 176.526 65.3281 176.786 65.5143 177.104C65.7005 177.421 65.7946 177.816 65.7946 178.287C65.7946 178.947 65.6242 179.499 65.2843 179.941C64.9445 180.384 64.4808 180.713 63.8942 180.926L67.154 184.839ZM64.5217 178.377C64.5217 178.116 64.4742 177.883 64.3802 177.679C64.2852 177.476 64.14 177.31 63.9435 177.181C63.7712 177.069 63.5701 176.99 63.3411 176.942C63.1111 176.897 62.8261 176.874 62.4863 176.874H61.2814V180.268H62.3513C62.6995 180.268 63.0133 180.237 63.2917 180.176C63.5701 180.115 63.8085 179.991 64.005 179.802C64.1809 179.632 64.3113 179.432 64.3951 179.198C64.4798 178.965 64.5217 178.691 64.5217 178.377Z" fill="white"/>
<path d="M70.9457 184.839H69.7334V183.921V176.765L69.7381 175.848H70.9606L70.9513 176.765V183.921L70.9457 184.839Z" fill="white"/>
<path d="M75.209 184.839V175.848H80.9336V176.91H76.426V179.373H80.6263V180.435H76.426V183.776H80.9336V184.838H75.209V184.839Z" fill="white"/>
<path d="M97.4504 178.06C97.4504 178.509 97.3638 178.936 97.1906 179.342C97.0156 179.747 96.766 180.085 96.4392 180.358C96.2381 180.525 96.0183 180.68 95.779 180.823C95.5388 180.965 95.2734 181.085 94.9838 181.185C94.6924 181.284 94.3786 181.362 94.0378 181.419C93.697 181.475 93.318 181.502 92.8953 181.502H91.345V184.653H88.3877V175.02H92.9586C93.6374 175.02 94.224 175.071 94.7175 175.172C95.211 175.273 95.658 175.433 96.0574 175.655C96.5006 175.896 96.8433 176.217 97.0854 176.622C97.3293 177.025 97.4504 177.504 97.4504 178.06ZM94.4149 178.118C94.4149 177.847 94.3348 177.613 94.1765 177.417C94.0182 177.22 93.8292 177.087 93.6076 177.012C93.3283 176.914 93.061 176.856 92.8059 176.84C92.5499 176.825 92.2035 176.818 91.7658 176.818H91.3468V179.703H91.5526C91.8319 179.703 92.0955 179.701 92.3431 179.696C92.5908 179.692 92.8068 179.676 92.9912 179.65C93.1495 179.629 93.3171 179.587 93.4931 179.524C93.6691 179.461 93.806 179.391 93.9009 179.313C94.1011 179.154 94.2371 178.988 94.3088 178.815C94.3786 178.645 94.4149 178.411 94.4149 178.118Z" fill="white"/>
<path d="M110.689 179.856C110.689 181.413 110.18 182.637 109.162 183.53C108.145 184.423 106.75 184.868 104.98 184.868C103.203 184.868 101.809 184.417 100.796 183.514C99.7849 182.609 99.2783 181.39 99.2783 179.856C99.2783 178.307 99.7849 177.084 100.796 176.184C101.809 175.285 103.203 174.836 104.98 174.836C106.75 174.836 108.145 175.283 109.162 176.177C110.18 177.073 110.689 178.299 110.689 179.856ZM107.636 179.848C107.636 179.275 107.564 178.786 107.42 178.384C107.275 177.98 107.081 177.649 106.838 177.39C106.586 177.128 106.3 176.94 105.981 176.825C105.661 176.711 105.331 176.653 104.989 176.653C104.625 176.653 104.295 176.706 103.999 176.812C103.705 176.918 103.42 177.106 103.146 177.377C102.902 177.628 102.707 177.96 102.557 178.374C102.406 178.787 102.332 179.281 102.332 179.856C102.332 180.446 102.402 180.936 102.545 181.327C102.687 181.718 102.883 182.044 103.13 182.307C103.383 182.575 103.67 182.765 103.993 182.88C104.315 182.994 104.645 183.051 104.989 183.051C105.336 183.051 105.673 182.99 106 182.867C106.328 182.745 106.609 182.554 106.847 182.295C107.1 182.014 107.294 181.689 107.431 181.315C107.568 180.941 107.636 180.453 107.636 179.848Z" fill="white"/>
<path d="M117.009 184.849C116.107 184.849 115.315 184.778 114.632 184.635C113.95 184.494 113.315 184.317 112.73 184.105V181.815H112.999C113.59 182.224 114.241 182.539 114.952 182.76C115.664 182.979 116.354 183.09 117.024 183.09C117.193 183.09 117.416 183.075 117.693 183.044C117.97 183.014 118.192 182.966 118.361 182.901C118.567 182.829 118.741 182.726 118.883 182.595C119.026 182.463 119.097 182.29 119.097 182.074C119.097 181.832 118.981 181.635 118.748 181.485C118.517 181.334 118.24 181.225 117.919 181.155C117.516 181.069 117.089 180.987 116.633 180.91C116.177 180.832 115.751 180.736 115.356 180.624C114.445 180.361 113.79 180.008 113.396 179.563C113 179.119 112.802 178.563 112.802 177.894C112.802 176.992 113.269 176.263 114.202 175.705C115.135 175.145 116.3 174.867 117.697 174.867C118.398 174.867 119.096 174.925 119.788 175.041C120.481 175.157 121.101 175.315 121.651 175.514V177.713H121.39C120.952 177.406 120.418 177.148 119.788 176.936C119.158 176.725 118.512 176.619 117.847 176.619C117.589 176.619 117.357 176.635 117.151 176.665C116.946 176.694 116.73 176.753 116.502 176.839C116.319 176.908 116.159 177.011 116.024 177.147C115.89 177.282 115.823 177.435 115.823 177.603C115.823 177.848 115.929 178.043 116.143 178.188C116.357 178.332 116.77 178.463 117.381 178.579C117.776 178.653 118.157 178.723 118.523 178.792C118.891 178.86 119.281 178.957 119.698 179.077C120.515 179.319 121.122 179.643 121.52 180.05C121.919 180.458 122.118 180.997 122.118 181.665C122.118 182.622 121.658 183.392 120.739 183.974C119.817 184.557 118.574 184.849 117.009 184.849Z" fill="white"/>
<path d="M126.81 184.652V176.857H123.331V175.02H133.247V176.857H129.768V184.652H126.81Z" fill="white"/>
<path d="M135.396 184.653V175.02H143.359V176.857H138.337V178.545H142.963V180.382H138.337V182.814H143.359V184.651H135.396V184.653Z" fill="white"/>
</g>
<defs>
<clipPath id="clip0_755_7136">
<rect width="160" height="190" fill="white"/>
</clipPath>
</defs>
</svg>
