<svg width="338" height="178" viewBox="0 0 338 178" fill="none" xmlns="http://www.w3.org/2000/svg">
<g clip-path="url(#clip0_755_7190)">
<path d="M93.4707 33.5635C39.3788 124.98 95.8564 178 95.8564 178L0 107.563L93.4707 33.5635ZM49.79 72.0801C39.5631 80.3865 33.6973 92.6761 33.6973 105.777C33.6973 118.9 39.5636 131.182 49.79 139.483L52.7578 135.873C43.6314 128.45 38.3965 117.483 38.3965 105.777C38.3965 94.0767 43.6314 83.1132 52.7578 75.6973L49.79 72.0801ZM57.29 80.0469C49.484 86.3847 44.9991 95.7647 44.999 105.777C44.999 115.805 49.484 125.184 57.29 131.527L60.2607 127.908C53.5524 122.456 49.6963 114.394 49.6963 105.777C49.6963 97.175 53.5523 89.1057 60.2607 83.666L57.29 80.0469ZM64.5488 89.043C59.4633 93.1629 56.5498 99.2697 56.5498 105.777C56.5499 112.301 59.4634 118.4 64.5488 122.526L67.5146 118.904C63.5365 115.671 61.254 110.891 61.2539 105.777C61.2539 100.674 63.5365 95.8944 67.5146 92.6543L64.5488 89.043Z" fill="white"/>
<path d="M66.8428 49.9785L1.13086 101.108C1.13086 101.108 39.6228 62.9291 0 0L66.8428 49.9785ZM31.8359 34.0791C36.8325 38.1425 39.6991 44.1484 39.6992 50.5547C39.6992 56.9616 36.8326 62.9641 31.8359 67.0225L33.4619 69.0068C39.0597 64.4561 42.2725 57.7275 42.2725 50.5547C42.2723 43.371 39.0593 36.6471 33.4619 32.1016L31.8359 34.0791ZM27.7305 38.4404C31.403 41.4246 33.5135 45.8385 33.5137 50.5547C33.5137 55.2661 31.4027 59.6813 27.7305 62.6641L29.3555 64.6445C33.6307 61.1762 36.0858 56.0383 36.0859 50.5566C36.0859 45.0672 33.6313 39.9316 29.3555 36.457L27.7305 38.4404ZM23.7588 43.3711C25.9352 45.1404 27.1836 47.7576 27.1836 50.5557C27.1835 53.3505 25.9351 55.9664 23.7588 57.7402L25.3838 59.7207C28.167 57.4632 29.7598 54.1171 29.7598 50.5557C29.7597 46.9851 28.1674 43.6427 25.3838 41.3867L23.7588 43.3711Z" fill="white"/>
<path d="M117.969 103.48C118.787 102.565 119.876 102.107 121.24 102.107C122.672 102.107 123.812 102.565 124.665 103.48C125.517 104.395 126.215 105.633 126.762 107.193L142.608 153.982H133.918L130.033 142.183H107.95L104.065 153.982H100.589L115.924 107.193C116.469 105.633 117.151 104.395 117.969 103.48ZM120.372 113.091C120.064 112.55 119.638 112.277 119.094 112.277C118.547 112.277 118.104 112.532 117.764 113.04C117.422 113.549 117.082 114.245 116.742 115.125L108.972 139.13H128.704L121.343 115.329C121.001 114.381 120.678 113.635 120.372 113.091Z" fill="white"/>
<path d="M148.639 153.982V104.141H170.823C173.753 104.141 176.259 104.583 178.338 105.463C180.416 106.345 182.137 107.446 183.501 108.769C184.864 110.092 185.868 111.584 186.517 113.245C187.164 114.908 187.488 116.483 187.488 117.975C187.488 119.806 187.163 121.52 186.517 123.112C185.867 124.706 184.932 126.112 183.705 127.333C182.479 128.554 180.945 129.505 179.104 130.182C177.264 130.86 175.151 131.199 172.766 131.199L188.817 153.984H177.673L159.884 128.758H169.085C172.492 128.758 175.031 127.707 176.701 125.605C178.371 123.503 179.205 120.961 179.205 117.976C179.205 116.62 178.965 115.297 178.49 114.009C178.012 112.722 177.28 111.567 176.292 110.55C175.303 109.532 174.076 108.719 172.611 108.109C171.145 107.498 169.425 107.193 167.448 107.193H157.838V153.983L148.639 153.982Z" fill="white"/>
<path d="M218.67 104.141C223.373 104.141 227.462 104.837 230.938 106.226C234.414 107.616 237.311 109.481 239.628 111.82C241.944 114.161 243.683 116.839 244.843 119.857C246.001 122.875 246.58 126.011 246.58 129.266C246.58 132.25 246 135.215 244.843 138.166C243.682 141.115 241.944 143.76 239.628 146.1C237.311 148.439 234.397 150.338 230.887 151.796C227.376 153.254 223.304 153.983 218.67 153.983H206.402V174.123H197.2V104.141H218.67ZM219.693 150.93C222.555 150.93 225.06 150.371 227.207 149.252C229.354 148.133 231.143 146.592 232.574 144.623C234.005 142.658 235.078 140.351 235.794 137.706C236.511 135.061 236.868 132.248 236.868 129.264C236.868 126.009 236.493 123.043 235.744 120.364C234.993 117.684 233.869 115.363 232.37 113.396C230.869 111.429 229.03 109.904 226.849 108.818C224.667 107.734 222.11 107.191 219.181 107.191H206.402V150.929L219.693 150.93Z" fill="white"/>
<path d="M266.107 146.709C269.105 150.541 273.33 152.456 278.785 152.456C281.033 152.456 282.976 152.253 284.611 151.846C286.247 151.439 287.679 150.931 288.905 150.32C290.131 149.71 291.205 149.049 292.125 148.338C293.046 147.626 293.915 146.965 294.732 146.354L296.982 148.389C296.231 149.136 295.328 149.914 294.272 150.728C293.215 151.543 291.972 152.306 290.541 153.017C289.109 153.729 287.422 154.322 285.48 154.797C283.537 155.271 281.305 155.509 278.784 155.509C275.513 155.509 272.292 154.966 269.123 153.881C265.953 152.798 263.125 151.17 260.636 148.999C258.148 146.829 256.121 144.116 254.554 140.861C252.985 137.607 252.202 133.775 252.202 129.367C252.202 125.029 252.969 121.214 254.502 117.924C256.036 114.635 258.063 111.906 260.585 109.735C263.106 107.566 265.986 105.938 269.224 104.853C272.46 103.768 275.783 103.226 279.191 103.226C281.646 103.226 283.808 103.464 285.684 103.937C287.558 104.413 289.192 105.04 290.591 105.818C291.987 106.598 293.181 107.446 294.169 108.361C295.157 109.277 296.025 110.176 296.776 111.057L294.63 113.193C293.744 112.313 292.806 111.464 291.819 110.65C290.829 109.836 289.722 109.108 288.496 108.463C287.269 107.819 285.888 107.293 284.355 106.886C282.821 106.478 281.065 106.276 279.09 106.276C276.636 106.276 274.351 106.733 272.24 107.649C270.126 108.565 268.268 109.972 266.669 111.87C265.066 113.769 263.823 116.177 262.937 119.093C262.051 122.008 261.607 125.434 261.607 129.365C261.608 137.096 263.107 142.879 266.107 146.709Z" fill="white"/>
<path d="M318.145 107.192C316.44 107.192 315.195 107.616 314.412 108.463C313.628 109.312 313.237 110.413 313.237 111.769V126.315H332.15V129.366H313.237V145.947C313.237 147.507 313.645 148.729 314.463 149.609C315.281 150.49 316.677 150.931 318.655 150.931H335.319V153.983H311.498C308.907 153.983 307.015 153.288 305.823 151.897C304.63 150.509 304.034 148.66 304.034 146.354V111.668C304.034 109.432 304.715 107.617 306.079 106.227C307.441 104.839 309.315 104.142 311.702 104.142H335.318V107.193L318.145 107.192Z" fill="white"/>
<path d="M100.781 52.5056H104.868V24.4731H111.449V43.7531C114.13 38.3465 118.108 35.6434 123.386 35.6434C126.985 35.6434 129.702 36.5883 131.538 38.4782C133.373 40.3691 134.291 43.2898 134.291 47.2414V52.5056H140.033C140.177 52.5056 140.249 52.5631 140.249 52.677V57.5562C140.249 57.6986 140.177 57.7703 140.033 57.7703H100.78L100.781 52.5056ZM127.731 52.5056V47.1132C127.731 44.9874 127.24 43.422 126.258 42.4161C125.275 41.4101 123.759 40.9076 121.71 40.9076C117.752 40.9076 114.332 43.6326 111.45 49.0824V52.5056H127.731Z" fill="white"/>
<path d="M157.37 52.5058C157.513 52.5058 157.585 52.5632 157.585 52.6771V57.5564C157.585 57.6988 157.513 57.7705 157.37 57.7705H139.582C139.439 57.7705 139.367 57.6988 139.367 57.5564V52.6771C139.367 52.5632 139.439 52.5058 139.582 52.5058H145.088V36.0718H151.648V52.5058H157.37ZM148.228 68.7266C147.311 68.7266 146.586 68.4444 146.056 67.8814C145.525 67.3179 145.259 66.551 145.259 65.5811C145.259 64.5965 145.522 63.8225 146.045 63.26C146.568 62.696 147.295 62.4148 148.228 62.4148C149.116 62.4148 149.822 62.6929 150.347 63.2493C150.87 63.8062 151.132 64.5833 151.132 65.5816C151.132 66.5515 150.863 67.3184 150.325 67.8819C149.788 68.4444 149.089 68.7266 148.228 68.7266Z" fill="white"/>
<path d="M156.94 57.7702C156.797 57.7702 156.725 57.6985 156.725 57.5561V52.6769C156.725 52.563 156.797 52.5055 156.94 52.5055H162.124V36.0715H168.705V43.753C171.386 38.3464 175.365 35.6433 180.642 35.6433C184.242 35.6433 186.958 36.5882 188.794 38.4781C190.63 40.369 191.548 43.2897 191.548 47.2413V57.7697L156.94 57.7702ZM184.988 52.5055V47.1131C184.988 44.9873 184.496 43.4219 183.513 42.416C182.531 41.41 181.015 40.9075 178.966 40.9075C175.008 40.9075 171.587 43.6325 168.706 49.0823V52.5055H184.988ZM177.911 32.305C176.993 32.305 176.269 32.0238 175.739 31.4598C175.207 30.8968 174.942 30.1299 174.942 29.16C174.942 28.1749 175.204 27.4019 175.727 26.8384C176.25 26.2754 176.978 25.9932 177.911 25.9932C178.799 25.9932 179.505 26.2714 180.03 26.8283C180.553 27.3846 180.815 28.1622 180.815 29.1606C180.815 30.1309 180.546 30.8978 180.008 31.4603C179.47 32.0238 178.771 32.305 177.911 32.305Z" fill="white"/>
<path d="M238.908 52.5058C239.051 52.5058 239.123 52.5633 239.123 52.6772V57.5564C239.123 57.6988 239.051 57.7705 238.908 57.7705H225.551C221.479 57.7705 218.317 56.8256 216.066 54.9353C213.814 53.0449 212.689 50.4095 212.689 47.0285C212.689 44.8747 213.206 42.9625 214.238 41.2934C215.27 39.6242 216.751 38.337 218.679 37.4307C220.607 36.525 222.899 36.0718 225.55 36.0718H226.776V33.9318H233.401V52.5053L238.908 52.5058ZM226.842 52.5058V41.3356H225.681C223.673 41.3356 222.128 41.8279 221.047 42.8119C219.964 43.7965 219.423 45.216 219.423 47.0702C219.423 48.8111 219.952 50.1516 221.013 51.0935C222.075 52.0349 223.601 52.5053 225.595 52.5053H226.842V52.5058ZM222.734 31.1712C221.83 31.1712 221.114 30.889 220.583 30.326C220.052 29.763 219.787 28.9961 219.787 28.0257C219.787 27.0411 220.049 26.2676 220.572 25.7046C221.095 25.1411 221.816 24.8594 222.734 24.8594C223.638 24.8594 224.347 25.1376 224.863 25.6939C225.38 26.2503 225.638 27.0279 225.638 28.0262C225.638 29.0251 225.372 29.7991 224.842 30.3479C224.311 30.8966 223.608 31.1712 222.734 31.1712ZM230.218 31.1712C229.315 31.1712 228.598 30.889 228.068 30.326C227.537 29.763 227.272 28.9961 227.272 28.0257C227.272 27.0411 227.533 26.2676 228.057 25.7046C228.579 25.1411 229.301 24.8594 230.218 24.8594C231.136 24.8594 231.853 25.1411 232.369 25.7046C232.886 26.2676 233.144 27.0422 233.144 28.0257C233.144 28.9961 232.876 29.763 232.338 30.326C231.8 30.8895 231.093 31.1712 230.218 31.1712Z" fill="white"/>
<path d="M238.456 57.7703C238.313 57.7703 238.241 57.6986 238.241 57.5562V52.677C238.241 52.5631 238.313 52.5056 238.456 52.5056H243.64V24.4731H250.222V43.7531C252.903 38.3465 256.882 35.6434 262.16 35.6434C265.758 35.6434 268.476 36.5883 270.311 38.4782C272.147 40.3691 273.065 43.2898 273.065 47.2414V52.5056H278.807C278.95 52.5056 279.022 52.5631 279.022 52.677V57.5562C279.022 57.6986 278.95 57.7703 278.807 57.7703H238.456ZM266.504 52.5056V47.1132C266.504 44.9874 266.013 43.422 265.031 42.4161C264.048 41.4101 262.531 40.9076 260.482 40.9076C256.524 40.9076 253.104 43.6326 250.223 49.0824V52.5056H266.504Z" fill="white"/>
<path d="M278.355 57.7703C278.212 57.7703 278.14 57.6986 278.14 57.5562V52.677C278.14 52.5631 278.212 52.5056 278.355 52.5056H283.861V24.4731H290.421V52.5056H296.142C296.285 52.5056 296.357 52.5631 296.357 52.677V57.5562C296.357 57.6986 296.285 57.7703 296.142 57.7703H278.355Z" fill="white"/>
<path d="M295.712 57.7705C295.57 57.7705 295.497 57.6988 295.497 57.5564V52.6771C295.497 52.5632 295.57 52.5057 295.712 52.5057H301.218V39.4949H307.778V52.5057H311.521C312.983 52.5057 314.055 52.1029 314.735 51.2969C315.416 50.4913 315.758 49.2036 315.758 47.4343V39.4955H322.318V47.9479C322.318 48.6614 322.274 49.3175 322.188 49.9166C322.905 50.8727 323.623 51.543 324.339 51.9285C325.056 52.3135 325.981 52.5062 327.114 52.5062H329.846V36.0723H336.406V57.771H327.243C324.762 57.771 322.461 56.6725 320.339 54.4754C318.689 56.6725 316.238 57.771 312.983 57.771L295.712 57.7705Z" fill="white"/>
<path d="M111.41 84.0813C111.468 84.0813 111.497 84.1052 111.497 84.1515V86.1415C111.497 86.199 111.468 86.2284 111.41 86.2284H105.962C104.301 86.2284 103.012 85.8425 102.093 85.072C101.175 84.301 100.717 83.2258 100.717 81.8471C100.717 80.9678 100.927 80.1887 101.348 79.5077C101.769 78.8267 102.373 78.3019 103.16 77.9316C103.946 77.5619 104.88 77.3773 105.962 77.3773H106.462V76.5046H109.164V84.0802L111.41 84.0813ZM106.488 84.0813V79.525H106.015C105.195 79.525 104.566 79.7264 104.124 80.1281C103.683 80.5294 103.462 81.1087 103.462 81.8649C103.462 82.5749 103.678 83.1216 104.111 83.5061C104.544 83.89 105.167 84.0823 105.979 84.0823L106.488 84.0813ZM104.813 75.3796C104.444 75.3796 104.152 75.2642 103.936 75.0343C103.719 74.8049 103.611 74.4922 103.611 74.096C103.611 73.6947 103.718 73.3789 103.931 73.149C104.144 72.9196 104.439 72.8042 104.813 72.8042C105.181 72.8042 105.471 72.9181 105.681 73.1444C105.892 73.3713 105.997 73.6886 105.997 74.096C105.997 74.5033 105.889 74.8192 105.673 75.0429C105.456 75.2667 105.17 75.3796 104.813 75.3796ZM107.865 75.3796C107.497 75.3796 107.205 75.2642 106.988 75.0343C106.772 74.8049 106.664 74.4922 106.664 74.096C106.664 73.6947 106.77 73.3789 106.984 73.149C107.197 72.9196 107.491 72.8042 107.865 72.8042C108.24 72.8042 108.533 72.9196 108.743 73.149C108.954 73.3789 109.059 73.6947 109.059 74.096C109.059 74.4916 108.949 74.8049 108.729 75.0343C108.511 75.2642 108.222 75.3796 107.865 75.3796Z" fill="white"/>
<path d="M111.226 86.2281C111.168 86.2281 111.138 86.1986 111.138 86.1411V84.1511C111.138 84.1048 111.168 84.0809 111.226 84.0809H114.006V77.3774H116.681V84.0809H119.383C119.442 84.0809 119.471 84.1048 119.471 84.1511V86.1411C119.471 86.1986 119.442 86.2281 119.383 86.2281H111.226ZM113.629 90.6969C113.261 90.6969 112.968 90.5815 112.752 90.3516C112.536 90.1217 112.427 89.81 112.427 89.4133C112.427 89.0115 112.534 88.6962 112.747 88.4663C112.961 88.237 113.254 88.1215 113.629 88.1215C113.998 88.1215 114.287 88.2349 114.498 88.4617C114.708 88.6886 114.814 89.0059 114.814 89.4133C114.814 89.8207 114.705 90.1365 114.488 90.3602C114.272 90.584 113.985 90.6969 113.629 90.6969ZM116.682 90.6969C116.313 90.6969 116.021 90.5815 115.805 90.3516C115.588 90.1217 115.48 89.81 115.48 89.4133C115.48 89.0115 115.587 88.6962 115.8 88.4663C116.013 88.237 116.308 88.1215 116.682 88.1215C117.056 88.1215 117.349 88.237 117.56 88.4663C117.77 88.6962 117.875 89.012 117.875 89.4133C117.875 89.809 117.765 90.1217 117.546 90.3516C117.327 90.582 117.039 90.6969 116.682 90.6969Z" fill="white"/>
<path d="M119.2 86.2281C119.142 86.2281 119.112 86.1986 119.112 86.1411V84.1511C119.112 84.1048 119.142 84.0809 119.2 84.0809H121.446V77.3774H124.121V86.2276L119.2 86.2281ZM122.762 75.8415C122.388 75.8415 122.091 75.7261 121.876 75.4962C121.659 75.2663 121.552 74.9541 121.552 74.5579C121.552 74.1561 121.658 73.8408 121.872 73.6109C122.085 73.3811 122.382 73.2661 122.762 73.2661C123.124 73.2661 123.412 73.3795 123.625 73.6064C123.839 73.8332 123.945 74.1505 123.945 74.5579C123.945 74.9536 123.836 75.2663 123.616 75.4962C123.398 75.7271 123.113 75.8415 122.762 75.8415Z" fill="white"/>
<path d="M130.64 90.522C129.827 90.522 129.124 90.4594 128.53 90.3348C127.937 90.2097 127.365 89.9844 126.815 89.6584L127.859 87.7121C128.345 87.9623 128.804 88.1383 129.236 88.2405C129.669 88.3422 130.12 88.3931 130.587 88.3931C131.266 88.3931 131.79 88.2085 132.158 87.8388C132.526 87.4685 132.71 86.961 132.71 86.3156V86.2286H130.929C129.648 86.2286 128.663 85.868 127.973 85.1464C127.283 84.4247 126.938 83.3979 126.938 82.0644C126.938 81.1215 127.175 80.2946 127.649 79.5816C128.123 78.8691 128.792 78.3234 129.658 77.945C130.523 77.5666 131.523 77.3774 132.658 77.3774H135.386V86.28C135.386 87.6358 134.972 88.682 134.145 89.4179C133.317 90.1548 132.149 90.522 130.64 90.522ZM132.71 84.0809V79.5246H132.131C131.365 79.5246 130.767 79.7408 130.337 80.171C129.907 80.6018 129.692 81.2095 129.692 81.9953C129.692 82.7108 129.838 83.2377 130.13 83.5744C130.423 83.9121 130.87 84.0809 131.472 84.0809H132.71Z" fill="white"/>
<path d="M145.588 84.0809C145.646 84.0809 145.676 84.1048 145.676 84.1511V86.1412C145.676 86.1986 145.646 86.2281 145.588 86.2281H143.255V86.5155C143.255 87.7432 142.914 88.7181 142.232 89.4393C141.551 90.1604 140.64 90.5215 139.5 90.5215C138.885 90.5215 138.322 90.4483 137.81 90.3033C137.299 90.1579 136.759 89.8954 136.191 89.5176L137.27 87.7803C137.586 87.9781 137.865 88.1149 138.108 88.1907C138.352 88.2665 138.642 88.3046 138.981 88.3046C139.461 88.3046 139.847 88.1231 140.14 87.7589C140.432 87.3953 140.578 86.9371 140.578 86.3843V77.377H143.253V84.0804H145.588V84.0809H145.588Z" fill="white"/>
<path d="M145.413 86.2281C145.355 86.2281 145.325 86.1986 145.325 86.1411V84.1511C145.325 84.1048 145.355 84.0809 145.413 84.0809H148.194V77.3774H150.869V84.0809H153.571C153.629 84.0809 153.659 84.1048 153.659 84.1511V86.1411C153.659 86.1986 153.629 86.2281 153.571 86.2281H145.413ZM147.852 75.8415C147.483 75.8415 147.191 75.7261 146.975 75.4962C146.759 75.2663 146.65 74.9541 146.65 74.5579C146.65 74.1561 146.756 73.8408 146.97 73.6109C147.183 73.3811 147.477 73.2661 147.852 73.2661C148.22 73.2661 148.51 73.3795 148.72 73.6064C148.931 73.8332 149.036 74.1505 149.036 74.5579C149.036 74.9653 148.927 75.2811 148.711 75.5048C148.495 75.7291 148.209 75.8415 147.852 75.8415ZM150.905 75.8415C150.536 75.8415 150.244 75.7261 150.027 75.4962C149.811 75.2663 149.703 74.9541 149.703 74.5579C149.703 74.1561 149.809 73.8408 150.023 73.6109C150.236 73.3811 150.53 73.2661 150.905 73.2661C151.279 73.2661 151.571 73.3811 151.782 73.6109C151.992 73.8408 152.098 74.1561 152.098 74.5579C152.098 74.9536 151.988 75.2663 151.768 75.4962C151.549 75.7266 151.261 75.8415 150.905 75.8415Z" fill="white"/>
<path d="M153.387 86.2283C153.328 86.2283 153.299 86.1988 153.299 86.1413V84.1513C153.299 84.105 153.328 84.0811 153.387 84.0811H160.414V81.2097C160.414 80.4886 160.165 79.9352 159.668 79.5513C159.171 79.1673 158.466 78.9745 157.553 78.9745H154.5V77.0369C155.132 75.7044 156.025 74.5306 157.18 73.515C158.335 72.4994 159.676 71.7213 161.203 71.1802L162.185 73.572C161.144 73.8858 160.17 74.3481 159.264 74.9599C158.357 75.5707 157.696 76.1937 157.281 76.8279H157.965C161.381 76.8279 163.088 78.1751 163.088 80.869V84.0811H165.421C165.479 84.0811 165.509 84.1045 165.509 84.1508V86.1408C165.509 86.1983 165.479 86.2278 165.421 86.2278L153.387 86.2283Z" fill="white"/>
<path d="M165.248 86.2283C165.19 86.2283 165.16 86.1988 165.16 86.1414V84.1513C165.16 84.1051 165.19 84.0812 165.248 84.0812H167.494V72.6479H170.169V86.2288L165.248 86.2283Z" fill="white"/>
<path d="M172.774 84.0812H176.029L173.713 75.0561H176.512L178.653 84.0812H178.776C179.372 84.0812 179.809 83.9174 180.087 83.5879C180.364 83.2593 180.503 82.734 180.503 82.0123V72.647H183.178V82.2218C183.178 83.4383 182.841 84.4097 182.166 85.1365C181.49 85.8642 180.559 86.2279 179.371 86.2279H172.774V84.0812ZM175.292 90.5924L176.319 90.4271C176.079 90.3107 175.883 90.1489 175.732 89.9425C175.58 89.736 175.504 89.4929 175.504 89.2137C175.504 88.7133 175.683 88.3171 176.039 88.0267C176.396 87.7358 176.879 87.5903 177.486 87.5903C178.077 87.5903 178.568 87.6976 178.96 87.9133L178.601 88.8211C178.268 88.6639 177.943 88.5856 177.627 88.5856C177.37 88.5856 177.163 88.6624 177.004 88.817C176.846 88.9711 176.767 89.1822 176.767 89.4502C176.767 89.8047 176.946 90.0727 177.303 90.2532L177.627 90.2003C178.213 90.1067 178.698 90.0457 179.084 90.0172V91.0562C178.657 91.0852 177.951 91.1574 176.965 91.2744C175.979 91.3909 175.422 91.4667 175.293 91.5012L175.292 90.5924Z" fill="white"/>
<path d="M186.592 72.6475H189.267V86.2283H186.592V72.6475Z" fill="white"/>
<path d="M201.918 86.2282C200.812 86.2282 199.94 85.9083 199.299 85.2675C198.659 84.6272 198.338 83.7494 198.338 82.6315C198.338 82.1835 198.391 81.7049 198.497 81.1958C198.603 80.6868 198.742 80.2545 198.918 79.9H201.286C201.105 80.6735 201.014 81.4537 201.014 82.2389C201.014 82.7923 201.17 83.2373 201.48 83.5744C201.789 83.9121 202.199 84.081 202.707 84.081H208.541V77.3775H211.225V86.2277L201.918 86.2282ZM203.225 77.3694C202.856 77.3694 202.564 77.2539 202.348 77.024C202.131 76.7947 202.022 76.4819 202.022 76.0857C202.022 75.6839 202.129 75.3686 202.343 75.1388C202.556 74.9094 202.849 74.7939 203.225 74.7939C203.593 74.7939 203.883 74.9074 204.093 75.1342C204.304 75.361 204.409 75.6784 204.409 76.0857C204.409 76.4931 204.301 76.8089 204.083 77.0327C203.868 77.257 203.582 77.3694 203.225 77.3694ZM206.277 77.3694C205.909 77.3694 205.616 77.2539 205.4 77.024C205.183 76.7947 205.075 76.4819 205.075 76.0857C205.075 75.6839 205.182 75.3686 205.396 75.1388C205.609 74.9094 205.903 74.7939 206.277 74.7939C206.651 74.7939 206.944 74.9094 207.155 75.1388C207.365 75.3686 207.47 75.6839 207.47 76.0857C207.47 76.4814 207.361 76.7947 207.141 77.024C206.922 77.2544 206.634 77.3694 206.277 77.3694Z" fill="white"/>
<path d="M213.56 84.0812H216.814L214.498 75.0561H217.297L219.438 84.0812H219.561C220.157 84.0812 220.594 83.9174 220.872 83.5879C221.149 83.2593 221.288 82.734 221.288 82.0123V72.647H223.963V82.2218C223.963 83.4383 223.626 84.4097 222.951 85.1365C222.276 85.8642 221.344 86.2279 220.156 86.2279H213.56V84.0812Z" fill="white"/>
<path d="M232.298 84.0812C232.357 84.0812 232.386 84.1051 232.386 84.1513V86.1414C232.386 86.1989 232.357 86.2283 232.298 86.2283H227.377V72.6475H230.052V84.0806L232.298 84.0812Z" fill="white"/>
<path d="M232.123 86.2282C232.064 86.2282 232.035 86.1987 232.035 86.1413V84.1512C232.035 84.105 232.064 84.0811 232.123 84.0811H234.237V77.3776H236.921V80.5109C238.015 78.3057 239.638 77.2031 241.79 77.2031C243.258 77.2031 244.366 77.5886 245.115 78.3591C245.864 79.1306 246.238 80.3217 246.238 81.9334V84.0805H248.58C248.638 84.0805 248.668 84.1039 248.668 84.1507V86.1408C248.668 86.1982 248.638 86.2277 248.58 86.2277L232.123 86.2282ZM243.563 84.0811V81.882C243.563 81.0149 243.361 80.3766 242.961 79.9657C242.561 79.5553 241.942 79.3503 241.105 79.3503C239.492 79.3503 238.096 80.4626 236.92 82.6845V84.0811H243.563Z" fill="white"/>
<path d="M248.396 86.2281C248.338 86.2281 248.309 86.1986 248.309 86.1411V84.1511C248.309 84.1048 248.338 84.0809 248.396 84.0809H251.537V77.3774H254.213V86.2276L248.396 86.2281ZM251.317 75.8415C250.949 75.8415 250.656 75.7261 250.44 75.4962C250.223 75.2663 250.115 74.9541 250.115 74.5579C250.115 74.1561 250.222 73.8408 250.436 73.6109C250.649 73.3811 250.942 73.2661 251.317 73.2661C251.686 73.2661 251.975 73.3795 252.186 73.6064C252.396 73.8332 252.501 74.1505 252.501 74.5579C252.501 74.9653 252.393 75.2811 252.177 75.5048C251.96 75.7291 251.675 75.8415 251.317 75.8415ZM254.37 75.8415C254.001 75.8415 253.709 75.7261 253.493 75.4962C253.276 75.2663 253.168 74.9541 253.168 74.5579C253.168 74.1561 253.275 73.8408 253.488 73.6109C253.701 73.3811 253.995 73.2661 254.37 73.2661C254.745 73.2661 255.038 73.3811 255.248 73.6109C255.458 73.8408 255.563 74.1561 255.563 74.5579C255.563 74.9536 255.453 75.2663 255.234 75.4962C255.015 75.7261 254.727 75.8415 254.37 75.8415Z" fill="white"/>
<path d="M256.546 84.0812H259.801L257.484 75.0561H260.284L262.424 84.0812H262.547C263.144 84.0812 263.581 83.9174 263.859 83.5879C264.136 83.2593 264.274 82.734 264.274 82.0123V72.647H266.95V82.2218C266.95 83.4383 266.612 84.4097 265.937 85.1365C265.262 85.8642 264.33 86.2279 263.143 86.2279H256.546V84.0812Z" fill="white"/>
<path d="M270.362 72.6475H273.038V86.2283H270.362V72.6475Z" fill="white"/>
<path d="M279.829 90.522C279.015 90.522 278.312 90.4594 277.718 90.3348C277.125 90.2097 276.553 89.9844 276.004 89.6584L277.048 87.7121C277.533 87.9623 277.993 88.1383 278.425 88.2405C278.858 88.3422 279.309 88.3931 279.776 88.3931C280.455 88.3931 280.979 88.2085 281.347 87.8388C281.715 87.4685 281.899 86.961 281.899 86.3156V86.2286H280.119C278.838 86.2286 277.852 85.868 277.162 85.1464C276.473 84.4247 276.128 83.3979 276.128 82.0644C276.128 81.1215 276.365 80.2946 276.839 79.5816C277.312 78.8686 277.982 78.3234 278.848 77.945C279.713 77.5666 280.713 77.3774 281.848 77.3774H284.576V86.28C284.576 87.6358 284.162 88.682 283.335 89.4179C282.505 90.1548 281.337 90.522 279.829 90.522ZM281.899 84.0809V79.5246H281.32C280.553 79.5246 279.955 79.7408 279.525 80.171C279.095 80.6018 278.88 81.2095 278.88 81.9953C278.88 82.7108 279.026 83.2377 279.318 83.5744C279.61 83.9116 280.058 84.0809 280.661 84.0809H281.899Z" fill="white"/>
<path d="M293.015 84.0811H299.014C298.769 82.9815 298.47 82.0931 298.115 81.4151C297.761 80.7372 297.311 80.1529 296.764 79.6606C296.217 79.1688 295.549 78.7599 294.759 78.4344L295.768 75.9297C297.347 76.5573 298.62 77.5297 299.585 78.8443C300.55 80.1595 301.257 81.9054 301.708 84.0811H304.067C304.125 84.0811 304.155 84.1045 304.155 84.1513V86.1413C304.155 86.1988 304.125 86.2283 304.067 86.2283H293.014L293.015 84.0811Z" fill="white"/>
<path d="M303.883 86.2281C303.825 86.2281 303.796 86.1986 303.796 86.1411V84.1511C303.796 84.1048 303.825 84.0809 303.883 84.0809H307.025V77.3774H309.7V86.2276L303.883 86.2281ZM305.331 90.6969C304.962 90.6969 304.67 90.5815 304.454 90.3516C304.237 90.1217 304.128 89.81 304.128 89.4133C304.128 89.0115 304.235 88.6962 304.449 88.4663C304.662 88.237 304.956 88.1215 305.331 88.1215C305.699 88.1215 305.989 88.2349 306.199 88.4617C306.41 88.6886 306.514 89.0059 306.514 89.4133C306.514 89.8207 306.406 90.1365 306.19 90.3602C305.974 90.5845 305.688 90.6969 305.331 90.6969ZM308.384 90.6969C308.015 90.6969 307.723 90.5815 307.506 90.3516C307.29 90.1217 307.181 89.81 307.181 89.4133C307.181 89.0115 307.288 88.6962 307.502 88.4663C307.715 88.237 308.009 88.1215 308.384 88.1215C308.757 88.1215 309.051 88.237 309.261 88.4663C309.471 88.6962 309.577 89.012 309.577 89.4133C309.577 89.809 309.467 90.1217 309.248 90.3516C309.028 90.5815 308.74 90.6969 308.384 90.6969Z" fill="white"/>
<path d="M319.902 84.0809C319.96 84.0809 319.989 84.1048 319.989 84.1511V86.1412C319.989 86.1986 319.96 86.2281 319.902 86.2281H317.568V86.5155C317.568 87.7432 317.228 88.7181 316.547 89.4393C315.865 90.1604 314.955 90.5215 313.813 90.5215C313.199 90.5215 312.636 90.4483 312.124 90.3033C311.613 90.1579 311.072 89.8954 310.506 89.5176L311.585 87.7803C311.9 87.9781 312.179 88.1149 312.423 88.1907C312.666 88.2665 312.956 88.3046 313.295 88.3046C313.775 88.3046 314.16 88.1231 314.454 87.7589C314.746 87.3953 314.892 86.9371 314.892 86.3843V77.377H317.567V84.0804H319.901L319.902 84.0809Z" fill="white"/>
<path d="M326.982 84.0809C327.04 84.0809 327.07 84.1048 327.07 84.1511V86.1411C327.07 86.1986 327.04 86.2281 326.982 86.2281H319.727C319.669 86.2281 319.64 86.1986 319.64 86.1411V84.1511C319.64 84.1048 319.669 84.0809 319.727 84.0809H321.973V77.3774H324.649V84.0809H326.982ZM323.253 90.6969C322.879 90.6969 322.583 90.5815 322.368 90.3516C322.151 90.1217 322.043 89.81 322.043 89.4133C322.043 89.0115 322.149 88.6962 322.363 88.4663C322.577 88.237 322.873 88.1215 323.253 88.1215C323.616 88.1215 323.903 88.2349 324.117 88.4617C324.331 88.6886 324.437 89.0059 324.437 89.4133C324.437 89.809 324.328 90.1217 324.108 90.3516C323.889 90.582 323.604 90.6969 323.253 90.6969Z" fill="white"/>
<path d="M326.806 86.2283C326.748 86.2283 326.719 86.1988 326.719 86.1414V84.1513C326.719 84.1051 326.748 84.0812 326.806 84.0812H329.053V72.6479H331.728V86.2288L326.806 86.2283Z" fill="white"/>
<path d="M335.324 72.6475H338V86.2283H335.324V72.6475Z" fill="white"/>
</g>
<defs>
<clipPath id="clip0_755_7190">
<rect width="338" height="178" fill="white"/>
</clipPath>
</defs>
</svg>
