<svg width="292" height="292" viewBox="0 0 292 292" fill="none" xmlns="http://www.w3.org/2000/svg">
<path d="M25.5726 180.888L67.4469 177.529L66.999 176.409L28.0806 174.708L27.7223 173.857L64.8045 170.677L64.3567 169.557L25.3487 168.035L25.0352 167.228L62.3413 164.362L61.8935 163.243L22.572 161.182L22.2137 160.287L59.7438 157.6L59.3407 156.569L20.0192 154.823L19.661 154.017L57.2358 151.15L56.788 149.986L17.153 147.881L16.7947 146.985L54.4591 143.94L54.0561 142.865L9.36035 141.253L25.5726 180.888Z" fill="white"/>
<path d="M71.6562 116.621L96.736 181.739H75.5973L56.9667 133.55L54.6378 138.79H33.2305L42.0084 116.621C47.1139 103.499 66.7299 103.499 71.6562 116.621Z" fill="white"/>
<path d="M132.475 107.978C144.925 107.978 144.432 125.265 132.475 125.265H118.95V181.649H101.349V125.265H88.9434C76.9857 125.265 76.1348 107.978 88.9434 107.978H132.475Z" fill="white"/>
<path d="M155.807 108.067H200.906C212.595 108.067 212.282 125.264 200.906 125.264H163.376V135.834H196.831C207.4 137.939 206.997 151.464 196.831 153.21H163.376V164.407H200.906C211.968 164.407 211.834 181.694 200.906 181.694H145.82V117.248C145.82 111.829 149.896 107.888 155.807 108.067Z" fill="white"/>
<path d="M278.072 173.811C278.072 178.693 275.116 182.321 269.204 182.321C265.577 182.321 262.442 179.32 260.426 176.991L231.898 141.79L231.853 181.649H214.163V115.546C214.163 110.709 216.044 107.037 222.001 107.037C225.628 107.037 228.718 110.037 230.778 112.366L259.396 147.567L259.486 116.621C259.486 103.857 278.116 103.678 278.116 116.621V173.811H278.072Z" fill="white"/>
</svg>
