<svg width="133" height="143" viewBox="0 0 133 143" fill="none" xmlns="http://www.w3.org/2000/svg">
<g clip-path="url(#clip0_755_7161)">
<path d="M132.989 0.21875H0.834961V142.162H132.989V0.21875Z" stroke="white" stroke-width="2"/>
<path d="M116.395 130.426H5.80273C8.26089 57.6793 60.8475 17.4559 116.534 14.3291L116.395 130.426Z" fill="url(#paint0_radial_755_7161)"/>
<path d="M120.33 130.426H9.7373C12.1956 57.6792 64.7821 17.4559 120.469 14.3291L120.33 130.426ZM69.0518 88.0723C66.1105 88.0723 63.3634 88.468 60.8105 89.2607C58.2576 90.0536 56.0194 91.2527 54.0967 92.8574C52.1739 94.4624 50.6804 96.4578 49.6172 98.8428C48.5539 101.228 48.0225 103.949 48.0225 107.005C48.0225 109.882 48.5574 112.405 49.627 114.572C50.6966 116.74 52.1798 118.54 54.0771 119.973C55.9743 121.405 58.1486 122.469 60.5996 123.166C63.0508 123.863 65.6393 124.212 68.3643 124.212C71.9169 124.212 76.3483 123.476 81.6582 122.006C81.5564 119.5 81.5058 117.588 81.5059 116.271C81.5058 113.074 81.633 110.298 81.8877 107.945C80.5634 108.099 79.2072 108.175 77.8193 108.175C76.5207 108.175 75.2409 108.099 73.9805 107.945C74.1969 111.308 74.3047 113.956 74.3047 115.887V119.8C74.2792 119.8 74.254 119.873 74.2285 120.021C74.2031 120.167 74.1778 120.254 74.1523 120.279C74.0632 120.369 73.754 120.483 73.2256 120.624C72.6972 120.765 72.3249 120.836 72.1084 120.836C70.7331 121.092 69.5867 121.219 68.6699 121.219C68.046 121.219 67.1613 121.117 66.0156 120.912C64.7423 120.592 63.7929 120.292 63.1689 120.011C62.545 119.729 61.7683 119.217 60.8389 118.476C59.3619 117.248 58.2381 115.592 57.4678 113.508C56.6974 111.423 56.3125 109.307 56.3125 107.158C56.3125 102.938 57.2483 99.4276 59.1201 96.627C61.6286 93.0209 64.971 91.2179 69.1475 91.2178C73.4895 91.2178 76.826 92.8928 79.1562 96.2432H79.8633C80.0798 95.0412 80.5439 93.3341 81.2568 91.1221C77.6532 89.0888 73.5848 88.0723 69.0518 88.0723ZM34.6904 88.3018C34.3848 88.3401 34.0664 88.3878 33.7354 88.4453C33.4043 88.5029 33.0985 88.5323 32.8184 88.5322C32.6528 88.5322 32.4455 88.5164 32.1973 88.4844C31.9491 88.4525 31.7071 88.4173 31.4717 88.3789C31.2363 88.3406 31.0297 88.3147 30.8516 88.3018C28.1521 95.7189 24.6311 104.415 20.2891 114.39L16.5449 123.118V123.502C17.3344 123.348 18.1178 123.271 18.8945 123.271C19.7349 123.271 20.5436 123.349 21.3203 123.502C21.6768 122.019 22.1569 120.423 22.7617 118.716C23.3666 117.009 23.9563 115.355 24.5293 113.757L24.7578 113.047C27.5592 112.945 29.6162 112.894 30.9277 112.894C31.5643 112.894 32.5064 112.92 33.7539 112.971C35.0018 113.022 35.9385 113.047 36.5625 113.047C37.4538 115.336 38.6313 118.821 40.0957 123.502C41.4964 123.348 42.9039 123.271 44.3174 123.271C44.8267 123.272 45.5589 123.303 46.5137 123.367C47.4683 123.431 48.1938 123.476 48.6904 123.502V123.022L48.3857 122.485C43.7125 111.36 39.2811 100.252 35.0918 89.165L34.6904 88.3018ZM98.6768 88.5322C97.8745 88.5323 96.6582 88.5583 95.0283 88.6094C93.3986 88.6606 92.1636 88.6856 91.3232 88.6855C90.1136 88.6856 88.2098 88.6346 85.6123 88.5322C85.8669 96.2691 85.9941 100.905 85.9941 102.439C85.994 105.598 85.9427 110.26 85.8408 116.424C85.7389 119.57 85.5865 121.929 85.3828 123.502C87.3691 123.4 88.8525 123.349 89.833 123.349C90.6734 123.349 91.9218 123.374 93.5771 123.425C95.2324 123.476 96.4615 123.502 97.2637 123.502C98.6896 123.502 99.8421 123.425 100.721 123.271C103.636 122.658 105.693 121.686 106.89 120.356C108.71 118.362 109.621 116.085 109.621 113.527C109.621 111.098 108.685 109.051 106.813 107.389C105.005 105.816 102.891 105.029 100.472 105.029L100.473 104.646C102.828 104.287 104.799 103.401 106.384 101.988C107.969 100.575 108.762 98.7371 108.762 96.4736C108.762 94.5683 108.3 93.0237 107.377 91.8408C106.454 90.6582 105.235 89.8113 103.72 89.2998C102.204 88.7883 100.523 88.5323 98.6768 88.5322ZM94.9141 106.603C99.4089 106.603 101.656 109.013 101.656 113.834C101.656 115.356 101.185 116.852 100.243 118.322C99.3136 119.831 97.7982 120.586 95.6973 120.586C95.4426 120.586 95.0349 120.573 94.4746 120.548C93.9146 120.522 93.4882 120.51 93.1953 120.51C93.1953 119.781 93.1818 118.7 93.1562 117.268C93.1306 115.836 93.1181 114.768 93.1182 114.064C93.1182 110.765 93.1443 108.303 93.1953 106.679C93.6155 106.628 94.1885 106.603 94.9141 106.603ZM30.8516 98.0469C32.7742 102.881 34.2897 106.857 35.3975 109.978H26.0762L26.248 109.518C27.5086 106.026 29.0434 102.203 30.8516 98.0469ZM95.7734 91.3711C97.2378 91.3711 98.5172 91.813 99.6123 92.6953C100.083 93.0406 100.475 93.6924 100.787 94.6514C101.099 95.6105 101.255 96.4547 101.255 97.1836C101.255 99.447 100.53 101.199 99.0781 102.439C98.3014 102.989 97.48 103.338 96.6143 103.485C95.7484 103.632 94.6086 103.706 93.1953 103.706V98.4307C93.1952 96.8705 93.2458 94.5681 93.3477 91.5244C93.9334 91.4221 94.742 91.3711 95.7734 91.3711Z" fill="white"/>
</g>
<defs>
<radialGradient id="paint0_radial_755_7161" cx="0" cy="0" r="1" gradientTransform="matrix(31.3653 32.5723 -31.6353 30.7253 48.1843 56.5715)" gradientUnits="userSpaceOnUse">
<stop stop-color="#FCFEFF"/>
<stop offset="1" stop-color="#FCFEFF" stop-opacity="0"/>
</radialGradient>
<clipPath id="clip0_755_7161">
<rect width="133" height="143" fill="white"/>
</clipPath>
</defs>
</svg>
