<svg width="328" height="36" viewBox="0 0 328 36" fill="none" xmlns="http://www.w3.org/2000/svg">
<path d="M288.189 34.3277H326.252V8.69287L288.189 34.3277ZM305.025 8.69287L282.619 34.3277L310.852 15.3327L305.025 8.69287ZM282.617 8.69287V29.6255L294.147 16.4415L282.617 8.69287Z" fill="white"/>
<path d="M69.5774 10.8763V8.69311H63.4286V34.3279H69.6287V20.2609C69.6287 16.393 71.8633 13.8938 75.3215 13.8938C76.6952 13.8938 78.2155 14.2152 79.2485 14.7136L80.7175 8.67686C79.5049 8.24347 78.2173 8.04123 76.589 8.04123C73.6437 8.04123 71.2387 9.01635 69.5774 10.8763ZM142.594 29.1797C138.293 29.1797 135.289 26.0268 135.289 21.5123C135.289 16.9943 138.293 13.8414 142.594 13.8414C146.897 13.8414 149.897 16.9943 149.897 21.5123C149.897 26.0268 146.897 29.1797 142.594 29.1797ZM149.554 11.3729C147.876 9.29624 145.545 8.04123 141.935 8.04123C134.52 8.04123 128.932 13.8324 128.932 21.5123C128.932 29.1887 134.52 34.9798 141.935 34.9798C145.526 34.9798 147.849 33.7483 149.554 31.5886V34.3279H155.756V8.69311H149.554V11.3729ZM198.723 29.1797C194.424 29.1797 191.422 26.0268 191.422 21.5123C191.422 16.9943 194.424 13.8414 198.723 13.8414C203.024 13.8414 206.027 16.9943 206.027 21.5123C206.027 26.0268 203.024 29.1797 198.723 29.1797ZM205.683 11.3729C204.005 9.29624 201.672 8.04123 198.062 8.04123C190.653 8.04123 185.061 13.8324 185.061 21.5123C185.061 29.1887 190.653 34.9798 198.062 34.9798C201.654 34.9798 203.976 33.7483 205.683 31.5886V34.3279H211.885V8.69311H205.683V11.3729ZM260.156 29.1797C255.857 29.1797 252.853 26.0268 252.853 21.5123C252.853 16.9943 255.857 13.8414 260.156 13.8414C264.457 13.8414 267.461 16.9943 267.461 21.5123C267.461 26.0268 264.457 29.1797 260.156 29.1797ZM267.115 11.3729C265.439 9.29624 263.107 8.04123 259.495 8.04123C252.084 8.04123 246.494 13.8324 246.494 21.5123C246.494 29.1887 252.084 34.9798 259.495 34.9798C263.089 34.9798 265.409 33.7483 267.115 31.5886V34.3279H273.316V8.69311H267.115V11.3729ZM230.522 29.1797C226.221 29.1797 223.217 26.0268 223.217 21.5123C223.217 16.9961 226.221 13.8414 230.522 13.8414C234.821 13.8414 237.825 16.9961 237.825 21.5123C237.825 26.0268 234.821 29.1797 230.522 29.1797ZM231.183 8.04123C228.112 8.04123 225.505 9.0958 223.587 11.102V1.01855H217.387V34.3279H223.587V31.5904C225.282 33.8187 227.947 34.9834 231.183 34.9834C238.594 34.9834 244.181 29.1905 244.181 21.5123C244.181 13.8342 238.594 8.04123 231.183 8.04123ZM185.976 8.69492H178.117L169.761 18.1825H167.479V1.01855H161.251V34.3261H167.479V23.7984H169.728L178.163 34.3261H186.03L175.062 20.7918L185.976 8.69492ZM115.129 8.04303C112.191 8.04303 108.254 8.7834 105.871 12.2252C103.976 9.55989 100.822 8.04303 97.1235 8.04303C94.8834 8.04303 91.8685 8.5956 89.6889 11.0966V8.69311H83.5144V34.3279H89.742V20.1562C89.742 15.8314 92.8649 13.8938 95.9604 13.8938C99.4936 13.8938 101.519 16.1582 101.519 20.1038V34.3298H107.745V20.1544C107.745 15.8314 110.87 13.8938 113.965 13.8938C117.499 13.8938 119.524 16.1582 119.524 20.1038V34.3298H125.75V18.3053C125.75 12.2613 121.384 8.04123 115.127 8.04123M45.8888 29.1797C41.4892 29.1797 38.2966 25.9545 38.2966 21.5123C38.2966 17.0683 41.4892 13.8414 45.8888 13.8414C50.3049 13.8414 53.5103 17.0683 53.5103 21.5123C53.5103 25.9545 50.3031 29.1797 45.8888 29.1797ZM45.8906 8.04123C37.9358 8.04123 31.9372 13.8324 31.9372 21.5123C31.9372 29.1887 37.9358 34.9798 45.8888 34.9798C53.8583 34.9798 59.8697 29.1887 59.8697 21.5123C59.8697 13.8324 53.8601 8.04123 45.8906 8.04123ZM15.4084 29.1797C11.1096 29.1797 8.10751 26.0268 8.10751 21.5123C8.10751 16.9961 11.1114 13.8414 15.4103 13.8414C19.7091 13.8414 22.713 16.9961 22.713 21.5123C22.713 26.0268 19.7073 29.1797 15.4084 29.1797ZM22.3705 11.1472C20.4473 9.11025 17.8317 8.04123 14.749 8.04123C7.33456 8.04123 1.74805 13.8324 1.74805 21.5123C1.74805 29.1887 7.33639 34.9816 14.749 34.9816C18.5955 34.9816 20.548 33.6941 22.3687 31.5868V34.3279H28.5706V1.01855H22.3705V11.1472Z" fill="white"/>
</svg>
