<svg width="100" height="100" viewBox="0 0 100 100" fill="none" xmlns="http://www.w3.org/2000/svg">
<g clip-path="url(#clip0_755_13242)">
<path d="M94.0401 89.45C94.3474 89.7475 94.5896 90.1055 94.7514 90.5014C94.9132 90.8973 94.9911 91.3225 94.9801 91.75C94.9837 92.3935 94.7956 93.0234 94.4398 93.5595C94.084 94.0957 93.5767 94.5137 92.9824 94.7604C92.3882 95.0072 91.7339 95.0713 91.1031 94.9448C90.4722 94.8183 89.8933 94.5068 89.4401 94.05C89.138 93.7487 88.8992 93.39 88.7377 92.995C88.5763 92.6 88.4955 92.1767 88.5001 91.75C88.4988 91.3233 88.5815 90.9004 88.7436 90.5056C88.9058 90.1108 89.144 89.7517 89.4449 89.449C89.7458 89.1463 90.1033 88.9058 90.4971 88.7413C90.8909 88.5767 91.3133 88.4914 91.7401 88.4901C92.1691 88.4816 92.5952 88.5626 92.9912 88.7279C93.3872 88.8932 93.7444 89.1391 94.0401 89.45ZM94.4201 89.08C94.0717 88.724 93.6544 88.4428 93.1935 88.2536C92.7327 88.0645 92.2381 87.9714 91.7401 87.98C91.1201 87.9814 90.5101 88.1357 89.9639 88.4292C89.4178 88.7226 88.9525 89.1463 88.6092 89.6625C88.2659 90.1788 88.0553 90.7717 87.9959 91.3888C87.9365 92.0059 88.0302 92.6282 88.2687 93.2004C88.5072 93.7727 88.8831 94.2773 89.3633 94.6695C89.8434 95.0618 90.4128 95.3296 91.0211 95.4492C91.6294 95.5688 92.2579 95.5366 92.8507 95.3553C93.4436 95.1741 93.9826 94.8494 94.4201 94.41C94.7714 94.0598 95.0502 93.6437 95.2404 93.1855C95.4306 92.7273 95.5285 92.2361 95.5285 91.7401C95.5285 91.244 95.4306 90.7528 95.2404 90.2946C95.0502 89.8364 94.7714 89.4203 94.4201 89.07V89.08ZM92.3001 91.57C92.0745 91.644 91.837 91.6745 91.6001 91.66H90.9501V90.16H91.5801C91.9801 90.16 92.2801 90.21 92.4501 90.31C92.6201 90.41 92.7301 90.62 92.7301 90.91C92.74 91.0506 92.7032 91.1905 92.6254 91.3081C92.5477 91.4256 92.4333 91.5142 92.3001 91.56V91.57ZM90.2201 93.7901H90.9501V92.17H91.5301C91.9101 92.17 92.1901 92.21 92.3401 92.3C92.6001 92.46 92.7301 92.77 92.7301 93.25V93.58L92.7401 93.71C92.7448 93.7264 92.7482 93.7431 92.7501 93.76C92.7501 93.78 92.7601 93.7901 92.7701 93.7901H93.4501L93.4301 93.75C93.3997 93.6844 93.3859 93.6123 93.3901 93.5401V92.93C93.3788 92.6939 93.295 92.4669 93.1501 92.28C93.0001 92.06 92.7601 91.93 92.4401 91.87C92.6508 91.8415 92.8544 91.7737 93.0401 91.67C93.3101 91.49 93.4401 91.21 93.4401 90.85C93.4401 90.33 93.2401 89.98 92.8001 89.8C92.5601 89.7 92.1901 89.65 91.6701 89.65H90.2201V93.7901Z" fill="white"/>
<path d="M95.8597 62.0303C96.1297 56.7003 95.1397 50.9503 90.4997 45.7503C85.7297 40.6103 77.6797 36.2503 61.1297 35.2303C61.9897 32.5503 62.7397 30.0903 63.5297 27.5803C73.4297 27.9303 82.2397 28.6403 89.7297 29.6103C90.3297 26.9303 90.6497 24.3103 91.2597 21.7703C90.4997 20.657 89.693 19.577 88.8397 18.5303C85.2797 18.1103 81.7197 17.2303 77.8997 16.7303C72.4415 16.0338 66.9568 15.5634 61.4597 15.3203C57.0916 28.3265 52.755 41.3432 48.4497 54.3703C73.0697 56.5003 82.5497 63.1403 81.9997 72.5003C81.4997 77.5603 76.8897 82.1503 70.7997 82.7003C63.5797 83.1903 60.2697 80.2603 58.0997 77.0603C56.1265 74.1045 54.1698 71.1378 52.2297 68.1603C51.6797 67.2403 50.9497 67.8403 50.2897 68.4803C48.8308 69.8949 47.3674 71.3049 45.8997 72.7103C44.9597 73.5303 45.1697 74.2403 45.4997 74.9303C46.8006 77.9985 48.1207 81.0585 49.4597 84.1103C51.6097 85.4303 61.7497 87.2303 69.3297 86.6703C75.4325 86.1056 81.2655 83.8858 86.1997 80.2503C91.4497 76.1803 95.2697 70.7003 95.8597 62.0303Z" fill="white"/>
<path d="M9.73012 79.6305C10.6768 80.9171 11.6835 82.1538 12.7501 83.3405C22.7339 85.0359 32.8265 86.0117 42.9501 86.2605L42.8501 82.8104C36.0601 82.4305 32.9401 81.3904 32.4001 80.0505C31.9401 78.9805 31.8601 77.3804 31.7701 75.8105C31.2532 64.8019 31.0864 53.7796 31.2701 42.7605C35.0701 42.6904 38.8501 42.6604 42.8201 42.6104C44.7401 41.7404 46.5501 40.8704 48.4701 40.0105L48.4801 36.0804C42.6001 36.1004 37.0201 36.2004 31.4201 36.3604C31.5801 31.5905 31.7701 27.2004 32.0501 22.9104C32.2501 20.0904 34.2001 18.0304 36.2101 17.8704C39.4401 17.7404 42.3301 19.0304 45.1401 20.2704C46.6801 21.0204 48.2101 21.7704 49.7901 22.5704C50.5501 22.7704 51.4501 22.9504 51.9901 22.3004C52.9301 21.1804 53.8201 20.1504 54.7401 19.0704C55.2401 18.3304 55.0301 17.9104 54.8201 17.6404C52.8994 16.1287 50.9593 14.642 49.0001 13.1804C47.8201 12.3804 45.9501 12.2104 44.1001 12.2104C43.3701 12.2104 42.6401 12.2304 41.9501 12.2504C40.0601 12.3504 37.6501 12.6504 33.7101 13.6204C24.8301 16.0104 14.1701 22.2004 13.0401 32.3204C12.8958 33.9822 12.7724 35.6456 12.6701 37.3104C10.1601 37.5105 7.87012 37.7004 5.72012 37.9104C5.56788 39.8281 5.45119 41.7485 5.37012 43.6705C7.55012 43.5405 9.83012 43.4205 12.3701 43.3104C11.9901 53.9305 12.3401 64.5205 13.3401 74.3405C13.5101 75.8305 13.6701 77.3104 13.4801 78.2605C13.3201 79.1704 11.8501 79.6505 9.73012 79.6305Z" fill="white"/>
</g>
<defs>
<clipPath id="clip0_755_13242">
<rect width="100" height="100" fill="white"/>
</clipPath>
</defs>
</svg>
