<svg width="315" height="51" viewBox="0 0 315 51" fill="none" xmlns="http://www.w3.org/2000/svg">
<path d="M42.7406 0C42.9276 0 43.1147 0.186591 43.1147 0.373182V9.32955C43.1147 9.51614 42.9276 9.70273 42.7406 9.70273H10.1006C9.91356 9.70273 9.72652 9.88933 9.72652 10.0759V49.5399C9.72652 49.7265 9.53947 49.9131 9.35242 49.9131H0.374097C0.187048 49.9131 0 49.7265 0 49.5399V0.373182C0 0.186591 0.187048 0 0.374097 0H42.7406ZM21.3235 20.1518C21.0429 19.8719 20.7624 20.1518 20.7624 20.4317V48.0472C20.7624 48.5137 21.0429 48.607 21.3235 48.2338L35.5392 35.0791C35.7262 34.8925 35.7262 34.6126 35.5392 34.426L21.3235 20.1518Z" fill="white"/>
<path d="M71.4526 28.8282H56.5822V34.146H68.9274C69.3015 34.146 69.4886 34.3326 69.4886 34.6125V40.0236C69.4886 40.3968 69.3015 40.4901 68.9274 40.4901H56.5822V49.2599C56.5822 49.7263 56.5822 49.8196 56.2081 49.8196H49.6614C49.3809 49.8196 49.3809 49.8196 49.3809 49.2599V23.1371C49.3809 22.6706 49.3809 22.5774 49.6614 22.5774H71.4526C71.7331 22.5774 71.7331 22.9505 71.7331 22.9505V28.3617C71.8267 28.5483 71.8267 28.8282 71.4526 28.8282ZM102.97 36.3851C102.97 28.5483 96.7976 22.1109 88.661 22.1109C80.5244 22.1109 74.3518 28.455 74.3518 36.3851C74.3518 44.2219 80.5244 50.566 88.661 50.566C96.7976 50.566 102.97 44.2219 102.97 36.3851ZM95.4883 36.3851C95.4883 40.4901 92.9631 43.7554 88.7545 43.7554C84.4524 43.7554 82.0208 40.5834 82.0208 36.3851C82.0208 32.2801 84.4524 29.0147 88.7545 29.0147C92.9631 28.9214 95.4883 32.1868 95.4883 36.3851ZM131.308 48.7934C128.97 45.0616 126.725 40.9566 125.603 39.3705C128.035 38.251 129.344 35.6387 129.344 31.9069C129.344 26.9622 126.071 22.7639 119.898 22.7639H107.459C107.366 22.7639 107.179 22.7639 107.179 23.1371V49.6331C107.179 50.0062 107.179 50.0062 107.459 50.0062H114.006C114.287 50.0062 114.287 50.0062 114.287 49.6331V42.0761L118.869 41.9828C118.869 41.9828 121.769 46.5543 123.171 49.1666C123.546 49.9129 123.733 50.0062 124.013 50.0062H131.121C131.682 49.8196 131.776 49.5398 131.308 48.7934ZM121.769 32.3734C121.769 34.7058 120.553 36.2918 118.402 36.3851L114.38 36.4784V28.6416H118.402C120.646 28.6416 121.769 30.2276 121.769 32.3734ZM147.394 50.6593C154.97 50.6593 159.552 45.4348 160.488 40.4901C160.581 40.0236 160.488 39.9303 160.301 39.9303H153.754C153.473 39.9303 153.38 40.1169 153.38 40.2102C152.164 42.6359 150.293 43.7554 147.581 43.7554C143.56 43.7554 141.035 40.5834 141.035 36.2918V36.3851C141.035 32.0935 143.653 28.9214 147.581 28.9214C150.387 28.9214 152.257 30.041 153.38 32.4667C153.38 32.56 153.473 32.7466 153.754 32.7466H160.301C160.488 32.7466 160.581 32.6533 160.488 32.1868C159.459 27.2421 154.97 22.0176 147.394 22.0176C139.538 22.0176 133.366 28.0818 133.366 36.2918C133.366 44.5951 139.538 50.6593 147.394 50.6593ZM183.962 49.2599V44.1286C183.962 43.6621 183.869 43.5688 183.401 43.5688H171.711V38.9974H182.933C183.308 38.9974 183.307 38.9041 183.307 38.4376V33.5862C183.307 33.1197 183.308 33.0265 182.933 33.0265H171.711V28.455H183.214C183.495 28.455 183.682 28.3617 183.682 27.9885V23.1371C183.682 22.6706 183.682 22.5774 183.214 22.5774H165.07C164.696 22.5774 164.696 22.5774 164.696 22.9505V49.1666C164.696 49.6331 164.696 49.7263 165.164 49.7263H183.588C183.962 49.8196 183.962 49.8196 183.962 49.2599ZM214.451 33.1197C214.451 26.9622 210.897 22.6706 204.912 22.6706H190.228C190.041 22.6706 189.854 22.6706 189.854 23.0438V49.5398C189.854 49.9129 189.854 49.9129 190.228 49.9129H196.775C197.056 49.9129 197.149 49.9129 197.149 49.5398V42.9158C197.149 42.9158 204.35 43.1024 205.473 42.9158C210.617 42.2627 214.451 39.6504 214.451 33.1197ZM207.063 32.8399C207.063 35.079 205.94 36.8516 203.135 37.0382H197.149V28.6416H203.041C205.473 28.6416 207.063 30.1343 207.063 32.8399ZM246.343 36.3851C246.343 28.5483 240.17 22.1109 232.034 22.1109C223.897 22.1109 217.724 28.455 217.724 36.3851C217.724 44.2219 223.897 50.566 232.034 50.566C240.17 50.566 246.343 44.2219 246.343 36.3851ZM238.767 36.3851C238.767 40.4901 236.242 43.7554 232.034 43.7554C227.732 43.7554 225.3 40.5834 225.3 36.3851C225.3 32.2801 227.732 29.0147 232.034 29.0147C236.336 28.9214 238.767 32.1868 238.767 36.3851ZM257.753 49.5398V23.0438C257.753 22.7639 257.753 22.6706 257.379 22.6706H250.738C250.364 22.6706 250.364 22.6706 250.364 23.0438V49.5398C250.364 49.9129 250.364 49.9129 250.738 49.9129H257.379C257.753 49.8196 257.753 49.8196 257.753 49.5398ZM314.615 29.4812V23.0438C314.615 22.7639 314.615 22.6706 314.335 22.6706H290.954C290.673 22.6706 290.673 22.7639 290.673 23.0438V29.4812C290.673 29.7611 290.673 29.7611 290.954 29.7611L299.09 29.6678V49.4465C299.09 49.8196 299.09 49.8196 299.465 49.8196H306.105C306.385 49.8196 306.479 49.8196 306.479 49.4465V29.6678L314.428 29.7611C314.522 29.7611 314.615 29.7611 314.615 29.4812ZM286.465 48.8867V23.1371C286.465 22.7639 286.465 22.6706 286.091 22.6706H280.012C279.731 22.6706 279.731 22.6706 279.731 23.1371V35.9186C279.731 35.9186 269.724 26.7757 264.954 23.0438C263.738 22.0176 263.645 23.1371 263.645 23.5103V49.4465C263.645 49.6331 263.738 49.8196 264.019 49.8196H270.098C270.472 49.8196 270.472 49.8196 270.472 49.4465V37.6912C270.472 37.6912 278.702 44.5951 284.781 49.1666C286.278 50.566 286.465 49.6331 286.465 48.8867Z" fill="white"/>
</svg>
