<svg width="225" height="99" viewBox="0 0 225 99" fill="none" xmlns="http://www.w3.org/2000/svg">
<mask id="mask0_755_13218" style="mask-type:luminance" maskUnits="userSpaceOnUse" x="0" y="0" width="223" height="99">
<path d="M223 0H0V99H223V0Z" fill="white"/>
</mask>
<g mask="url(#mask0_755_13218)">
<path d="M134.874 68.7831H165.274V81.2487H120.202V17.2373H134.874V68.7831Z" fill="white"/>
<path d="M197.534 56.8453H209.482V68.0464C207.288 68.8894 202.987 69.7325 198.905 69.7325C185.694 69.7325 181.301 62.9713 181.301 49.2412C181.301 36.1376 185.483 28.4267 198.682 28.4267C206.039 28.4267 210.213 30.7535 213.675 35.1906L222.802 26.7378C217.227 18.7262 207.5 16.2983 198.365 16.2983C177.83 16.2899 167.033 27.5809 167.033 49.1316C167.033 70.5755 176.79 82.2009 198.256 82.2009C208.113 82.2009 217.748 79.6718 222.992 75.9653V44.908H197.534V56.8453Z" fill="white"/>
<path d="M14.3809 14.4971C33.558 -4.83357 64.651 -4.83292 83.8291 14.499C103.007 33.831 103.008 65.174 83.8311 84.5049C64.654 103.835 33.561 103.835 14.3828 84.5029C-4.79545 65.1709 -4.79628 33.828 14.3809 14.4971ZM49.3223 8.86621C26.9313 8.86633 8.78027 27.0538 8.78027 49.5176C8.78046 71.9814 26.9369 90.1709 49.3252 90.1709C71.7135 90.1709 89.867 71.973 89.8672 49.5205C89.8672 48.7898 89.8477 48.0669 89.8086 47.3447H61.1758V51.0742H86.1484L86.1455 51.1777C85.2897 70.8175 69.1211 86.4726 49.3281 86.4727C28.9749 86.4727 12.4738 69.9244 12.4736 49.5176C12.4736 29.1107 28.9776 12.5645 49.3281 12.5645C49.9153 12.5645 50.5015 12.5773 51.0869 12.6035V8.90332C50.5015 8.87897 49.9132 8.86621 49.3223 8.86621ZM47.3721 70.3594H51.0908V70.334H61.127L61.1182 66.6084H51.083V28.5986H47.3721V70.3594ZM35.2734 28.5312C34.175 28.3132 33.0367 28.4282 32.0029 28.8613C30.969 29.2945 30.0853 30.027 29.4639 30.9658C28.8423 31.9047 28.5108 33.0081 28.5107 34.1367C28.5126 34.8887 28.6611 35.633 28.9482 36.3271C29.2354 37.0212 29.6558 37.6521 30.1846 38.1826C30.7135 38.7131 31.3413 39.1329 32.0312 39.4189C32.7211 39.705 33.4601 39.8515 34.2061 39.8496C35.3258 39.8441 36.4194 39.5041 37.3477 38.873C38.2758 38.242 38.9973 37.3478 39.4219 36.3037C39.8466 35.2593 39.9552 34.1113 39.7334 33.0049C39.5116 31.8987 38.9694 30.8831 38.1758 30.0869C37.3821 29.291 36.3719 28.7493 35.2734 28.5312Z" fill="white"/>
</g>
</svg>
