<svg width="197" height="162" viewBox="0 0 197 162" fill="none" xmlns="http://www.w3.org/2000/svg">
<path d="M97.4635 114.053L39.4004 57.0263L97.4635 0L155.527 57.0263L97.4635 114.053Z" fill="white"/>
<path d="M53.3413 161.045H59.2681V130.642L53.3413 136.162V161.045ZM40.2492 161.045H46.176V139.535H40.2492V161.045ZM40.2492 136.118H46.176V130.774H40.2492V136.118ZM26.936 138.878C23.7957 138.747 20.7881 140.368 19.1958 143.04C18.3554 140.368 15.7458 138.615 12.9151 138.878C9.81904 138.878 6.9441 140.499 5.35182 143.128H5.30759C5.30759 142.032 5.30759 139.448 5.30759 139.448H0V161.045H5.74989V150.093C5.74989 146.107 7.96138 143.259 10.6152 143.259C12.9594 143.259 14.3747 145.274 14.3747 147.947V161.002H19.9035V150.268C19.9035 145.931 21.938 143.215 24.6803 143.215C27.1129 143.215 28.5283 145.23 28.5283 148.954V160.958H34.3224V148.341C34.3666 143.128 32.4205 138.878 26.936 138.878ZM136.007 138.878C128.886 138.878 124.021 143.303 124.021 150.225C124.109 156.664 129.505 161.834 136.007 161.746C142.376 161.659 147.507 156.577 147.639 150.268C147.905 144.223 143.172 139.141 137.068 138.878C136.715 138.878 136.361 138.878 136.007 138.878ZM135.786 157.584C132.292 157.584 130.169 154.474 130.169 150.268C130.169 145.668 132.38 142.865 135.83 142.865C139.324 142.865 141.58 145.625 141.58 150.049C141.58 154.518 139.413 157.584 135.786 157.584ZM164.093 138.878C161.174 138.747 158.387 140.236 156.928 142.733H156.839V139.404L151.089 139.36V161.002H156.751V151.276C156.662 149.567 156.972 147.859 157.68 146.282C158.608 144.529 160.378 143.434 162.368 143.347C166.172 143.347 166.526 146.545 166.526 150.663V161.002H172.187V148.472C172.187 142.733 169.976 138.878 164.093 138.878ZM119.332 156.927C116.546 156.927 115.75 155.306 115.75 152.065V143.829H121.367V139.448H115.75V130.73L110.309 135.812V139.404H105.975V143.785H110.221V153.16C110.221 158.855 112.521 161.396 117.607 161.396C118.978 161.44 120.394 161.264 121.721 160.87L121.588 156.577C120.836 156.796 120.084 156.927 119.332 156.927ZM197 150.531C197 142.777 193.55 138.878 187.137 138.878C181.121 138.703 176.079 143.39 175.902 149.348C175.902 149.611 175.902 149.918 175.902 150.181C175.902 157.409 180.812 161.702 188.11 161.702C190.631 161.746 193.152 161.264 195.496 160.301L195.408 155.701C193.417 156.884 191.117 157.497 188.817 157.453C184.837 157.453 181.918 155 181.829 151.714H196.956C196.956 151.32 197 150.926 197 150.531ZM181.696 148.166C182.05 144.354 184.394 142.865 186.916 142.865C189.746 142.865 191.692 144.31 191.692 148.166H181.696ZM84.656 150.531C84.656 142.777 81.2061 138.878 74.7928 138.878C68.7775 138.703 63.7353 143.39 63.5584 149.348C63.5584 149.611 63.5584 149.918 63.5584 150.181C63.5584 157.409 68.4679 161.702 75.7658 161.702C78.2869 161.746 80.808 161.264 83.1522 160.301L83.0638 155.701C81.0734 156.884 78.7735 157.497 76.4735 157.453C72.4928 157.453 69.5736 155 69.4852 151.714H84.6118C84.656 151.32 84.656 150.926 84.656 150.531ZM69.3525 148.166C69.7063 144.354 72.0505 142.865 74.5716 142.865C77.4023 142.865 79.3484 144.31 79.3484 148.166H69.3525ZM97.7481 148.297C94.6078 147.289 93.5462 146.632 93.5462 145.187C93.5462 143.741 95.1385 142.777 97.0404 142.777C98.8096 142.777 100.579 143.171 102.171 143.916V139.579C100.446 139.01 98.5885 138.747 96.775 138.791C91.4674 138.791 87.8406 141.463 87.8406 145.537C87.8406 148.691 89.8309 150.181 94.0328 151.583C97.5712 152.809 98.3673 153.51 98.3673 155.044C98.3673 156.577 96.5539 157.497 94.6078 157.497C92.4847 157.453 90.4059 157.015 88.4598 156.095V160.607C90.5386 161.264 92.7059 161.615 94.8731 161.571C100.225 161.571 104.117 158.986 104.117 154.562C104.206 150.926 101.685 149.567 97.7481 148.297Z" fill="white"/>
</svg>
