<svg width="383" height="107" viewBox="0 0 383 107" fill="none" xmlns="http://www.w3.org/2000/svg">
<g clip-path="url(#clip0_755_13381)">
<path d="M384.293 -1.31836H-1.26074V108.26H384.293V-1.31836ZM44.9199 27.6377C44.079 27.6377 43.4018 27.3877 42.9941 26.9688C42.5825 26.5455 42.4568 25.9598 42.7041 25.3232L45.4541 18.2705C45.7004 17.6404 46.2662 17.0781 46.9727 16.6748C47.6804 16.2708 48.5388 16.0205 49.3799 16.0205H92.5996C93.4406 16.0206 94.1181 16.2711 94.5254 16.6904C94.9366 17.1139 95.0617 17.6995 94.8135 18.335L92.0635 25.3877C91.8172 26.0188 91.2512 26.5804 90.5449 26.9834C89.8374 27.3872 88.9797 27.6377 88.1377 27.6377H44.9199ZM142.144 72.3203C137.566 72.3203 133.856 59.9626 133.856 44.7197C133.856 29.477 137.566 17.1192 142.144 17.1191C146.721 17.1191 150.431 29.4769 150.431 44.7197C150.431 59.9626 146.721 72.3203 142.144 72.3203ZM295.328 72.3203C291.106 72.3203 287.622 61.8105 287.105 48.2207C287.739 48.7434 288.593 49.3644 289.356 49.6377C289.356 49.6377 289.995 49.9956 291.151 50.2354C291.579 61.4213 293.287 69.7773 295.328 69.7773C297.691 69.7765 299.608 58.5567 299.608 44.7197C299.608 30.8809 297.691 19.664 295.328 19.6631C293.32 19.6631 291.667 27.6587 291.204 38.5713L287.235 38.3105C288.107 26.1732 291.416 17.1191 295.328 17.1191C299.903 17.1196 303.615 29.4753 303.615 44.7197C303.615 59.9623 299.903 72.3198 295.328 72.3203ZM165.511 69.5869H166.902V19.6699L165.593 19.6816V17.2422H171.763C171.811 17.2376 177.983 16.6809 180.734 27.3486C180.734 27.3486 183.826 39.7926 174.925 51.291C174.925 51.291 180.365 57.1862 180.365 69.5869H182.378V72.0674H176.807C176.806 72.0617 176.34 59.045 171.081 53.7744V72.0674H165.511V69.5869ZM195.376 69.8975H197.698L204.815 17.2422H206.672L209.381 39.5947C215.079 38.7995 221.26 38.1427 227.945 37.6826C228.976 39.7504 229.673 41.1449 230.034 41.8604C223.811 42.2832 217.022 42.915 209.896 43.8418L213.018 69.5869H215.493V72.0674H208.994L204.507 38.7373L200.019 72.0674H195.376V69.8975ZM318.776 69.5869H320.957V20.1748H318.973V17.2422H323.236L330.398 44.6533L337.653 17.2422H342.345L342.338 19.8799H339.863V69.292H342.142V72.0674H334.025V69.292H335.714V36.0449L330.157 54.9023H328.777L323.334 35.1426V69.4863H325.009V72.0674H318.776V69.5869ZM241.565 66.4844C241.565 66.4844 237.309 75.7116 227.87 70.2061L228.723 68.2695C228.763 68.2885 233.991 70.7432 236.149 69.0439C236.149 69.0439 242.417 64.1618 235.376 48.7363L228.877 35.0166C228.877 35.0166 225.627 27.1872 229.109 21.5283C229.149 21.4681 234.01 14.1849 240.561 18.8945V24.707H238.935L238.007 20.1348C238.004 20.1197 237.84 19.3596 236.691 19.4355C236.671 19.4366 233.67 19.6003 232.899 22.458C232.899 22.458 230.58 26.9559 233.055 32.5361L239.708 46.4102C239.708 46.4102 245.51 57.9598 241.565 66.4844ZM267.365 72.0664C267.365 72.0664 263.562 72.4559 261.181 65.9658C261.181 65.9658 257.738 56.3287 258.221 44.4961C258.221 44.4961 257.178 10.4269 272.317 18.6387V24.5596H270.6L269.842 20.2627C269.831 20.2459 268.876 18.7429 267.746 20.3594C267.714 20.3958 262.603 26.1472 262.697 44.4961C262.694 44.5466 261.769 57.101 266.321 67.8662C266.321 67.8662 266.796 69.4922 269.271 69.4922H272.033V72.0664H267.365ZM142.144 69.7773C144.509 69.7773 146.425 58.5592 146.425 44.7197C146.425 30.8803 144.509 19.6631 142.144 19.6631C139.778 19.6632 137.862 30.8804 137.862 44.7197C137.862 58.5592 139.778 69.7773 142.144 69.7773ZM171.394 49.876C174.868 49.1072 177.58 42.6665 177.58 34.8379C177.58 27.0111 174.872 20.5753 171.397 19.8008C171.397 35.7018 171.396 45.7285 171.394 49.876ZM57.8867 70.3789C56.3245 70.3789 55.2012 69.219 55.4062 67.7773L60.3857 32.6963C60.589 31.2653 62.0196 30.1201 63.5752 30.1201H72.4336C73.9955 30.1203 75.1169 31.2775 74.9121 32.7207L69.9336 67.8027C69.7301 69.2314 68.2985 70.3788 66.7451 70.3789H57.8867ZM237.367 37.1826L237.822 37.165C243.628 36.9528 249.755 36.8841 256.23 36.9863L255.735 41.084C251.494 41.0447 245.955 41.0862 239.479 41.3496L239.293 41.3574L237.367 37.1826ZM294.651 47.5049C294.651 47.5049 291.457 49.425 287.224 45.3838C287.208 45.3761 280.497 42.0221 264.941 41.3428L264.767 41.333L265.279 37.2373C272.979 37.538 281.137 38.0739 289.77 38.8936C289.809 38.8937 295.017 38.9177 297.008 42.5439C297.008 42.5439 297.846 46.1033 294.651 47.5049ZM85.2773 94.6475C75.7505 94.9324 65.5513 91.2866 54.6836 83.7617L53.6299 83.0215C43.095 75.5263 35.8542 67.482 31.9424 58.874C29.262 52.9683 29.0897 48.1155 31.6045 44.416C34.1075 40.7318 38.541 38.841 44.7773 38.6543C48.4992 38.5429 52.3657 39.0798 56.375 40.2588L56.6807 40.3486L56.6377 40.6641L56.1055 44.5303L56.0322 45.0674L55.5586 44.8037C52.3178 42.9961 49.3326 42.0901 46.5977 42.0547L46.0537 42.0586C44.5797 42.1038 43.4441 42.3754 42.6211 42.8447C41.8092 43.3078 41.2858 43.9724 41.0342 44.8516L41.0332 44.8545L40.9424 45.1982C40.536 46.9396 40.8562 49.0205 41.9668 51.4658C43.231 54.2466 45.415 57.8815 48.5312 62.3779C51.6442 66.8687 55.0625 71.1286 58.7822 75.1572C64.6898 81.556 69.5226 85.8454 73.2949 88.0537L73.2959 88.0527C77.0616 90.2395 80.5878 91.2656 83.8828 91.166C85.6382 91.1134 86.8775 90.684 87.6689 89.9404C88.4526 89.2041 88.858 88.1022 88.8242 86.5654C88.7885 84.9898 88.267 83.0741 87.2354 80.8018C84.8731 75.6012 80.5256 69.2567 74.1729 61.7646L74.0654 61.6387L74.0879 61.4756L75.5703 50.7021L75.6533 50.0947L76.1523 50.4512C86.6014 57.9212 93.7945 65.9542 97.7041 74.5596C100.339 80.3607 100.561 85.1655 98.2061 88.8857L98.2041 88.8887L97.9736 89.2295C95.6172 92.58 91.5391 94.3504 85.8516 94.625L85.2773 94.6475ZM180.592 45.667C186.478 43.9255 193.376 42.2569 201.375 40.8516C201.051 43.1512 200.851 44.5901 200.772 45.168C193.396 46.3591 185.776 47.8842 178.145 49.8301C178.592 49.0694 179.408 47.6836 180.592 45.667ZM152.358 58.2686C152.358 58.2686 156.098 55.2494 164.575 51.4834L164.577 53.7598C161.089 54.9018 157.628 56.1438 154.215 57.4941L152.358 58.2686Z" fill="white"/>
</g>
<defs>
<clipPath id="clip0_755_13381">
<rect width="383" height="107" fill="white"/>
</clipPath>
</defs>
</svg>
