<svg width="271" height="86" viewBox="0 0 271 86" fill="none" xmlns="http://www.w3.org/2000/svg">
<path d="M71.851 8.0625V10.2125H73.9905V8.0625H71.851ZM71.851 12.3625V14.5125H73.9905V12.3625H71.851ZM65.4326 14.5125V16.6625H67.5721V14.5125H65.4326Z" fill="white"/>
<path d="M37.4415 16.125C20.4533 16.125 6.68652 29.9595 6.68652 47.0312C6.68652 64.103 20.4533 77.9375 37.4415 77.9375C54.4296 77.9375 68.1964 64.103 68.1964 47.0312C68.1964 29.9595 54.4296 16.125 37.4415 16.125ZM37.4415 25.9792C49.0004 25.9792 58.3905 35.4154 58.3905 47.0312C58.3905 58.6471 49.0004 68.0833 37.4415 68.0833C25.8825 68.0833 16.5816 58.6471 16.5816 47.0312C16.5816 35.4154 25.8825 25.9792 37.4415 25.9792Z" fill="white"/>
<path d="M86.0432 63.3854C81.6217 63.3854 77.9132 62.2818 74.918 60.0744L77.7849 55.3444C80.1811 57.0358 82.8911 57.8815 85.9149 57.8814C87.3982 57.8815 88.5678 57.5948 89.4236 57.0215C90.2794 56.4195 90.7073 55.5881 90.7073 54.5274C90.7073 54.2408 90.6787 53.9828 90.6217 53.7534C90.5646 53.5241 90.4648 53.3091 90.3222 53.1085C90.1796 52.8791 90.0369 52.6928 89.8943 52.5494C89.7516 52.3774 89.5234 52.2055 89.2097 52.0335C88.9244 51.8615 88.6676 51.7181 88.4394 51.6034C88.2398 51.4888 87.9117 51.3454 87.4553 51.1734C86.9989 51.0014 86.6138 50.8725 86.3 50.7864C86.0147 50.6718 85.5725 50.5141 84.9735 50.3134C84.3744 50.1128 83.8752 49.9408 83.4759 49.7974C82.4204 49.4248 81.5218 49.0378 80.7801 48.6364C80.0384 48.2065 79.2825 47.6618 78.5123 47.0024C77.7421 46.3145 77.1573 45.4545 76.7579 44.4224C76.3585 43.3618 76.1589 42.1578 76.1589 40.8104C76.1589 38.0871 77.1002 35.9801 78.983 34.4894C80.8657 32.9701 83.3475 32.2105 86.4283 32.2104C90.1367 32.2105 93.1463 32.8985 95.4569 34.2744L93.2747 39.2195C91.1066 38.1875 88.8959 37.6715 86.6423 37.6714C83.6755 37.6715 82.1922 38.6461 82.1922 40.5954C82.1922 41.0541 82.2778 41.4555 82.4489 41.7994C82.6201 42.1435 82.8055 42.4301 83.0052 42.6595C83.2049 42.8888 83.5614 43.1181 84.0749 43.3474C84.6169 43.5768 85.0591 43.7488 85.4014 43.8635C85.7722 43.9781 86.3713 44.1645 87.1985 44.4224C87.5694 44.5371 87.8546 44.6231 88.0543 44.6804C89.0527 44.9958 89.9085 45.2968 90.6217 45.5834C91.3348 45.8701 92.1193 46.2858 92.9751 46.8305C93.8309 47.3465 94.5298 47.9341 95.0718 48.5934C95.6138 49.2528 96.0702 50.0841 96.4411 51.0875C96.8119 52.0908 96.9973 53.2088 96.9973 54.4415C96.9973 57.1361 96.0417 59.3005 94.1304 60.9345C92.2477 62.5684 89.552 63.3854 86.0432 63.3854Z" fill="white"/>
<path d="M107.558 63.9876L99.4707 40.7246H106.189L110.339 56.9786L113.848 40.7246H120.138L113.506 63.2566C111.965 68.4739 108.756 71.0826 103.878 71.0826C102.737 71.0826 101.525 70.9536 100.241 70.6956L100.926 66.1376C102.067 66.2523 102.794 66.3096 103.108 66.3096C104.277 66.3096 105.19 66.1233 105.846 65.7506C106.502 65.4066 107.073 64.8189 107.558 63.9876Z" fill="white"/>
<path d="M141.354 43.6485C143.493 41.3552 145.775 40.2085 148.2 40.2085C150.454 40.2085 152.037 40.9825 152.95 42.5305C153.891 44.0785 154.362 46.0135 154.362 48.3355V62.9555H147.858V48.2495C147.858 46.4722 147.173 45.5835 145.804 45.5835C144.72 45.5835 143.507 46.1855 142.167 47.3895V62.9555H135.663V48.2495C135.663 46.4722 134.978 45.5835 133.609 45.5835C132.354 45.5835 131.141 46.2142 129.972 47.4755V62.9555H123.468V40.7245H127.49L128.774 44.1215C131.027 41.5129 133.438 40.2085 136.005 40.2085C138.572 40.2085 140.355 41.3552 141.354 43.6485Z" fill="white"/>
<path d="M170.608 48.7225V48.1635C170.608 47.1602 170.38 46.4292 169.924 45.9705C169.496 45.5118 168.74 45.2825 167.656 45.2825C165.973 45.2825 163.905 45.8558 161.451 47.0025L159.226 42.7025C162.079 41.0399 165.074 40.2085 168.212 40.2085C171.15 40.2085 173.361 40.9395 174.845 42.4015C176.356 43.8349 177.112 45.8845 177.112 48.5505V62.9555H173.09C172.349 61.3788 171.963 60.5905 171.935 60.5905C169.91 62.4538 167.742 63.3855 165.431 63.3855C163.463 63.3855 161.808 62.8122 160.467 61.6655C159.155 60.4902 158.499 58.8992 158.499 56.8925C158.499 54.5418 159.255 52.8218 160.767 51.7325C162.535 50.4138 165.816 49.4105 170.608 48.7225ZM170.608 57.4515V52.7645C167.784 53.3378 166.073 53.9685 165.474 54.6565C165.074 55.0865 164.875 55.6742 164.875 56.4195C164.875 57.9962 165.631 58.7845 167.142 58.7845C168.398 58.7845 169.553 58.3402 170.608 57.4515Z" fill="white"/>
<path d="M182.303 62.9555V40.7245H186.325L187.609 44.1215C189.862 41.5129 192.33 40.2085 195.011 40.2085C199.233 40.2085 201.344 42.9175 201.344 48.3355V62.9555H194.84V48.2495C194.84 46.4722 194.098 45.5835 192.615 45.5835C191.246 45.5835 189.976 46.2142 188.807 47.4755V62.9555H182.303Z" fill="white"/>
<path d="M208.077 45.1963H204.825V40.7243H208.163L209.275 34.4033H214.581V40.7243H219.288V45.1963H214.581V55.9033C214.581 56.878 214.738 57.5517 215.052 57.9243C215.366 58.297 216.008 58.4833 216.977 58.4833C217.519 58.4833 218.275 58.34 219.245 58.0533L220.015 62.5683C218.389 63.113 216.735 63.3853 215.052 63.3853C210.402 63.3853 208.077 61.006 208.077 56.2473V45.1963Z" fill="white"/>
<path d="M229.402 53.7535C229.544 55.2728 229.958 56.3908 230.642 57.1075C231.356 57.8242 232.411 58.1825 233.809 58.1825C234.579 58.1825 235.349 58.0678 236.119 57.8385C236.918 57.6092 237.503 57.3942 237.874 57.1935C238.273 56.9928 238.858 56.6775 239.628 56.2475L242.196 60.3755C241.311 61.0348 240.555 61.5508 239.928 61.9235C239.3 62.2675 238.402 62.5972 237.232 62.9125C236.062 63.2278 234.764 63.3855 233.338 63.3855C230.086 63.3855 227.49 62.3822 225.551 60.3755C223.639 58.3402 222.684 55.5738 222.684 52.0765C222.684 48.5792 223.596 45.7268 225.422 43.5195C227.248 41.3122 229.758 40.2085 232.953 40.2085C236.234 40.2085 238.687 41.3122 240.313 43.5195C241.939 45.7268 242.752 48.5648 242.752 52.0335V53.7535H229.402ZM229.402 49.9265H236.119C236.119 46.5725 235.05 44.8955 232.91 44.8955C231.883 44.8955 231.085 45.2968 230.514 46.0995C229.944 46.8735 229.573 48.1492 229.402 49.9265Z" fill="white"/>
<path d="M256.655 63.3855C253.117 63.3855 250.45 62.3392 248.653 60.2465C246.884 58.1252 246 55.3588 246 51.9475C246 48.5362 246.927 45.7268 248.781 43.5195C250.636 41.3122 253.26 40.2085 256.655 40.2085C259.65 40.2085 262.089 41.0399 263.972 42.7025L260.934 47.0455C260.163 46.4722 259.493 46.0852 258.922 45.8845C258.352 45.6552 257.61 45.5405 256.697 45.5405C254.044 45.5405 252.718 47.6475 252.718 51.8615C252.718 55.9895 254.073 58.0535 256.783 58.0535C258.238 58.0535 259.707 57.4658 261.19 56.2905L264.314 60.3325C262.289 62.3678 259.735 63.3855 256.655 63.3855Z" fill="white"/>
<path d="M46.1772 31.7124C40.5929 38.7262 39.1855 41.806 36.9608 47.4768C34.4366 42.3463 31.4241 38.8055 26.2088 36.4603C25.2209 36.2069 24.735 36.0599 24.0693 36.9978C23.4037 37.9357 23.8073 38.7796 24.6042 39.7749C26.6925 42.3831 29.0393 44.7929 30.6661 47.7478C32.5732 51.212 34.9476 56.9216 35.7473 58.4082C36.3833 59.5906 37.9216 60.1103 38.5108 60.1103C41.667 59.735 41.6681 58.1225 42.2697 55.3274C43.2453 50.7439 44.5089 46.0052 50.4562 40.3124V31.7124H46.1772Z" fill="white"/>
<path d="M69.7111 10.2124V12.3624H71.8506V10.2124H69.7111ZM69.7111 12.3624H65.4322V14.5124H69.7111V12.3624ZM65.4322 14.5124H63.2927V18.8124H65.4322V14.5124ZM65.4322 18.8124V20.9624H67.5717V18.8124H65.4322ZM67.5717 18.8124H69.7111V16.6624H67.5717V18.8124ZM65.4322 20.9624H63.2927V23.1124H61.1532V20.9624H56.8743V23.1124H54.7348V25.2624H56.8743V27.4124H54.7348V25.2624H52.5954V27.4124H50.4559V29.5624H48.3164V38.1624H52.5954V36.0124H54.7348V33.8624H56.8743V31.7124H54.7348V29.5624H56.8743V31.7124H59.0138V29.5624H61.1532V27.4124H63.2927V25.2624H65.4322V20.9624ZM61.1532 20.9624H63.2927V18.8124H61.1532V20.9624ZM61.1532 18.8124V16.6624H59.0138V18.8124H61.1532Z" fill="white"/>
</svg>
