<svg width="441" height="127" viewBox="0 0 441 127" fill="none" xmlns="http://www.w3.org/2000/svg">
<path d="M427.264 41.6013C427.877 41.9533 428.358 42.4324 428.706 43.0388C429.054 43.6375 429.236 44.3222 429.232 45.019C429.232 45.7356 429.058 46.3927 428.706 46.995C428.358 47.593 427.873 48.0678 427.264 48.4155C426.652 48.7631 425.976 48.937 425.235 48.937C424.514 48.937 423.848 48.7631 423.243 48.4155C422.65 48.0809 422.153 47.5907 421.806 46.995C421.454 46.397 421.28 45.7399 421.28 45.019C421.28 44.3024 421.454 43.6411 421.806 43.0388C422.154 42.4365 422.634 41.9575 423.243 41.6013C423.848 41.2494 424.515 41.0713 425.235 41.0713C425.977 41.0713 426.652 41.2452 427.264 41.6013ZM426.854 47.7749C427.321 47.5123 427.707 47.1216 427.968 46.6469C428.237 46.1636 428.37 45.6251 428.37 45.0186C428.37 44.4163 428.238 43.8693 427.968 43.3818C427.709 42.9008 427.323 42.504 426.854 42.2368C426.378 41.9613 425.835 41.8211 425.231 41.8211C424.642 41.8211 424.116 41.9609 423.644 42.2368C423.178 42.5053 422.795 42.9019 422.538 43.3818C422.269 43.8693 422.136 44.4121 422.136 45.0186C422.136 45.6251 422.269 46.1636 422.538 46.6469C422.798 47.1205 423.181 47.511 423.644 47.7749C424.116 48.0461 424.642 48.1821 425.231 48.1821C425.839 48.1821 426.378 48.0465 426.854 47.7749ZM426.66 44.8703C426.469 45.0696 426.225 45.2137 425.922 45.3072L427.082 47.0753H426.03L425.073 45.447H424.696V47.0753H423.802V42.8352H425.023C426.299 42.8352 426.937 43.2636 426.937 44.1243C426.941 44.4253 426.85 44.6709 426.66 44.8703ZM424.7 44.7734H425.172C425.74 44.7734 426.021 44.557 426.021 44.129C426.021 43.9127 425.951 43.7601 425.81 43.6627C425.669 43.5654 425.446 43.5187 425.143 43.5187H424.705V44.7738L424.7 44.7734ZM145.868 54.3859C145.611 54.6405 145.301 54.7633 144.936 54.7633H133.763C133.398 54.7633 133.216 54.9414 133.216 55.3019V81.2981C133.216 84.0332 133.821 86.0088 135.022 87.2303C136.227 88.4557 138.145 89.0622 140.774 89.0622H144.063C144.427 89.0622 144.738 89.1893 144.995 89.4397C145.252 89.6941 145.38 89.9994 145.38 90.3556V98.4457C145.38 99.2388 144.941 99.7051 144.067 99.8492L138.369 99.955C132.599 99.955 128.288 98.9838 125.443 97.0418C122.598 95.0998 121.132 91.4322 121.061 86.0385V55.2972C121.061 54.9367 120.879 54.7587 120.514 54.7587H114.269C113.904 54.7587 113.594 54.6358 113.337 54.3812C113.08 54.131 112.951 53.8257 112.951 53.4653V45.9137C112.951 45.5533 113.08 45.248 113.337 44.9978C113.594 44.7474 113.9 44.6203 114.269 44.6203H120.514C120.879 44.6203 121.061 44.4423 121.061 44.0818V31.4634C121.061 31.103 121.189 30.7977 121.446 30.5475C121.703 30.2971 122.01 30.1701 122.378 30.1701H131.908C132.273 30.1701 132.583 30.2971 132.84 30.5475C133.097 30.8019 133.225 31.1073 133.225 31.4634V44.0823C133.225 44.4427 133.408 44.6208 133.772 44.6208H144.946C145.31 44.6208 145.621 44.7479 145.878 44.9982C146.135 45.2527 146.263 45.558 146.263 45.9141V53.4657C146.251 53.8304 146.122 54.1356 145.87 54.3859M196.12 72.0248L196.012 75.3702C196.012 76.2352 195.573 76.6636 194.699 76.6636H160.407C160.042 76.6636 159.86 76.8459 159.86 77.2021C160.08 79.5768 160.407 81.1919 160.846 82.0573C162.598 87.2346 166.872 89.8592 173.664 89.9314C178.63 89.9314 182.573 87.9172 185.497 83.8892C185.786 83.4565 186.155 83.2406 186.594 83.2406C186.884 83.2406 187.141 83.3464 187.361 83.5627L194.153 89.0622C194.811 89.5667 194.919 90.1393 194.48 90.7879C192.215 93.951 189.204 96.3975 185.443 98.1235C181.683 99.8496 177.5 100.714 172.898 100.714C167.199 100.714 162.362 99.4547 158.382 96.9402C154.402 94.4257 151.499 90.8979 149.672 86.3697C147.991 82.4857 147.154 77.092 147.154 70.1891C147.154 66.0212 147.593 62.6375 148.467 60.0508C149.929 55.0175 152.683 51.0447 156.737 48.1315C160.792 45.2184 165.667 43.7643 171.362 43.7643C185.75 43.7643 193.855 51.1718 195.681 65.9872C195.975 67.7808 196.12 69.7946 196.12 72.0248ZM164.623 56.5442C162.834 57.8754 161.571 59.7243 160.842 62.099C160.403 63.3244 160.109 64.9017 159.964 66.8436C159.815 67.2041 159.964 67.3821 160.402 67.3821H182.643C183.007 67.3821 183.19 67.2041 183.19 66.8436C183.041 65.0457 182.825 63.6805 182.531 62.7433C181.873 60.1528 180.576 58.1428 178.642 56.7011C176.708 55.2636 174.277 54.5427 171.357 54.5427C168.657 54.547 166.412 55.2126 164.623 56.5442ZM241.959 48.9374C245.5 52.389 247.272 57.0997 247.272 63.0698V98.4495C247.272 98.8099 247.144 99.1153 246.887 99.3655C246.63 99.6201 246.319 99.7429 245.955 99.7429H235.874C235.51 99.7429 235.199 99.6201 234.942 99.3655C234.685 99.1153 234.557 98.8099 234.557 98.4495V65.6561C234.557 62.3489 233.608 59.6691 231.707 57.6208C229.806 55.5726 227.288 54.5466 224.149 54.5466C221.01 54.5466 218.471 55.5556 216.537 57.5656C214.603 59.5798 213.634 62.2426 213.634 65.5498V98.4491C213.634 98.8095 213.505 99.1148 213.248 99.365C212.991 99.6196 212.681 99.7425 212.316 99.7425H202.236C201.871 99.7425 201.561 99.6196 201.304 99.365C201.047 99.1148 200.918 98.8095 200.918 98.4491V45.918C200.918 45.5575 201.047 45.2522 201.304 45.002C201.561 44.7517 201.867 44.6246 202.236 44.6246H212.316C212.681 44.6246 212.991 44.7517 213.248 45.002C213.505 45.2565 213.634 45.5618 213.634 45.918V49.3697C213.634 49.586 213.704 49.7301 213.853 49.8023C213.998 49.8746 214.11 49.8024 214.18 49.586C217.175 45.7021 221.702 43.7601 227.765 43.7601C233.683 43.7601 238.413 45.4857 241.958 48.9374M288.932 46.1347C292.436 47.7163 295.14 49.8916 297.037 52.6603C298.934 55.4289 299.887 58.5755 299.887 62.099V98.4499C299.887 98.8104 299.758 99.1157 299.501 99.3659C299.245 99.6205 298.934 99.7433 298.569 99.7433H288.489C288.124 99.7433 287.814 99.6205 287.557 99.3659C287.3 99.1157 287.171 98.8104 287.171 98.4499V94.9982C287.171 94.7819 287.097 94.6591 286.952 94.6208C286.803 94.5868 286.658 94.6378 286.513 94.7819C282.935 98.6659 277.749 100.608 270.957 100.608C265.478 100.608 260.968 99.2426 257.427 96.5075C253.881 93.7767 252.113 89.7104 252.113 84.3172C252.113 78.7076 254.101 74.3399 258.085 71.2108C262.065 68.0817 267.673 66.5168 274.9 66.5168H286.621C286.985 66.5168 287.167 66.3387 287.167 65.9783V63.3877C287.167 60.585 286.327 58.4097 284.649 56.8622C282.968 55.3146 280.45 54.5427 277.091 54.5427C274.316 54.5427 272.067 55.026 270.353 55.9972C268.634 56.9683 267.557 58.3166 267.123 60.0422C266.903 60.9072 266.389 61.2676 265.59 61.1193L254.962 59.8259C254.598 59.7537 254.287 59.6308 254.03 59.4485C253.773 59.2705 253.682 59.0373 253.757 58.7489C254.341 54.3647 256.731 50.7646 260.935 47.962C265.134 45.1593 270.411 43.7558 276.764 43.7558C281.373 43.7601 285.428 44.5532 288.932 46.1347ZM282.931 87.8789C285.486 86.0092 286.766 83.6346 286.766 80.7596V75.6886C286.766 75.3281 286.584 75.15 286.22 75.15H277.017C273.144 75.15 270.096 75.8709 267.868 77.3084C265.64 78.7458 264.526 80.7979 264.526 83.4565C264.526 85.7589 265.383 87.5398 267.102 88.7949C268.816 90.0543 271.028 90.6816 273.728 90.6816C277.307 90.6859 280.376 89.7529 282.931 87.8789ZM353.901 72.0248C353.901 77.1299 353.205 81.6246 351.818 85.5085C350.211 90.2532 347.618 93.959 344.04 96.6176C340.462 99.2805 336.08 100.607 330.895 100.607C325.78 100.607 321.585 98.7037 318.296 94.8916C318.147 94.6752 318.002 94.6034 317.857 94.6752C317.708 94.7475 317.638 94.8916 317.638 95.1079V98.4533C317.638 98.8138 317.509 99.1191 317.253 99.3693C316.996 99.6239 316.685 99.7467 316.32 99.7467H306.24C305.875 99.7467 305.565 99.6239 305.308 99.3693C305.051 99.1191 304.923 98.8138 304.923 98.4533V25.5313C304.923 25.1708 305.051 24.8655 305.308 24.6153C305.565 24.365 305.871 24.2379 306.24 24.2379H316.32C316.685 24.2379 316.996 24.365 317.253 24.6153C317.509 24.8698 317.638 25.1751 317.638 25.5313V48.937C317.638 49.1533 317.708 49.2974 317.857 49.3697C318.002 49.4419 318.147 49.4079 318.296 49.2638C321.436 45.5962 325.598 43.7643 330.787 43.7643C336.192 43.7643 340.665 45.0955 344.206 47.7541C347.747 50.4169 350.36 54.1186 352.038 58.8632C353.28 62.8912 353.901 67.2759 353.901 72.0248ZM340.863 72.2369C340.863 66.6273 339.766 62.2426 337.575 59.0753C335.603 56.0563 332.68 54.547 328.812 54.547C325.233 54.547 322.492 56.1285 320.594 59.2916C318.768 62.2426 317.857 66.5168 317.857 72.1268C317.857 77.6645 318.698 81.8367 320.375 84.6393C322.272 88.091 325.121 89.8167 328.919 89.8167C330.961 89.8167 332.787 89.3673 334.398 88.4685C336.005 87.5695 337.281 86.2931 338.233 84.6398C339.985 81.625 340.863 77.4907 340.863 72.2373M359.148 99.4505C358.892 99.2003 358.763 98.895 358.763 98.5345V25.6163C358.763 25.2558 358.892 24.9505 359.148 24.7003C359.405 24.45 359.712 24.3229 360.08 24.3229H370.161C370.526 24.3229 370.836 24.45 371.093 24.7003C371.35 24.9548 371.478 25.2601 371.478 25.6163V98.5345C371.478 98.895 371.35 99.2003 371.093 99.4505C370.836 99.7051 370.526 99.8279 370.161 99.8279H360.076C359.711 99.8279 359.401 99.7051 359.148 99.4505ZM425.355 71.9402L425.248 75.2856C425.248 76.1506 424.809 76.579 423.935 76.579H389.642C389.278 76.579 389.096 76.7613 389.096 77.1175C389.315 79.4922 389.642 81.1073 390.081 81.9727C391.833 87.15 396.107 89.7746 402.9 89.8468C407.865 89.8468 411.808 87.8326 414.732 83.8046C415.022 83.3719 415.391 83.156 415.826 83.156C416.115 83.156 416.372 83.2618 416.592 83.4781L423.384 88.9777C424.043 89.4822 424.151 90.0547 423.712 90.7033C421.446 93.8664 418.435 96.3129 414.674 98.0389C410.914 99.765 406.731 100.63 402.129 100.63C396.435 100.63 391.593 99.3701 387.613 96.8556C383.633 94.3411 380.73 90.8134 378.903 86.2851C377.222 82.4011 376.385 77.0074 376.385 70.1045C376.385 65.9366 376.824 62.5529 377.698 59.9662C379.16 54.9329 381.914 50.9601 385.969 48.047C390.023 45.1338 394.898 43.6797 400.593 43.6797C414.981 43.6797 423.086 51.0872 424.912 65.9026C425.206 67.7005 425.355 69.7143 425.355 71.9406M393.858 56.4596C392.069 57.7908 390.806 59.6397 390.077 62.0144C389.638 63.2398 389.348 64.8171 389.199 66.759C389.05 67.1195 389.199 67.2976 389.638 67.2976H411.878C412.243 67.2976 412.425 67.1195 412.425 66.759C412.276 64.9612 412.061 63.596 411.767 62.6588C411.108 60.0682 409.812 58.0582 407.878 56.6165C405.943 55.179 403.512 54.4582 400.593 54.4582C397.892 54.4667 395.648 55.1323 393.858 56.4596ZM106.362 68.5476L93.693 30.0298C93.2407 28.6602 92.4429 27.4373 91.3804 26.4849C90.3179 25.5326 89.0284 24.8847 87.6426 24.6068L48.0985 16.7076C45.3403 16.1563 42.4662 17.1488 40.598 19.2939L13.7771 50.0688C12.8387 51.1488 12.1955 52.4633 11.9126 53.8794C11.6297 55.2955 11.7171 56.763 12.1659 58.1334L24.8351 96.6512C25.2867 98.0213 26.0843 99.2447 27.147 100.197C28.2097 101.15 29.4997 101.797 30.8859 102.074L70.43 109.973C70.9294 110.073 71.437 110.122 71.9457 110.122C74.2029 110.122 76.4019 109.138 77.9301 107.387L104.751 76.6117C106.66 74.4237 107.277 71.3328 106.362 68.5472M91.0551 30.9419L99.388 56.2726L81.6785 27.6683C81.3018 27.0598 80.8384 26.5124 80.3035 26.0443L87.1166 27.4052C88.0191 27.5873 88.8586 28.0103 89.5502 28.6312C90.2418 29.2522 90.761 30.0496 91.0551 30.9419ZM78.0007 97.7452L62.5649 98.5464L87.5346 83.7485C87.572 83.7272 87.6094 83.7017 87.6463 83.6762L81.637 95.3663C81.284 96.0513 80.7633 96.6307 80.1259 97.0477C79.4884 97.4647 78.7561 97.7051 78.0007 97.7452ZM39.2064 97.4949L30.4841 83.4089C30.6497 83.5317 30.8195 83.6465 30.9976 83.7523L56.1662 98.6697C56.282 98.7377 56.4024 98.8053 56.5224 98.8648L43.108 99.5601C41.5383 99.6366 40.0434 98.8478 39.2068 97.4953M40.5278 28.9404L55.9636 28.1393L30.998 42.9372C30.9607 42.9585 30.9233 42.984 30.8864 43.0095L36.8957 31.3194C37.2483 30.635 37.7684 30.056 38.405 29.639C39.0417 29.222 39.7731 28.9813 40.5278 28.9404ZM79.3262 29.195L88.0482 43.2806C87.8826 43.1576 87.7112 43.043 87.5346 42.9372L62.3661 28.0245C62.2502 27.9565 62.1298 27.8889 62.0099 27.8294L75.4242 27.1341C76.9856 27.041 78.4847 27.8379 79.3254 29.1946M87.8364 78.2702C87.8353 78.8814 87.678 79.4816 87.3801 80.0112C87.0822 80.5408 86.6542 80.9814 86.1385 81.2892L60.9699 96.2019C60.451 96.5082 59.8626 96.6694 59.2636 96.6694C58.6647 96.6694 58.0763 96.5082 57.5574 96.2019L32.3938 81.285C31.8778 80.9775 31.4495 80.537 31.1516 80.0073C30.8537 79.4776 30.6965 78.8772 30.6958 78.266V48.415C30.6969 47.8039 30.8543 47.2037 31.1521 46.6741C31.45 46.1444 31.8781 45.7038 32.3938 45.396L57.5623 30.4833C58.0807 30.1758 58.6695 30.0149 59.2686 30.0171C59.8569 30.0171 60.4489 30.1739 60.9749 30.4833L86.1389 45.4007C86.6552 45.7079 87.0837 46.1483 87.3816 46.6781C87.6796 47.2079 87.8366 47.8084 87.8369 48.4197L87.8364 78.2702ZM28.0156 79.4195L20.7056 67.6108C20.2966 66.9476 20.0653 66.1859 20.0348 65.4022C20.0042 64.6185 20.1756 63.8403 20.5317 63.1458L27.9085 48.7929V78.2664C27.9085 78.6608 27.9454 79.0425 28.0156 79.4195ZM90.5167 47.2662L97.8267 59.0749C98.2356 59.7381 98.4669 60.4998 98.4975 61.2835C98.528 62.0672 98.3567 62.8454 98.0006 63.5398L90.6204 77.8928V48.4193C90.6204 48.0291 90.5827 47.6432 90.5167 47.2662ZM42.6816 21.1934C43.173 20.6321 43.7744 20.183 44.4466 19.8755C45.1187 19.5679 45.8466 19.4087 46.5828 19.4082C46.91 19.4082 47.2413 19.4422 47.5725 19.5056L72.2604 24.4368L40.3908 26.0906C39.5086 26.1374 38.6597 26.3537 37.8729 26.7099L42.6816 21.1934ZM15.8566 51.9683L33.5948 31.6203L18.0681 61.8231C17.6101 62.7205 17.338 63.705 17.269 64.7151L14.8088 57.2311C14.5151 56.3373 14.4573 55.3798 14.6413 54.4558C14.8253 53.5318 15.2446 52.6739 15.8566 51.9692M27.4738 95.7446L19.1405 70.4135L36.85 99.0178C37.2277 99.6255 37.691 100.173 38.225 100.642L31.4161 99.2809C29.5815 98.9162 28.0741 97.5595 27.4738 95.7446ZM75.8514 105.497C75.248 106.187 74.4802 106.705 73.623 107.001C72.7658 107.296 71.8483 107.36 70.9601 107.184L46.2723 102.253L78.1418 100.599C79.024 100.553 79.873 100.336 80.6597 99.9801L75.8514 105.497ZM102.672 74.7178L84.9379 95.0705L100.465 64.8676C100.924 63.9707 101.196 62.986 101.264 61.9757L103.724 69.4597C104.017 70.3532 104.074 71.3101 103.889 72.2335C103.704 73.1568 103.284 74.0137 102.672 74.7174" fill="white"/>
</svg>
