<svg width="368" height="68" viewBox="0 0 368 68" fill="none" xmlns="http://www.w3.org/2000/svg">
<path d="M278.707 14.3539H284.686L272.723 53.1489H261.402L254.636 29.3778L247.443 53.1489H235.837L224.592 16.684L209.348 55.2807C207.071 60.967 202.441 68 193.895 68C188.273 68 184.783 65.1587 184.783 60.1135C184.783 56.8436 187.49 53.5775 191.405 53.5775C194.895 53.5775 197.457 55.7093 197.457 59.1196C197.457 60.4375 196.819 61.9932 195.606 62.8827C195.631 62.8827 195.653 62.8862 195.678 62.8862C198.612 62.8862 201.795 60.2072 203.823 54.5569L187.63 14.3539H204.22L211.871 34.0557L219.46 14.3539H239.825L246.62 36.4073L253.282 14.3539H265.318L271.944 36.5082L278.707 14.3539ZM306.762 17.6959C309.183 17.6959 312.244 20.0403 312.244 27.3577V31.3369H300.85V27.3577C300.85 20.0403 304.34 17.6959 306.762 17.6959ZM306.762 13.0756C296.863 13.0756 284.899 18.4773 284.899 33.7533C284.899 49.0293 295.654 54.431 307.686 54.431C316.159 54.431 325.773 51.7301 327.267 41.9963H320.36C319.436 47.6788 314.593 49.8106 310.32 49.8106C304.766 49.8106 300.85 47.254 300.85 40.9303V35.8851H327.982C328.05 35.1721 328.05 34.4628 328.05 33.7533C328.05 18.4773 316.372 13.0756 306.762 13.0756ZM332.753 0H347.635V53.1489H332.753V0ZM368 53.1489H353.117V0H368V53.1489ZM166.909 17.6959C169.33 17.6959 172.394 20.0403 172.394 27.3577V31.3369H161.001V27.3577C161.001 20.0403 164.487 17.6959 166.909 17.6959ZM180.51 41.9963C179.583 47.6788 174.743 49.8106 170.47 49.8106C164.916 49.8106 161.001 47.254 161.001 40.9303V35.8851H188.129C188.201 35.1721 188.201 34.4628 188.201 33.7533C188.201 18.4773 176.522 13.0756 166.909 13.0756C157.013 13.0756 145.05 18.4773 145.05 33.7533C145.05 49.0293 155.801 54.431 167.836 54.431C176.31 54.431 185.923 51.7301 187.418 41.9963H180.51ZM29.7657 0H45.5723V53.1489H29.7657V28.4956H15.8067V53.1489H0V0H15.8067V22.5969H29.7657V0ZM140.351 25.7228V53.1489H125.111V27.0012C125.111 23.5908 123.332 21.2465 120.127 21.2465C117.973 21.2465 115.62 22.7086 114.501 25.3663V53.1489H99.2646V14.3539H114.501V19.5035C116.681 15.7657 121.997 13.2882 126.822 13.2882C134.44 13.2882 140.351 18.0487 140.351 25.7228ZM78.3261 33.7533V40.1489C78.3261 47.4663 74.9807 49.8106 72.5592 49.8106C70.1377 49.8106 66.7923 47.4663 66.7923 40.1489V27.3577C66.7923 20.0403 70.1377 17.6959 72.5592 17.6959C74.9807 17.6959 78.3261 20.0403 78.3261 27.3577V33.7533ZM72.6314 13.0756C62.7324 13.0756 50.8412 18.4773 50.8412 33.7533C50.8412 49.0293 62.7324 54.431 72.6314 54.431C82.5304 54.431 94.4215 49.0293 94.4215 33.7533C94.4215 18.4773 82.5304 13.0756 72.6314 13.0756Z" fill="white"/>
</svg>
