<svg width="353" height="196" viewBox="0 0 353 196" fill="none" xmlns="http://www.w3.org/2000/svg">
<path d="M175.72 175.623C175.581 175.778 175.425 175.935 175.27 176.089C145.71 205.649 87.0222 194.904 44.1959 152.078C39.6457 147.527 35.4555 142.798 31.6415 137.944V126.439H23.433C7.36794 101.519 0.681935 74.5457 4.5854 52.1387C5.66568 53.3335 7.95718 54.4383 8.93107 55.1748C12.7778 58.0473 19.0219 65.4618 22.2709 68.9971C23.253 70.0774 25.1353 72.3034 26.101 73.4C26.4447 73.7846 26.7066 74.5784 26.6657 75.0858C26.6329 75.5359 26.2644 76.1906 25.8473 76.3625C25.078 76.6898 23.3182 76.5016 22.5243 76.2643C22.1318 76.1497 21.4768 75.6259 21.0921 75.495C20.6829 75.3559 19.7172 75.2577 19.349 75.495C19.1771 75.6014 19.0953 76.0597 19.0953 76.2643C19.1032 76.5425 19.3899 77.0581 19.5536 77.2872C20.8548 79.0549 26.9682 82.7376 26.1007 83.114C25.3314 83.4496 19.7663 79.4887 17.5567 78.4657C17.0002 78.2038 15.4534 78.2038 15.1015 78.7194C14.8396 79.1122 15.4534 80.1515 15.7726 80.5116C45.3493 114.425 83.4783 151.129 131.723 173.397C137.582 176.097 156.995 178.61 156.995 178.61C156.995 178.61 166.587 177.53 175.72 175.623Z" fill="#1F235A"/>
<path d="M142.125 36.5648C139.777 38.8644 136.429 41.7615 133.058 43.3737C128.663 45.4687 103.137 45.1086 96.6391 45.6242C90.7058 46.0907 78.8224 44.2248 72.9057 43.5783C64.5499 42.6617 47.9119 40.2475 39.5561 39.38C33.1236 38.7171 20.2093 38.1034 13.7767 37.4405C12.7783 37.3341 11.1988 36.8021 9.61084 36.0656C10.2656 34.6744 10.9857 33.3077 11.755 31.9819C14.0629 27.9965 16.87 24.322 20.1845 21.0076C46.7741 -5.58132 96.9253 0.441894 137.902 33.0786C139.327 34.2079 140.733 35.3782 142.125 36.5648Z" fill="#1F235A"/>
<path d="M184.813 95.7742C184.706 96.1998 184.576 96.5517 184.412 96.7726C184.296 96.9445 183.896 97.1245 183.691 97.1818C182.693 97.4846 180.532 97.2964 179.501 97.4846C177.586 97.8447 173.846 99.0152 172.038 99.7436C167.201 101.668 157.945 106.495 153.452 109.114C153.182 109.268 152.904 109.441 152.617 109.613C152.331 109.785 152.044 109.965 151.749 110.152C151.447 110.333 151.144 110.529 150.841 110.725C150.309 111.069 149.753 111.437 149.188 111.814C148.934 111.986 148.672 112.166 148.41 112.346C147.919 112.681 147.412 113.033 146.896 113.385C145.775 114.171 144.605 114.997 143.41 115.848C142.861 116.241 142.313 116.634 141.757 117.035C141.077 117.527 140.39 118.017 139.702 118.517C139.195 118.877 138.688 119.246 138.18 119.606C134.227 122.453 130.193 125.317 126.551 127.641C124.522 128.934 122.614 130.064 120.896 130.924C120.601 131.071 120.315 131.217 120.028 131.349C118.94 131.857 116.575 132.471 115.396 132.716C114.046 132.995 111.312 133.404 109.938 133.395C108.252 133.379 104.888 132.863 103.251 132.438C98.7994 131.292 90.1242 128.067 86.0649 125.891C70.4175 117.519 28.5809 84.9559 27.5664 84.1621C28.0984 84.4567 45.3174 94.0153 48.9347 95.341C50.0641 95.7584 53.1903 95.652 53.7386 95.341C54.4831 94.9237 54.2215 93.2296 53.6077 91.9284C52.7729 90.1689 49.7203 86.6908 49.1065 84.8413C48.6155 83.3764 47.6334 81.4451 48.4927 79.4482C48.5582 79.2928 48.64 79.1455 48.7383 78.9818C48.7462 78.9654 48.7462 78.9572 48.7628 78.949C48.8035 78.8754 48.8528 78.8017 48.9101 78.7281C49.0165 78.5726 49.1311 78.4253 49.2538 78.2698C49.7612 77.6642 50.4405 77.0422 51.2016 76.4448C51.2916 76.3712 51.3898 76.2975 51.4881 76.2239C52.8139 75.2173 54.3445 74.2925 55.6455 73.6378C55.8501 73.5314 56.0547 73.4414 56.2429 73.3514C56.4393 73.2614 56.6194 73.1795 56.7994 73.1059C56.9713 73.0322 57.1432 72.9667 57.2987 72.9095C82.5215 63.8337 109.529 66.2888 135.619 50.4697C138.287 48.8412 141.675 42.9652 144.073 38.2681C146.511 40.4204 148.909 42.6709 151.258 45.0196C158.264 52.0249 164.41 59.4557 169.664 67.1157L169.73 67.2139C171.342 69.5708 172.872 71.9441 174.313 74.3419C178.567 81.3954 182.079 88.5889 184.813 95.7742Z" fill="#088141"/>
<path d="M285.122 116.471V141.938H265.432V137.691H270.407C270.407 131.07 270.39 123.337 270.39 116.528H275.423C275.423 123.37 275.489 130.768 275.489 137.691H280.162C280.17 130.997 280.211 123.091 280.211 116.471H285.122Z" fill="#1F235A"/>
<path d="M161.75 124.752V141.938H151.881C151.881 141.938 151.545 142.199 151.144 142.601C150.727 142.888 150.375 143.329 150.08 144.001C150.039 144.091 149.998 144.189 149.957 144.287C149.957 144.304 149.949 144.32 149.941 144.337C148.713 147.611 146.184 148.715 142.764 148.126V144.378C144.327 143.92 145.251 143.069 145.759 141.94C146.209 140.95 146.348 139.746 146.315 138.412C146.307 138.158 146.307 137.905 146.307 137.644C146.307 137.496 146.299 137.341 146.299 137.184C146.299 137.03 146.291 136.865 146.291 136.693C146.283 136.227 146.283 135.72 146.274 135.187C146.234 130.727 146.258 124.753 146.258 124.753H151.88V137.643H156.741V124.753H161.75V124.752H161.75Z" fill="#1F235A"/>
<path d="M151.144 142.601C150.775 142.969 150.358 143.469 150.08 144C150.375 143.329 150.726 142.888 151.144 142.601Z" fill="#1F235A"/>
<path d="M342.805 121.119H339.098V124.827H342.805V121.119Z" fill="#1F235A"/>
<path d="M337.893 121.119H334.137V124.827H337.893V121.119Z" fill="#1F235A"/>
<path d="M248.245 117.403C249.789 117.403 251.062 117.403 252.541 117.403C252.541 118.843 252.541 120.156 252.541 121.734C251.261 121.734 249.911 121.734 248.245 121.734C248.245 120.456 248.245 119.076 248.245 117.403Z" fill="#1F235A"/>
<path d="M349.317 116.421V141.979H344.709V135.898C344.709 130.472 344.718 125.038 344.718 119.613V116.421H349.317Z" fill="#1F235A"/>
<path d="M336.035 127.273L336.003 137.707L327.721 137.691C327.721 135.26 327.795 132.731 327.721 130.563C327.663 128.909 326.027 125.718 323.768 125.366C317.663 124.407 310.78 124.776 304.74 124.776C304.74 125.235 304.74 125.684 304.748 126.126V137.738H302.244V130.905H297.35V135.307C297.35 135.651 297.334 135.978 297.293 136.281V137.737H292.988V116.664H287.931V141.977H340.897V127.257L336.035 127.273ZM322.564 137.47H310.019V129.392C313.497 129.392 316.934 129.229 320.346 129.514C321.148 129.58 322.253 131.053 322.466 132.052C322.819 133.697 322.564 135.481 322.564 137.47Z" fill="#1F235A"/>
<path d="M241.494 117.403C243.037 117.403 244.311 117.403 245.789 117.403C245.789 118.843 245.789 120.156 245.789 121.734C244.51 121.734 243.159 121.734 241.494 121.734C241.494 120.456 241.494 119.076 241.494 117.403Z" fill="#1F235A"/>
<path d="M207.72 116.552V142.241H203.75C199.592 142.241 195.444 142.25 191.286 142.25C188.134 142.25 184.993 142.233 181.833 142.208H181.784C180.875 142.2 179.026 142.217 179.026 142.217C179.026 142.217 178.895 143.527 178.617 144.304C178.445 144.779 178.257 145.204 178.036 145.589C176.743 147.896 174.541 148.723 171.226 148.371L171.177 148.174V144.679C171.177 144.679 171.275 144.63 171.439 144.54C171.439 144.54 171.447 144.532 171.456 144.532C171.832 144.327 172.519 143.935 173.06 143.5C173.346 143.272 173.69 142.937 173.944 142.444C173.976 142.371 174.009 142.297 174.042 142.216C174.287 141.626 174.443 140.948 174.467 140.407C174.598 137.413 174.565 134.417 174.557 131.414C174.549 131.086 174.549 130.75 174.549 130.423V124.801H178.887C179.041 124.818 179.207 124.826 179.378 124.842V137.61H193.004C192.709 135.056 193.266 131.561 191.932 130.22C191.932 130.22 191.932 130.22 191.932 130.212C191.842 130.122 191.744 130.04 191.637 129.974C189.419 128.803 186.285 129.393 183.388 129.189C183.388 127.911 183.183 126.315 183.183 125.146C186.187 124.966 189.149 124.778 191.686 125.269C196.114 126.128 199.248 129.058 199.077 137.757H202.825V116.553H207.719V116.552H207.72Z" fill="#1F235A"/>
<path d="M262.584 124.703V141.889C261.544 141.972 260.653 142.111 259.761 142.111C252.575 142.127 245.382 142.151 238.195 142.102C232.712 142.069 229.979 139.393 229.799 134.008C229.791 133.844 229.791 133.672 229.791 133.501C229.791 131.234 229.84 128.959 229.773 126.692V124.801H234.66V129.802C234.66 130.946 234.693 132.085 234.767 133.222C234.979 136.316 236.42 137.584 239.48 137.592C245.528 137.601 251.568 137.592 258.05 137.592V124.703H262.584Z" fill="#1F235A"/>
<path d="M215.612 141.996C213.509 141.996 211.951 141.996 210.136 141.996C210.136 133.57 210.136 125.27 210.136 116.823C211.972 116.823 213.717 116.823 215.612 116.823C215.612 125.244 215.612 133.558 215.612 141.996Z" fill="#1F235A"/>
<path d="M179.5 117.453H175.188V121.405H179.5V117.453Z" fill="#1F235A"/>
<path d="M170.293 116.667H165.318V141.987H170.293V116.667Z" fill="#1F235A"/>
<path d="M191.728 144.492H187.432V148.739H191.728V144.492Z" fill="#1F235A"/>
<path d="M158.559 120.431V120.734L158.886 121.553L161.087 121.757V123.418H156.84L156.201 122.936L155.98 122.543L155.866 122.346L155.727 121.929L155.718 121.913L155.866 121.684H155.899L157.404 121.626L157.045 120.89L156.897 120.3V119.458L157.249 118.59L158.092 118.025H161.087V119.867H159.115L158.559 120.431Z" fill="#1F235A"/>
<path d="M31.6422 126.438H17.3203V139.393H31.6422V126.438Z" fill="#088141"/>
<path d="M31.6422 152.766H17.3203V165.72H31.6422V152.766Z" fill="#088141"/>
</svg>
