<svg width="449" height="60" viewBox="0 0 449 60" fill="none" xmlns="http://www.w3.org/2000/svg">
<g clip-path="url(#clip0_671_15580)">
<path d="M20.7367 6.80078L0 59.9536H15.0876L28.2456 26.1122L20.7367 6.80078Z" fill="white"/>
<path d="M38.2882 0.487305H23.2936L40.9617 45.9573L28.3848 45.9109L22.8984 59.9535H61.4194L38.2882 0.487305Z" fill="white"/>
<path d="M93.4078 29.9885C93.4067 24.627 91.9445 19.3669 89.1779 14.7718C86.4113 10.1766 82.4446 6.41968 77.7028 3.90345C72.961 1.38722 67.6229 0.206572 62.2604 0.488009C56.8979 0.769447 51.7131 2.50236 47.2617 5.50107L52.7016 19.4276C54.809 17.2159 57.5328 15.6865 60.5204 15.0376C63.5081 14.3886 66.622 14.6498 69.4593 15.7875C72.2966 16.9251 74.7266 18.8867 76.4348 21.4186C78.1431 23.9504 79.0509 26.9358 79.0409 29.9885C79.0359 33.5678 77.7777 37.0327 75.484 39.7835L73.8567 35.6055H58.9552L68.4168 59.9537H83.4114L81.0867 53.9421C84.8997 51.2149 88.0065 47.6192 90.1493 43.4534C92.2921 39.2875 93.4092 34.6716 93.4078 29.9885Z" fill="white"/>
<path d="M124.56 28.1082L110.263 8.79678C109.421 7.60398 108.843 6.24647 108.567 4.81401C108.29 3.38156 108.322 1.90681 108.659 0.487305H94.1986C93.6447 2.77751 93.582 5.15879 94.0147 7.47489C94.4474 9.791 95.3657 11.9896 96.7094 13.9264L111.076 33.3306C117.051 40.1778 114.68 46.5376 108.031 46.5376H97.43L90.2466 59.907H108.031C108.031 59.907 108.914 59.907 110.356 59.907H111.332C118.306 59.907 128.582 57.2842 129.93 44.9361C130.431 38.8394 128.501 32.7918 124.56 28.1082Z" fill="white"/>
<path d="M154.665 56.8665L153.851 59.7678H149.202L154.246 42.8936H161.221L166.358 59.7678H161.709L160.825 56.8665H154.665ZM157.71 46.2591L155.757 53.5937H159.942L157.71 46.2591Z" fill="white"/>
<path d="M172.031 55.8916H179.005V59.7678H167.381V42.8936H172.031V55.8916Z" fill="white"/>
<path d="M195.534 50.2284V50.739V53.4547C195.535 54.2321 195.472 55.0084 195.348 55.7758C195.217 56.4478 195.031 57.1078 194.79 57.7487C194.543 58.3616 194.091 58.8702 193.511 59.1878C192.788 59.5523 191.996 59.7581 191.186 59.7912H190.396H188.071C186.911 59.8043 185.751 59.711 184.607 59.5127C183.736 59.369 182.894 59.0786 182.12 58.6539C181.387 58.2074 180.848 57.5038 180.609 56.681C180.25 55.5085 180.085 54.2855 180.121 53.0601V52.1781C180.11 52.0778 180.11 51.9766 180.121 51.8763V49.3232C180.109 49.2618 180.109 49.1988 180.121 49.1375V48.7429C180.098 48.3796 180.098 48.0153 180.121 47.652C180.121 47.3038 180.121 46.9324 180.307 46.5611C180.393 46.205 180.526 45.8617 180.702 45.5398C180.889 45.1978 181.115 44.8785 181.376 44.5881C181.648 44.2682 181.97 43.9939 182.329 43.7758C182.683 43.5536 183.067 43.3818 183.468 43.2651C183.881 43.1351 184.3 43.0267 184.724 42.9402L186.002 42.8009H187.978C188.973 42.7975 189.967 42.8596 190.954 42.9866C191.746 43.0806 192.525 43.2596 193.279 43.5204C193.624 43.6532 193.939 43.8557 194.203 44.1152C194.467 44.3748 194.675 44.6859 194.813 45.0291C195.199 46.0214 195.404 47.0749 195.417 48.1394H190.768C190.759 47.8711 190.712 47.6054 190.628 47.3502C190.517 47.1511 190.357 46.9834 190.164 46.8628C189.954 46.7778 189.736 46.7156 189.513 46.6771C189.212 46.638 188.907 46.638 188.606 46.6771H187.862C187.802 46.6966 187.737 46.6966 187.676 46.6771H187.165H186.7C186.545 46.6659 186.389 46.6659 186.235 46.6771C186.083 46.7096 185.936 46.7562 185.793 46.8164L185.421 47.0717C185.279 47.1855 185.154 47.3183 185.049 47.4663C184.952 47.6071 184.881 47.7644 184.84 47.9305C184.79 48.1059 184.751 48.2842 184.724 48.4644C184.699 48.6415 184.699 48.8211 184.724 48.9982V50.298C184.724 50.298 184.724 50.4141 184.724 50.4837V52.3406C184.724 52.5495 184.724 52.7816 184.724 53.0137V53.71C184.724 54.1655 184.819 54.616 185.003 55.033C185.119 55.3269 185.332 55.5724 185.607 55.7293C185.905 55.8593 186.217 55.9529 186.537 56.0079C186.97 56.0467 187.406 56.0467 187.839 56.0079C188.272 56.0459 188.708 56.0459 189.141 56.0079C189.482 55.9458 189.816 55.8526 190.14 55.7293C190.429 55.5763 190.658 55.3312 190.791 55.033C190.945 54.6176 191.016 54.176 191 53.7332V53.385H187.909V50.2284H195.534Z" fill="white"/>
<path d="M202.252 49.6479H209.459V52.7814H202.252V56.0541H210.11V59.7678H197.603V42.8936H209.924V46.6073H202.252V49.6479Z" fill="white"/>
<path d="M212.365 42.8936H220.85C221.788 42.9137 222.722 43.0225 223.64 43.2185C224.312 43.3877 224.944 43.6874 225.5 44.1005C225.993 44.5395 226.348 45.112 226.522 45.7485C226.798 46.6583 226.924 47.6069 226.894 48.557C226.933 49.1289 226.933 49.7027 226.894 50.2746C226.824 50.7393 226.715 51.1973 226.569 51.644C226.404 52.0721 226.091 52.4265 225.686 52.6421C225.099 52.9689 224.463 53.1964 223.802 53.3152C224.272 53.3632 224.733 53.4724 225.174 53.6402C225.532 53.7905 225.85 54.0208 226.104 54.3133C226.377 54.6019 226.577 54.9523 226.685 55.3346C226.81 55.7723 226.873 56.2255 226.871 56.6808V59.7214H222.222V57.4003C222.26 57.1154 222.26 56.8265 222.222 56.5415C222.178 56.2886 222.075 56.0498 221.919 55.8452C221.797 55.6275 221.598 55.4624 221.361 55.381C221.064 55.2697 220.749 55.2146 220.432 55.2185H217.061V59.6982H212.411L212.365 42.8936ZM220.501 51.4584H220.687C220.98 51.4665 221.272 51.4192 221.547 51.3191C221.645 51.282 221.734 51.226 221.81 51.1543C221.886 51.0826 221.947 50.9966 221.989 50.9013C222.093 50.6807 222.163 50.4461 222.198 50.205C222.225 49.8806 222.225 49.5545 222.198 49.2301C222.226 48.8747 222.226 48.5178 222.198 48.1624C222.162 47.8991 222.092 47.6415 221.989 47.3965C221.928 47.2935 221.848 47.2036 221.752 47.1319C221.656 47.0601 221.547 47.0081 221.431 46.9787C221.057 46.8525 220.663 46.7974 220.269 46.8162H216.898V51.4584H220.501Z" fill="white"/>
<path d="M233.753 59.7678H229.103V42.8936H233.753V59.7678Z" fill="white"/>
<path d="M240.471 56.8665L239.657 59.7678H235.008L240.076 42.8936H247.05L252.188 59.7678H247.538L246.422 56.8665H240.471ZM243.493 46.2591L241.424 53.5937H245.632L243.493 46.2591Z" fill="white"/>
<path d="M270.065 59.7678H262.393L257.627 46.793H257.441L257.627 59.7678H253.21V42.8936H260.836L265.485 55.7291H265.671L265.485 42.8936H269.972L270.065 59.7678Z" fill="white"/>
<path d="M294.684 59.8379L293.056 58.5381C292.814 58.7588 292.549 58.9533 292.266 59.1183C291.987 59.2755 291.69 59.4001 291.383 59.4897C291.07 59.5863 290.752 59.6638 290.429 59.7218C290.104 59.7446 289.778 59.7446 289.453 59.7218H288.849H287.988H287.733H287.198C286.035 59.7329 284.875 59.624 283.734 59.3969C282.91 59.2153 282.124 58.8934 281.409 58.4452C280.71 57.9335 280.196 57.2084 279.945 56.3795C279.589 55.2223 279.424 54.015 279.457 52.805V49.9965C279.445 49.9273 279.445 49.8568 279.457 49.7876V49.3234C279.428 48.1859 279.61 47.053 279.991 45.981C280.268 45.1694 280.83 44.4851 281.572 44.0545C282.342 43.6273 283.173 43.3219 284.036 43.1493C285.092 42.9343 286.167 42.8331 287.245 42.8475H289.569H290.383C290.869 42.9136 291.345 43.0384 291.801 43.2189C292.209 43.4648 292.584 43.7611 292.917 44.1009C293.337 44.4147 293.699 44.7996 293.986 45.2383C294.26 45.6483 294.457 46.1044 294.568 46.5845C294.578 46.6926 294.578 46.8014 294.568 46.9094V47.2112C294.556 47.3192 294.556 47.4281 294.568 47.5361V47.8379C294.568 47.8379 294.568 48.0468 294.568 48.1396C294.568 48.2325 294.568 48.3485 294.568 48.4414C294.568 48.5342 294.568 48.6735 294.568 48.7663C294.555 48.8665 294.555 48.9679 294.568 49.068V49.3234C294.556 49.4081 294.556 49.494 294.568 49.5787V51.8998C294.555 52.0465 294.555 52.194 294.568 52.3408V52.7818C294.568 53.0603 294.568 53.362 294.568 53.6406C294.568 53.9191 294.568 54.2208 294.568 54.5226C294.568 54.8243 294.568 54.7779 294.568 54.9172V55.3118V55.6599C294.568 55.7992 294.568 55.9152 294.568 56.0313L296.427 57.215L294.684 59.8379ZM290.336 52.8746C290.336 52.8746 290.336 52.7354 290.336 52.6425V51.6677C290.336 51.6677 290.336 51.6677 290.336 51.482V51.0642C290.336 51.0642 290.336 50.9249 290.336 50.8785V50.5071C290.362 49.9968 290.362 49.4855 290.336 48.9752C290.279 48.5656 290.185 48.1617 290.058 47.7682C289.992 47.5902 289.891 47.4279 289.758 47.2919C289.626 47.1559 289.467 47.0493 289.29 46.9791C288.784 46.7943 288.248 46.7076 287.71 46.7237H287.128C286.587 46.731 286.049 46.8011 285.524 46.9326C285.178 46.9995 284.856 47.1601 284.594 47.3969C284.358 47.6678 284.198 47.996 284.129 48.3485C284.028 48.8527 283.981 49.3663 283.99 49.8804V52.6193C283.98 53.2027 284.027 53.7857 284.129 54.3601C284.184 54.7399 284.319 55.1038 284.525 55.4278C284.772 55.6929 285.098 55.8719 285.455 55.9385C286.034 56.0715 286.627 56.1338 287.221 56.1241H288.639H288.918H289.174L286.175 54.1048L287.965 51.5748L290.336 52.8746Z" fill="white"/>
<path d="M303.611 56.8665L302.797 59.7678H298.147L303.215 42.8936H310.19L315.327 59.7678H310.678L309.794 56.8665H303.611ZM306.656 46.2591L304.564 53.5937H308.772L306.656 46.2591Z" fill="white"/>
<path d="M323.999 59.7678H319.349V46.793H315.072V42.8936H328.439V46.793H323.79L323.999 59.7678Z" fill="white"/>
<path d="M334.088 56.8665L333.274 59.7678H328.625L333.693 42.8936H340.667L345.828 59.7678H341.179L340.295 56.8665H334.088ZM337.087 46.2591L334.995 53.5937H339.203L337.087 46.2591Z" fill="white"/>
<path d="M346.828 42.8936H355.336C356.267 42.915 357.193 43.0238 358.103 43.2185C358.771 43.3625 359.403 43.6387 359.962 44.0309C360.471 44.4612 360.836 45.0361 361.009 45.6789C361.264 46.5925 361.382 47.5391 361.357 48.4874C361.369 49.0622 361.33 49.6369 361.241 50.205C361.189 50.6708 361.087 51.1298 360.939 51.5744C360.767 51.9983 360.456 52.3506 360.055 52.5725C359.469 52.8993 358.833 53.1268 358.172 53.2456C358.635 53.2905 359.089 53.3999 359.521 53.5705C359.885 53.7207 360.211 53.9507 360.474 54.2437C360.739 54.5381 360.938 54.8865 361.055 55.2649C361.18 55.7027 361.243 56.1559 361.241 56.6112V59.6518H356.592V57.3307C356.63 57.0457 356.63 56.7569 356.592 56.4719C356.538 56.2221 356.435 55.9854 356.289 55.7756C356.166 55.5579 355.968 55.3927 355.731 55.3113C355.434 55.2025 355.119 55.1475 354.801 55.1489H351.431V59.6286H346.897L346.828 42.8936ZM354.964 51.4584H355.127C355.42 51.4665 355.712 51.4192 355.987 51.3191C356.19 51.2451 356.357 51.0953 356.452 50.9013C356.535 50.6732 356.605 50.4408 356.661 50.205C356.688 49.8806 356.688 49.5545 356.661 49.2301C356.689 48.8747 356.689 48.5178 356.661 48.1624C356.661 47.8529 356.592 47.5976 356.452 47.3965C356.32 47.1871 356.112 47.0372 355.871 46.9787C355.505 46.8522 355.118 46.797 354.732 46.8162H351.361V51.4584H354.964Z" fill="white"/>
<path d="M368.192 59.7678H363.659V42.8936H368.192V59.7678Z" fill="white"/>
<path d="M387.116 48.1857C387.131 47.8489 387.092 47.5118 386.999 47.1876C386.929 46.9648 386.8 46.7646 386.627 46.6074C386.404 46.5057 386.17 46.4279 385.93 46.3753C385.582 46.346 385.232 46.346 384.884 46.3753H384.442H384.279C384.016 46.3529 383.752 46.3529 383.489 46.3753L382.745 46.561C382.63 46.592 382.522 46.6475 382.43 46.7236C382.338 46.7996 382.263 46.8946 382.21 47.002C382.079 47.2686 382.015 47.5636 382.024 47.8608C381.998 48.0843 381.998 48.3103 382.024 48.5339C382.066 48.7071 382.136 48.872 382.234 49.0213C382.359 49.1452 382.509 49.2402 382.675 49.2998C382.885 49.3999 383.117 49.4477 383.349 49.4391H383.745H385.186C385.965 49.4708 386.741 49.5483 387.511 49.6712C388.256 49.798 388.994 49.9685 389.719 50.1818C390.06 50.29 390.374 50.4676 390.642 50.7033C390.91 50.9391 391.126 51.2278 391.277 51.5513C391.676 52.4072 391.859 53.3474 391.811 54.2902V55.2186C391.824 55.272 391.824 55.3277 391.811 55.3811V55.706C391.8 55.7752 391.8 55.8457 391.811 55.9149C391.834 56.1697 391.834 56.4261 391.811 56.6809C391.764 56.9417 391.694 57.1979 391.602 57.4468C391.54 57.6939 391.438 57.9292 391.3 58.1432C391.146 58.3508 390.967 58.538 390.765 58.7002C390.503 58.9276 390.214 59.1225 389.905 59.2805C389.605 59.4406 389.285 59.5578 388.952 59.6287L387.929 59.8143C387.58 59.8143 387.232 59.8143 386.86 59.8143H384.535C383.51 59.8258 382.485 59.7715 381.466 59.6519C380.669 59.5742 379.887 59.3868 379.142 59.0948C378.82 58.9394 378.533 58.7188 378.301 58.4471C378.069 58.1754 377.896 57.8585 377.793 57.5165C377.46 56.4828 377.31 55.3986 377.352 54.3134H381.652C381.613 54.6061 381.613 54.9027 381.652 55.1954C381.687 55.4322 381.766 55.6605 381.885 55.8685C382.015 56.0399 382.193 56.1691 382.396 56.2399C382.679 56.3429 382.979 56.3902 383.28 56.3791H385.233H385.465H386.139L386.674 56.1934C386.784 56.1545 386.884 56.09 386.965 56.0053C387.046 55.9206 387.105 55.8181 387.139 55.706C387.253 55.4181 387.308 55.1104 387.302 54.8008C387.315 54.508 387.267 54.2157 387.162 53.942C387.129 53.8425 387.074 53.7514 387.002 53.6752C386.929 53.5991 386.841 53.5396 386.744 53.501L386.116 53.3153H385.325H384.698H384.303H383.535C382.662 53.2728 381.792 53.172 380.932 53.0136C380.246 52.8847 379.575 52.6824 378.932 52.4101C378.63 52.2627 378.363 52.0514 378.15 51.7909C377.938 51.5304 377.784 51.2269 377.7 50.9014C377.389 49.9428 377.248 48.9375 377.282 47.9304C377.274 47.2717 377.36 46.6152 377.538 45.9807C377.673 45.4624 377.919 44.9794 378.258 44.5648C378.598 44.1515 379.038 43.8319 379.537 43.6364C380.156 43.3985 380.806 43.25 381.466 43.1954H382.187H382.931H384.419C385.32 43.186 386.222 43.2402 387.116 43.3579C387.9 43.46 388.677 43.6151 389.44 43.8221C389.762 43.9452 390.056 44.1321 390.303 44.3714C390.551 44.6107 390.748 44.8976 390.882 45.2147C391.266 46.1155 391.441 47.0916 391.393 48.0697V48.325V48.5107L387.116 48.1857Z" fill="white"/>
<path d="M401.761 59.7678H397.228V46.793H392.881V42.8936H406.248V46.793H401.599L401.761 59.7678Z" fill="white"/>
<path d="M412.409 49.6479H419.592V52.7814H412.409V56.0541H420.266V59.7678H407.875V42.8936H420.104V46.6073H412.409V49.6479Z" fill="white"/>
<path d="M427.101 49.6479H434.285V52.7814H427.101V56.0541H434.959V59.7678H422.568V42.8936H434.726V46.6073H427.031L427.101 49.6479Z" fill="white"/>
<path d="M441.7 55.8916H448.791V59.7678H437.167V42.8936H441.7V55.8916Z" fill="white"/>
<path d="M149.179 11.443H152.898V15.737C152.822 16.9005 153.106 18.0592 153.712 19.0562C154.303 19.908 155.189 20.5115 156.199 20.7506C157.194 20.8792 158.197 20.9258 159.198 20.8898H176.448V8.00781H180.214V20.8898H180.656V24.6732H157.641C156.282 24.7206 154.933 24.4292 153.715 23.8253C152.498 23.2215 151.45 22.3243 150.667 21.2148C150.024 20.3494 149.586 19.3493 149.388 18.2902C149.249 17.2207 149.194 16.1419 149.225 15.0639L149.179 11.443ZM165.452 28.2709C166.055 28.261 166.639 28.4857 167.079 28.8976C167.289 29.0831 167.456 29.3121 167.569 29.5686C167.681 29.8252 167.736 30.1031 167.73 30.3831C167.74 30.6635 167.686 30.9424 167.573 31.1995C167.461 31.4565 167.292 31.6851 167.079 31.8685C166.652 32.2918 166.077 32.5331 165.475 32.5417C164.873 32.5331 164.298 32.2918 163.871 31.8685C163.663 31.6829 163.498 31.4533 163.39 31.1964C163.281 30.9395 163.231 30.6616 163.243 30.3831C163.233 30.1047 163.283 29.8274 163.392 29.5707C163.5 29.314 163.664 29.0842 163.871 28.8976C164.095 28.688 164.358 28.5247 164.645 28.4172C164.933 28.3096 165.238 28.2599 165.545 28.2709H165.452Z" fill="white"/>
<path d="M180.423 20.8897H184.561V0H188.304V20.8897H188.769V24.6731H180.4L180.423 20.8897Z" fill="white"/>
<path d="M219.711 20.8899H221.734V24.6733H188.513V20.8899H192.651V15.8531H195.859V20.8899H199.184V8.00789H211.551C214.092 7.83228 216.599 8.66661 218.526 10.329C219.331 11.0889 219.97 12.0071 220.402 13.0258C220.834 14.0445 221.05 15.1415 221.036 16.2477C220.979 17.8796 220.524 19.473 219.711 20.8899ZM202.95 20.8899H212.016C213.189 20.9775 214.361 20.7192 215.387 20.1472C216.007 19.7131 216.502 19.125 216.824 18.4411C217.146 17.7571 217.284 17.0011 217.224 16.2477C217.255 15.2963 216.96 14.3628 216.387 13.6017C216.157 13.221 215.853 12.8896 215.494 12.6267C215.135 12.3638 214.727 12.1745 214.295 12.0698C213.546 11.8149 212.761 11.6817 211.97 11.6752H202.95V20.8899Z" fill="white"/>
<path d="M221.524 20.8897H225.662V0H229.429V20.8897H229.917V24.6731H221.524V20.8897Z" fill="white"/>
<path d="M229.638 20.8897H233.752V0H237.519V24.6731H229.638V20.8897Z" fill="white"/>
<path d="M261.51 20.8901V24.6735H257.813C256.168 24.7073 254.522 24.6375 252.885 24.4646C251.946 24.2137 251.063 23.7885 250.281 23.2112C249.168 22.4325 248.269 21.3864 247.668 20.1694C247.067 18.9524 246.782 17.6037 246.841 16.2479C246.825 15.138 247.04 14.037 247.472 13.0143C247.904 11.9915 248.544 11.0694 249.351 10.306C250.681 8.88626 252.52 8.05145 254.466 7.98487C255.628 7.98487 256.79 7.98487 257.906 7.98487H261.114V20.8901H261.51ZM251.281 0.000344926C251.87 0.00539843 252.439 0.219266 252.885 0.603826C253.099 0.790807 253.269 1.02338 253.382 1.28445C253.494 1.54553 253.547 1.82848 253.536 2.11253C253.541 2.38804 253.49 2.66168 253.386 2.91697C253.282 3.17226 253.127 3.40393 252.931 3.59802C252.716 3.81734 252.459 3.99181 252.176 4.11134C251.893 4.23087 251.588 4.29307 251.281 4.29435C250.676 4.27958 250.1 4.02977 249.677 3.59802C249.47 3.41137 249.306 3.18159 249.198 2.92491C249.089 2.66823 249.038 2.39091 249.049 2.11253C249.033 1.83011 249.081 1.54777 249.19 1.28655C249.299 1.02533 249.465 0.791961 249.677 0.603826C250.123 0.219266 250.691 0.00539843 251.281 0.000344926ZM257.372 20.8901V11.7682H255.721C254.391 11.7016 253.088 12.1601 252.094 13.0448C251.633 13.4403 251.265 13.9323 251.016 14.4859C250.767 15.0395 250.643 15.6411 250.653 16.2479C250.585 17.1186 250.787 17.989 251.232 18.7408C251.677 19.4926 252.344 20.0891 253.141 20.4491C253.964 20.7613 254.84 20.9111 255.721 20.8901H257.372ZM256.488 0.000344926C257.08 -0.00984341 257.654 0.206005 258.092 0.603826C258.313 0.78848 258.489 1.01947 258.61 1.28029C258.731 1.5411 258.792 1.82529 258.79 2.11253C258.787 2.3956 258.723 2.67477 258.603 2.93109C258.483 3.18741 258.308 3.41487 258.092 3.59802C257.895 3.81572 257.655 3.99007 257.387 4.10996C257.119 4.22985 256.828 4.29264 256.535 4.29435C255.93 4.27958 255.354 4.02977 254.931 3.59802C254.723 3.41137 254.56 3.18159 254.451 2.92491C254.343 2.66823 254.292 2.39091 254.303 2.11253C254.293 1.84101 254.344 1.57067 254.452 1.32155C254.561 1.07243 254.725 0.850926 254.931 0.673459C255.131 0.462162 255.373 0.293601 255.64 0.177922C255.908 0.0622433 256.197 0.00183886 256.488 0.000344926Z" fill="white"/>
<path d="M261.324 20.8898H270.181V8.00781H273.947V24.6732H261.324V20.8898ZM266.717 28.2709C267.312 28.267 267.887 28.4913 268.321 28.8976C268.531 29.0831 268.698 29.3121 268.811 29.5686C268.923 29.8252 268.978 30.1031 268.972 30.3831C268.981 30.6635 268.928 30.9424 268.815 31.1995C268.703 31.4565 268.534 31.6851 268.321 31.8685C268.121 32.0929 267.873 32.2697 267.595 32.3861C267.318 32.5026 267.018 32.5557 266.717 32.5417C266.425 32.5402 266.137 32.4798 265.869 32.3641C265.602 32.2484 265.36 32.0798 265.16 31.8685C264.944 31.6863 264.772 31.4585 264.655 31.2016C264.538 30.9446 264.48 30.6651 264.485 30.3831C264.484 30.1015 264.543 29.823 264.659 29.5665C264.776 29.3101 264.946 29.0819 265.16 28.8976C265.582 28.5022 266.138 28.2787 266.717 28.2709ZM271.948 28.2709C272.551 28.261 273.135 28.4857 273.575 28.8976C273.785 29.0831 273.952 29.3121 274.065 29.5686C274.177 29.8252 274.232 30.1031 274.226 30.3831C274.235 30.6635 274.182 30.9424 274.069 31.1995C273.957 31.4565 273.788 31.6851 273.575 31.8685C273.371 32.082 273.126 32.2519 272.854 32.368C272.582 32.4841 272.29 32.544 271.994 32.544C271.699 32.544 271.406 32.4841 271.135 32.368C270.863 32.2519 270.618 32.082 270.413 31.8685C270.198 31.6863 270.026 31.4585 269.909 31.2016C269.792 30.9446 269.734 30.6651 269.739 30.3831C269.738 30.1015 269.797 29.823 269.913 29.5665C270.03 29.3101 270.2 29.0819 270.413 28.8976C270.62 28.6907 270.867 28.5284 271.139 28.4206C271.411 28.3128 271.702 28.2618 271.994 28.2709H271.948Z" fill="white"/>
<path d="M275.784 32.1471C276.913 31.7265 277.948 31.0876 278.829 30.267C279.629 29.3066 280.227 28.1948 280.586 26.9983C280.946 25.8019 281.06 24.5452 280.921 23.3038V8.00781H284.687V20.8898H285.176V24.6732H284.78V24.9053C284.834 27.0725 284.278 29.2113 283.176 31.0794C282.35 32.3527 281.255 33.4301 279.968 34.2361C278.709 35.0855 277.282 35.6554 275.784 35.9072V32.1471Z" fill="white"/>
<path d="M284.896 24.6731V20.8897H289.035V0H292.917V8.00774H301.565C302.824 7.91178 304.089 8.06766 305.286 8.46622C306.484 8.86479 307.59 9.49803 308.539 10.3288C309.384 11.1221 310.052 12.0836 310.5 13.1512C310.949 14.2189 311.168 15.3687 311.143 16.5261C311.102 18.105 310.619 19.6408 309.748 20.9594H311.515V24.7427L284.896 24.6731ZM292.917 20.8897H302.053C303.211 20.9793 304.368 20.7206 305.377 20.147C305.986 19.7224 306.475 19.1501 306.801 18.4841C307.126 17.8181 307.276 17.0804 307.237 16.3404C307.252 15.3733 306.95 14.4277 306.377 13.648C306.149 13.263 305.844 12.9299 305.479 12.6701C305.115 12.4102 304.7 12.2294 304.262 12.1393C303.044 11.8508 301.793 11.7259 300.542 11.7679H292.917V20.8897Z" fill="white"/>
<path d="M311.375 24.6732V20.8899H316.49C315.668 19.4791 315.228 17.8795 315.211 16.2477C315.186 15.1206 315.398 14.0007 315.835 12.9609C316.271 11.9212 316.922 10.9849 317.745 10.2129C319.646 8.58593 322.103 7.75444 324.603 7.89181H329.578V20.8899H330.043V24.6732H311.375ZM319.907 0.000126507C320.513 -0.00597184 321.1 0.208596 321.558 0.603608C321.775 0.789428 321.949 1.02121 322.065 1.28215C322.182 1.54309 322.239 1.82666 322.232 2.11231C322.234 2.39384 322.174 2.67239 322.058 2.92882C321.942 3.18525 321.771 3.41348 321.558 3.59781C321.358 3.81226 321.118 3.98443 320.85 4.10405C320.582 4.22368 320.293 4.28832 320 4.29413C319.699 4.29748 319.4 4.23718 319.124 4.11717C318.847 3.99717 318.599 3.82018 318.396 3.59781C318.18 3.41465 318.006 3.18719 317.886 2.93087C317.765 2.67455 317.701 2.39538 317.699 2.11231C317.702 1.83601 317.766 1.56381 317.887 1.31508C318.007 1.06635 318.181 0.847201 318.396 0.673241C318.588 0.463276 318.821 0.295121 319.081 0.179299C319.341 0.0634774 319.623 0.00248081 319.907 0.000126507ZM325.835 11.768H324.557C323.021 11.6496 321.499 12.1231 320.302 13.091C319.876 13.4989 319.536 13.9889 319.304 14.5315C319.073 15.074 318.954 15.6579 318.954 16.2477C318.908 17.0018 319.054 17.7553 319.379 18.4374C319.705 19.1195 320.198 19.7078 320.814 20.1471C321.95 20.7419 323.232 20.9996 324.51 20.8899H325.859L325.835 11.768ZM325.161 0.000126507C325.767 -0.00597184 326.353 0.208596 326.812 0.603608C327.029 0.789428 327.202 1.02121 327.319 1.28215C327.436 1.54309 327.493 1.82666 327.486 2.11231C327.488 2.39384 327.428 2.67239 327.312 2.92882C327.196 3.18525 327.025 3.41348 326.812 3.59781C326.388 4.02955 325.813 4.27936 325.208 4.29413C324.91 4.29715 324.615 4.23659 324.342 4.1165C324.069 3.99642 323.826 3.81957 323.627 3.59781C323.414 3.41348 323.243 3.18525 323.127 2.92882C323.01 2.67239 322.951 2.39384 322.953 2.11231C322.946 1.82666 323.003 1.54309 323.12 1.28215C323.236 1.02121 323.409 0.789428 323.627 0.603608C324.047 0.222006 324.593 0.00732833 325.161 0.000126507Z" fill="white"/>
<path d="M329.764 20.8897H333.902V0H337.668V24.6731H329.764V20.8897Z" fill="white"/>
<path d="M340.086 0H343.806V24.6731H340.086V0Z" fill="white"/>
<path d="M367.797 20.8901V24.6735H364.1C362.455 24.7073 360.809 24.6375 359.172 24.4646C358.231 24.218 357.347 23.7924 356.568 23.2112C355.455 22.4325 354.556 21.3864 353.955 20.1694C353.354 18.9524 353.069 17.6037 353.128 16.2479C353.115 15.1307 353.336 14.0231 353.776 12.996C354.216 11.9689 354.866 11.0447 355.685 10.2827C357.009 8.86862 358.839 8.0343 360.776 7.96166C361.938 7.96166 363.101 7.96166 364.24 7.96166H367.309V20.8901H367.797ZM357.568 0.000344926C358.157 0.00539843 358.726 0.219266 359.172 0.603826C359.386 0.790807 359.556 1.02338 359.669 1.28445C359.781 1.54553 359.834 1.82848 359.823 2.11253C359.828 2.38804 359.777 2.66168 359.673 2.91697C359.569 3.17226 359.414 3.40393 359.218 3.59802C359.003 3.81734 358.746 3.99181 358.463 4.11134C358.18 4.23087 357.875 4.29307 357.568 4.29435C356.963 4.27958 356.387 4.02977 355.964 3.59802C355.754 3.41253 355.587 3.18353 355.474 2.92698C355.362 2.67043 355.307 2.39249 355.313 2.11253C355.302 1.82848 355.354 1.54553 355.467 1.28445C355.58 1.02338 355.749 0.790807 355.964 0.603826C356.41 0.219266 356.978 0.00539843 357.568 0.000344926ZM363.659 20.8901V11.7682H361.892C360.57 11.7052 359.275 12.1637 358.289 13.0448C357.841 13.4478 357.487 13.9429 357.25 14.4959C357.013 15.049 356.9 15.6467 356.917 16.2479C356.852 17.118 357.056 17.9871 357.5 18.7382C357.945 19.4893 358.61 20.0864 359.404 20.4491C360.235 20.7259 361.11 20.844 361.985 20.7972L363.659 20.8901ZM362.775 0.000344926C363.367 -0.00984341 363.941 0.206005 364.379 0.603826C364.6 0.78848 364.777 1.01947 364.897 1.28029C365.018 1.5411 365.079 1.82529 365.077 2.11253C365.074 2.3956 365.01 2.67477 364.89 2.93109C364.77 3.18741 364.596 3.41487 364.379 3.59802C364.181 3.81354 363.94 3.98641 363.672 4.10612C363.405 4.22583 363.115 4.28987 362.822 4.29435C362.521 4.29484 362.223 4.23324 361.947 4.11341C361.671 3.99359 361.423 3.81813 361.218 3.59802C361.008 3.41253 360.841 3.18353 360.728 2.92698C360.616 2.67043 360.561 2.39249 360.567 2.11253C360.561 1.8394 360.617 1.56844 360.729 1.31946C360.842 1.07047 361.009 0.849765 361.218 0.673459C361.418 0.461082 361.659 0.291802 361.927 0.176041C362.195 0.0602791 362.483 0.000486748 362.775 0.000344926Z" fill="white"/>
<path d="M367.588 20.8898H376.468V8.00781H380.234V24.6732H367.588V20.8898ZM373.005 28.2709C373.6 28.267 374.174 28.4913 374.609 28.8976C374.819 29.0831 374.986 29.3121 375.098 29.5686C375.211 29.8252 375.266 30.1031 375.26 30.3831C375.269 30.6635 375.215 30.9424 375.103 31.1995C374.99 31.4565 374.821 31.6851 374.609 31.8685C374.408 32.0929 374.16 32.2697 373.883 32.3861C373.605 32.5026 373.305 32.5557 373.005 32.5417C372.713 32.5415 372.424 32.4817 372.156 32.366C371.888 32.2502 371.647 32.0809 371.447 31.8685C371.231 31.6863 371.059 31.4585 370.942 31.2016C370.826 30.9446 370.768 30.6651 370.773 30.3831C370.771 30.1015 370.83 29.823 370.947 29.5665C371.063 29.3101 371.234 29.0819 371.447 28.8976C371.87 28.5022 372.425 28.2787 373.005 28.2709ZM378.212 28.2709C378.823 28.2549 379.416 28.48 379.863 28.8976C380.073 29.0831 380.24 29.3121 380.352 29.5686C380.465 29.8252 380.52 30.1031 380.513 30.3831C380.523 30.6635 380.469 30.9424 380.357 31.1995C380.244 31.4565 380.075 31.6851 379.863 31.8685C379.656 32.0856 379.407 32.2575 379.131 32.3733C378.855 32.4892 378.558 32.5465 378.258 32.5417C377.967 32.5415 377.678 32.4817 377.41 32.366C377.142 32.2502 376.901 32.0809 376.701 31.8685C376.485 31.6863 376.313 31.4585 376.196 31.2016C376.08 30.9446 376.022 30.6651 376.027 30.3831C376.025 30.1015 376.084 29.823 376.201 29.5665C376.317 29.3101 376.488 29.0819 376.701 28.8976C376.898 28.6982 377.134 28.54 377.393 28.4324C377.653 28.3248 377.931 28.2699 378.212 28.2709Z" fill="white"/>
<path d="M382.071 32.1471C383.2 31.7265 384.235 31.0876 385.116 30.267C385.916 29.3066 386.514 28.1948 386.873 26.9983C387.233 25.8019 387.347 24.5452 387.208 23.3038V8.00781H390.975V20.8898H391.463V24.6732H391.068V24.9053C391.121 27.0725 390.565 29.2113 389.463 31.0794C388.637 32.3527 387.543 33.4301 386.255 34.2361C384.994 35.0817 383.568 35.6512 382.071 35.9072V32.1471Z" fill="white"/>
<path d="M391.184 20.89H396.275V8.008H399.994V24.6734H391.184V20.89ZM395.996 4.08537C395.778 3.71818 395.65 3.30448 395.624 2.87841C395.615 2.48973 395.686 2.10337 395.834 1.74379C395.982 1.3842 396.204 1.05923 396.484 0.789436C397.062 0.265402 397.819 -0.0170975 398.6 0.000267329H400.25V1.67145H398.832C397.925 1.67145 397.437 2.08924 397.437 2.92483C397.437 3.76042 397.925 4.08537 398.948 4.08537H400.924V5.75655H394.554V4.08537H395.996Z" fill="white"/>
<path d="M403.017 0H406.829V24.6731H403.11L403.017 0Z" fill="white"/>
<path d="M408.596 32.147C409.72 31.715 410.753 31.0774 411.642 30.2669C413.229 28.3114 413.973 25.8068 413.711 23.3036V8.00771H417.477V20.8897H417.965V24.6731H417.57V24.9052C417.623 27.0724 417.067 29.2112 415.966 31.0793C415.146 32.3579 414.05 33.4367 412.757 34.236C411.505 35.0811 410.086 35.6507 408.596 35.9071V32.147ZM415.57 -2.63146e-05C416.175 -0.00400966 416.762 0.210294 417.221 0.603455C417.43 0.79443 417.597 1.02773 417.709 1.28785C417.821 1.54798 417.877 1.82897 417.872 2.11216C417.874 2.39841 417.818 2.6821 417.706 2.94562C417.594 3.20915 417.429 3.44688 417.221 3.64407C416.79 4.05881 416.215 4.2916 415.617 4.29398C415.034 4.27985 414.479 4.04791 414.059 3.64407C413.845 3.4492 413.673 3.21293 413.553 2.9496C413.433 2.68626 413.368 2.40135 413.362 2.11216C413.329 1.57327 413.485 1.03976 413.804 0.603455C414.268 0.203092 414.864 -0.0118347 415.477 -2.63146e-05H415.57Z" fill="white"/>
<path d="M417.686 24.6731V20.8897H430.913V18.1044C430.955 17.0699 430.877 16.034 430.681 15.0174C430.492 14.0736 429.942 13.2407 429.147 12.6963C428.125 12.039 426.918 11.7296 425.706 11.8143H421.707V8.00774H425.078C426.152 7.96183 427.228 8.03187 428.286 8.21663C429.374 8.37572 430.397 8.83379 431.239 9.53965C432.364 10.3079 433.274 11.3513 433.88 12.5704C434.486 13.7895 434.77 15.1434 434.703 16.5029V20.8897H439.073V0H442.862V24.6731H417.686ZM426.357 28.2708C426.952 28.2669 427.526 28.4912 427.961 28.8975C428.174 29.0818 428.345 29.31 428.461 29.5665C428.577 29.8229 428.637 30.1015 428.635 30.383C428.635 30.6779 428.576 30.9698 428.46 31.2411C428.344 31.5124 428.174 31.7574 427.961 31.9613C427.516 32.3376 426.952 32.5441 426.368 32.5441C425.785 32.5441 425.221 32.3376 424.776 31.9613C424.569 31.7551 424.406 31.5086 424.298 31.2371C424.19 30.9656 424.139 30.6749 424.148 30.383C424.138 30.1067 424.186 29.8314 424.291 29.5753C424.395 29.3192 424.552 29.0882 424.753 28.8975C425.187 28.4912 425.761 28.2669 426.357 28.2708Z" fill="white"/>
<path d="M445.28 0H449V24.6731H445.28V0Z" fill="white"/>
</g>
<defs>
<clipPath id="clip0_671_15580">
<rect width="449" height="60" fill="white"/>
</clipPath>
</defs>
</svg>
