<svg width="19" height="23" viewBox="0 0 19 23" fill="none" xmlns="http://www.w3.org/2000/svg">
<g clip-path="url(#clip0_5062_338)">
<path d="M14.3744 12.3677C12.1486 13.7757 10.2236 14.6364 8.59485 15.0711L8.59043 13.8734L6.23415 14.5687L6.22972 15.4251C1.17548 15.4864 0.49215 10.2268 3.9442 6.74219C1.63215 11.9374 9.5115 11.0885 12.8994 11.5725C13.7928 11.7002 14.3744 11.9202 14.3744 12.3677Z" fill="#FECC0B"/>
<path d="M16.6139 15.7305V16.3636L15.1465 16.797L15.1475 16.1635L16.6139 15.7305Z" fill="#22297C"/>
<path d="M8.92904 17.7812V18.4746L8.59069 18.5744L7.42969 18.9177V18.2246L8.59069 17.8812L8.92904 17.7812Z" fill="#22297C"/>
<path d="M7.18685 18.3633V19.0565L6.23372 19.3388L5.6875 19.4998V18.8065L6.23372 18.6455L7.18685 18.3633Z" fill="#22297C"/>
<path d="M17.2763 12.8164V14.0983C17.2763 14.3398 17.0551 14.6439 16.5524 14.8197L15.0649 15.2589L14.512 15.4222V17.3515C14.4982 17.7271 14.1941 17.9149 13.9455 18.0095L12.252 18.5098L11.4923 18.7341C11.4923 18.7341 9.81745 19.23 9.80252 19.2331C9.4603 19.3057 9.32673 19.1423 9.30859 18.9882V17.6684L11.4924 17.0245V17.7987C11.4924 18.0313 12.2455 17.9754 12.2521 17.6534V14.3008L14.4756 13.6441V14.4941C14.6135 14.7468 15.1434 14.6754 15.1479 14.3309V13.4455L16.613 13.013L17.2763 12.8164Z" fill="#22297C"/>
<path d="M14.5408 12.1629C17.8579 9.69457 19.9588 5.00804 0.313477 3.25555C17.4897 -4.25665 23.4606 6.15311 14.5408 12.1629Z" fill="#22297C"/>
<path d="M11.4924 14.5263V16.0008C11.4924 16.1554 11.343 16.37 11.0634 16.4419L9.30859 16.9603L8.92823 17.0729L8.58988 17.1727L7.42887 17.5151L7.18672 17.587L6.23359 17.8682L5.68737 18.0302L5.61107 18.0527L4.0509 18.5131C3.69376 18.57 3.34435 18.4498 3.28906 18.1912V16.9495L5.61107 16.2638V17.2253C5.64977 17.3777 6.19821 17.3369 6.21922 17.0912L6.22917 15.4267L6.23359 14.5703L8.58988 13.875L8.5943 15.0727L8.59983 16.28C8.61089 16.4806 9.18365 16.3572 9.18144 16.1158L9.17701 15.2099L9.30859 15.1714L11.4924 14.5263Z" fill="#22297C"/>
<path d="M2.4248 21.6153L2.79135 20.5742H2.96948L3.33603 21.6153H3.18344L3.08481 21.3244H2.66939L2.57076 21.6153H2.4248ZM3.04478 21.2062L2.87682 20.7153L2.70964 21.2062H3.04478Z" fill="#22297C"/>
<path d="M4.41335 21.6153H3.7832V20.5742H3.92783V21.4923H4.41346V21.6153H4.41335Z" fill="#22297C"/>
<path d="M5.21614 21.6429C5.13929 21.6429 5.06886 21.6316 5.00517 21.6093C4.94137 21.5869 4.88664 21.5529 4.84086 21.5072C4.79508 21.4611 4.76003 21.404 4.73571 21.3358C4.71138 21.2678 4.69922 21.1896 4.69922 21.1009C4.69922 21.0171 4.71149 20.942 4.73604 20.8754C4.76059 20.809 4.79575 20.7523 4.84152 20.7051C4.88575 20.6594 4.94038 20.6242 5.00506 20.5996C5.06974 20.5749 5.14062 20.5625 5.21747 20.5625C5.25407 20.5625 5.28901 20.5651 5.32262 20.5701C5.35624 20.5754 5.3883 20.5822 5.41904 20.5912C5.44337 20.5981 5.47057 20.6078 5.50042 20.6202C5.53039 20.6326 5.5546 20.6432 5.57307 20.652V20.8192H5.56068C5.54266 20.8037 5.52408 20.7893 5.50484 20.7755C5.48561 20.7618 5.45852 20.7469 5.42346 20.7311C5.39427 20.7171 5.36066 20.7054 5.32262 20.6962C5.2847 20.6868 5.24379 20.6822 5.2 20.6822C5.09529 20.6822 5.01081 20.7199 4.94624 20.7955C4.88166 20.871 4.84949 20.9715 4.84949 21.0968C4.84949 21.1668 4.858 21.2279 4.87503 21.28C4.89206 21.3323 4.9166 21.3766 4.94878 21.4129C4.97996 21.4488 5.01756 21.4762 5.06167 21.4951C5.10579 21.514 5.15522 21.5234 5.21028 21.5234C5.25119 21.5234 5.29177 21.5207 5.33224 21.515C5.3726 21.5095 5.40666 21.5011 5.43441 21.4899V21.2208H5.1833V21.099H5.5776V21.5536C5.55914 21.5614 5.53437 21.5715 5.50352 21.5835C5.47256 21.5956 5.4437 21.6052 5.41694 21.6123C5.38134 21.6226 5.34927 21.6302 5.32052 21.6353C5.29177 21.6405 5.25705 21.6429 5.21614 21.6429Z" fill="#22297C"/>
<path d="M6.28026 20.6972V20.9824H6.77905V21.1054H6.28026V21.4922H6.81554V21.6152H6.13574V20.5742H6.34738L6.45706 20.3477L6.54641 20.4016L6.45518 20.5742H6.81554V20.6972H6.28026Z" fill="#22297C"/>
<path d="M7.97384 21.6153H7.7862L7.44155 21.2014H7.27646V21.6153H7.13184V20.5742H7.41225C7.4745 20.5742 7.5268 20.5773 7.56893 20.584C7.61105 20.5905 7.65108 20.6057 7.68901 20.6294C7.72693 20.6528 7.75701 20.6828 7.77912 20.7196C7.80124 20.7564 7.81241 20.8022 7.81241 20.8567C7.81241 20.9331 7.79217 20.997 7.75181 21.0482C7.71145 21.0994 7.65639 21.1375 7.58673 21.1622L7.97384 21.6153ZM7.66125 20.8671C7.66125 20.8368 7.65561 20.8099 7.64445 20.7863C7.63317 20.7628 7.61592 20.7436 7.59259 20.7286C7.57213 20.7157 7.54825 20.7064 7.52105 20.701C7.49374 20.6957 7.4599 20.693 7.41954 20.693H7.27646V21.086H7.40351C7.44486 21.086 7.48213 21.0825 7.51519 21.0754C7.54825 21.0683 7.57656 21.0539 7.59989 21.0321C7.62078 21.0124 7.63626 20.9892 7.64622 20.9622C7.65628 20.9351 7.66125 20.9035 7.66125 20.8671Z" fill="#22297C"/>
<path d="M8.42424 21.6153H8.28027V21.5091V20.6805L8.28083 20.5742H8.42601L8.4249 20.6805V21.5091L8.42424 21.6153Z" fill="#22297C"/>
<path d="M8.93066 21.6153V20.5742H9.61046V20.6972H9.07518V20.9825H9.57397V21.1054H9.07518V21.4922H9.61046V21.6152H8.93066V21.6153Z" fill="#22297C"/>
<path d="M11.5723 20.8286C11.5723 20.8805 11.562 20.93 11.5414 20.977C11.5207 21.0239 11.491 21.063 11.4522 21.0946C11.4283 21.114 11.4022 21.1319 11.3738 21.1485C11.3453 21.1649 11.3138 21.1788 11.2794 21.1904C11.2448 21.2019 11.2075 21.2109 11.167 21.2175C11.1266 21.224 11.0816 21.2271 11.0314 21.2271H10.8473V21.5919H10.4961V20.4766H11.0389C11.1195 20.4766 11.1892 20.4825 11.2478 20.4942C11.3064 20.5059 11.3594 20.5244 11.4069 20.5501C11.4595 20.578 11.5002 20.6152 11.5289 20.662C11.5579 20.7087 11.5723 20.7642 11.5723 20.8286ZM11.2118 20.8353C11.2118 20.8039 11.2023 20.7768 11.1835 20.7541C11.1647 20.7313 11.1423 20.7159 11.116 20.7072C11.0828 20.6958 11.0511 20.6892 11.0208 20.6873C10.9903 20.6855 10.9492 20.6848 10.8972 20.6848H10.8475V21.0188H10.8719C10.9051 21.0188 10.9364 21.0185 10.9658 21.018C10.9952 21.0175 11.0209 21.0157 11.0428 21.0127C11.0616 21.0102 11.0815 21.0054 11.1024 20.9981C11.1233 20.9908 11.1395 20.9827 11.1508 20.9737C11.1746 20.9552 11.1907 20.936 11.1992 20.916C11.2075 20.8963 11.2118 20.8692 11.2118 20.8353Z" fill="#22297C"/>
<path d="M13.1441 21.0383C13.1441 21.2186 13.0836 21.3603 12.9628 21.4637C12.8419 21.5671 12.6763 21.6186 12.4661 21.6186C12.2551 21.6186 12.0896 21.5665 11.9693 21.4618C11.8492 21.3571 11.7891 21.216 11.7891 21.0383C11.7891 20.8589 11.8492 20.7173 11.9693 20.6132C12.0896 20.509 12.2551 20.457 12.4661 20.457C12.6763 20.457 12.8419 20.5088 12.9628 20.6123C13.0836 20.7161 13.1441 20.858 13.1441 21.0383ZM12.7816 21.0374C12.7816 20.9711 12.773 20.9144 12.7559 20.8678C12.7387 20.8211 12.7157 20.7827 12.6868 20.7528C12.6568 20.7224 12.6229 20.7006 12.585 20.6873C12.547 20.6741 12.5078 20.6675 12.4672 20.6675C12.424 20.6675 12.3848 20.6736 12.3497 20.6858C12.3147 20.6981 12.2809 20.7199 12.2484 20.7513C12.2194 20.7803 12.1962 20.8188 12.1784 20.8667C12.1605 20.9145 12.1516 20.9717 12.1516 21.0383C12.1516 21.1066 12.16 21.1634 12.1769 21.2087C12.1939 21.2539 12.2171 21.2916 12.2465 21.3221C12.2765 21.3531 12.3106 21.3751 12.3489 21.3884C12.3871 21.4016 12.4264 21.4083 12.4672 21.4083C12.5084 21.4083 12.5485 21.4012 12.5873 21.3869C12.6262 21.3728 12.6596 21.3507 12.6878 21.3207C12.7179 21.2882 12.741 21.2505 12.7572 21.2073C12.7735 21.1639 12.7816 21.1075 12.7816 21.0374Z" fill="#22297C"/>
<path d="M13.8948 21.6167C13.7877 21.6167 13.6937 21.6086 13.6125 21.5921C13.5316 21.5756 13.4562 21.5551 13.3867 21.5307V21.2655H13.4186C13.4888 21.3128 13.5661 21.3493 13.6505 21.375C13.7351 21.4003 13.8171 21.4131 13.8966 21.4131C13.9167 21.4131 13.9431 21.4113 13.9761 21.4078C14.0089 21.4043 14.0352 21.3988 14.0553 21.3913C14.0798 21.3829 14.1005 21.371 14.1174 21.3557C14.1343 21.3405 14.1427 21.3204 14.1427 21.2954C14.1427 21.2674 14.129 21.2447 14.1013 21.2273C14.0738 21.2098 14.041 21.1971 14.0028 21.1891C13.9551 21.1791 13.9043 21.1696 13.8501 21.1606C13.7959 21.1516 13.7454 21.1406 13.6985 21.1276C13.5903 21.0971 13.5125 21.0562 13.4658 21.0047C13.4187 20.9533 13.3952 20.8889 13.3952 20.8114C13.3952 20.707 13.4506 20.6226 13.5614 20.558C13.6722 20.4931 13.8107 20.4609 13.9765 20.4609C14.0598 20.4609 14.1426 20.4677 14.2249 20.4811C14.3071 20.4945 14.3808 20.5129 14.446 20.5358V20.7905H14.415C14.3631 20.755 14.2996 20.725 14.2249 20.7006C14.15 20.6761 14.0733 20.6639 13.9943 20.6639C13.9637 20.6639 13.9361 20.6657 13.9117 20.6691C13.8873 20.6726 13.8616 20.6793 13.8346 20.6893C13.8129 20.6972 13.7938 20.7093 13.7778 20.7249C13.7619 20.7406 13.7539 20.7583 13.7539 20.7777C13.7539 20.8062 13.7665 20.8287 13.792 20.8455C13.8174 20.8622 13.8664 20.8773 13.9389 20.8907C13.9859 20.8993 14.0311 20.9075 14.0746 20.9154C14.1183 20.9234 14.1646 20.9345 14.2141 20.9485C14.3111 20.9765 14.3832 21.0139 14.4305 21.0612C14.4778 21.1084 14.5015 21.1707 14.5015 21.2481C14.5015 21.359 14.4469 21.448 14.3377 21.5154C14.2283 21.5829 14.0807 21.6167 13.8948 21.6167Z" fill="#22297C"/>
<path d="M15.0586 21.5918V20.6893H14.6455V20.4766H15.823V20.6893H15.4099V21.5918H15.0586Z" fill="#22297C"/>
<path d="M16.0781 21.5919V20.4766H17.0237V20.6893H16.4274V20.8847H16.9767V21.0974H16.4274V21.379H17.0237V21.5917H16.0781V21.5919Z" fill="#22297C"/>
</g>
<defs>
<clipPath id="clip0_5062_338">
<rect width="19" height="22" fill="white" transform="translate(0 0.214844)"/>
</clipPath>
</defs>
</svg>
