<svg width="378" height="108" viewBox="0 0 378 108" fill="none" xmlns="http://www.w3.org/2000/svg">
<g clip-path="url(#clip0_671_15562)">
<path d="M107.15 0H0V107.15H107.15V0Z" fill="#002A3A"/>
<path d="M15.3101 15.3101V30.6101H76.5401V61.2301H91.8401V15.3101H15.3101Z" fill="#FFA400"/>
<path d="M30.6101 76.5399V61.2299H61.2301V45.9199H15.3101V91.8399H91.8401V76.5399H30.6101Z" fill="#FFA400"/>
<path d="M200.92 46.24V23.12L194.36 34.55H187.08L180.52 23.12V46.24H169.16V0H180.33L190.72 17.77L201.11 0H212.28V46.24H200.92Z" fill="#002A3A"/>
<path d="M217.4 10.94V35.3C217.4 38.2015 218.553 40.9841 220.604 43.0357C222.656 45.0874 225.438 46.24 228.34 46.24H241.66C244.561 46.24 247.344 45.0874 249.396 43.0357C251.447 40.9841 252.6 38.2015 252.6 35.3V10.94C252.6 8.03853 251.447 5.2559 249.396 3.20425C247.344 1.1526 244.561 0 241.66 0L228.34 0C225.438 0 222.656 1.1526 220.604 3.20425C218.553 5.2559 217.4 8.03853 217.4 10.94ZM241.24 13.19V33C241.24 33.8142 240.916 34.5951 240.341 35.1708C239.765 35.7466 238.984 36.07 238.17 36.07H231.83C231.426 36.0713 231.027 35.9928 230.654 35.839C230.28 35.6852 229.941 35.4591 229.656 35.1738C229.371 34.8884 229.145 34.5495 228.991 34.1764C228.837 33.8033 228.759 33.4035 228.76 33V13.19C228.76 12.7873 228.839 12.3886 228.994 12.0167C229.148 11.6448 229.374 11.307 229.66 11.0227C229.945 10.7384 230.283 10.5132 230.656 10.3601C231.028 10.2069 231.427 10.1287 231.83 10.13H238.17C238.982 10.13 239.762 10.4521 240.337 11.0256C240.913 11.5992 241.237 12.3775 241.24 13.19Z" fill="#002A3A"/>
<path d="M281.56 0V33C281.56 33.8142 281.237 34.5951 280.661 35.1708C280.085 35.7466 279.304 36.07 278.49 36.07H272.15C271.747 36.0713 271.347 35.9928 270.974 35.839C270.601 35.6852 270.262 35.4591 269.976 35.1738C269.691 34.8884 269.465 34.5495 269.311 34.1764C269.157 33.8033 269.079 33.4035 269.08 33V0H257.72V35.3C257.72 38.2015 258.873 40.9841 260.924 43.0357C262.976 45.0874 265.759 46.24 268.66 46.24H282C284.898 46.2347 287.676 45.0798 289.723 43.0287C291.77 40.9776 292.92 38.198 292.92 35.3V0H281.56Z" fill="#002A3A"/>
<path d="M322.3 0H298V46.24H322.3C323.737 46.24 325.159 45.957 326.487 45.4072C327.814 44.8575 329.02 44.0516 330.036 43.0357C331.052 42.0199 331.857 40.8139 332.407 39.4866C332.957 38.1593 333.24 36.7367 333.24 35.3V10.94C333.24 8.03853 332.087 5.2559 330.036 3.20425C327.984 1.1526 325.201 0 322.3 0ZM321.88 33C321.88 33.8142 321.557 34.5951 320.981 35.1708C320.405 35.7466 319.624 36.07 318.81 36.07H309.4V10.07H318.81C319.622 10.07 320.402 10.3921 320.977 10.9656C321.553 11.5392 321.877 12.3175 321.88 13.13V33Z" fill="#002A3A"/>
<path d="M150.29 0H139.29L122.46 46.24H134.34L136.85 39.36H152.72L155.23 46.24H167.11L150.29 0ZM140.29 29.87L144.77 17.54L149.26 29.87H140.29Z" fill="#002A3A"/>
<path d="M361.07 0H350.07L333.24 46.24H345.12L347.63 39.36H363.5L366 46.24H377.88L361.07 0ZM351.07 29.87L355.56 17.54L360.04 29.87H351.07Z" fill="#002A3A"/>
<path d="M162.12 107.15V60.9102H173.48V107.15H162.12Z" fill="#002A3A"/>
<path d="M232.85 107.15V60.9102H264.29V72.2802H244.22V78.7702H261.36V88.9002H244.22V95.7902H264.29V107.15H232.85Z" fill="#002A3A"/>
<path d="M297.56 107.15L282.76 84.9302V107.15H271.39V60.9102H281.33L296.14 83.1402V60.9102H307.5V107.15H297.56Z" fill="#002A3A"/>
<path d="M336.37 72.2802V107.15H325V72.2802H312.62V60.9102H348.76V72.2802H336.37Z" fill="#002A3A"/>
<path d="M146.72 60.9102H133.4C130.498 60.9102 127.716 62.0628 125.664 64.1144C123.613 66.1661 122.46 68.9487 122.46 71.8502V96.2102C122.46 99.1116 123.613 101.894 125.664 103.946C127.716 105.998 130.498 107.15 133.4 107.15H146.72C149.621 107.15 152.404 105.998 154.456 103.946C156.507 101.894 157.66 99.1116 157.66 96.2102V90.9402H146.3V93.9402C146.297 94.7526 145.973 95.5309 145.397 96.1045C144.822 96.6781 144.042 97.0002 143.23 97.0002H136.89C136.087 97.0029 135.315 96.69 134.741 96.1287C134.166 95.5675 133.836 94.803 133.82 94.0002V74.1102C133.813 73.7033 133.888 73.2992 134.039 72.9215C134.191 72.5438 134.416 72.2 134.702 71.9104C134.988 71.6208 135.328 71.3912 135.704 71.2349C136.08 71.0786 136.483 70.9988 136.89 71.0002H143.23C144.044 71.0002 144.825 71.3236 145.401 71.8993C145.977 72.4751 146.3 73.2559 146.3 74.0702V77.0702H157.66V71.8502C157.66 68.9487 156.507 66.1661 154.456 64.1144C152.404 62.0628 149.621 60.9102 146.72 60.9102Z" fill="#002A3A"/>
<path d="M213.29 107.15V84.0002L206.73 95.4302H199.46L192.9 84.0002V107.12H181.53V60.9102H192.7L203.09 78.6802L213.48 60.9102H224.65V107.15H213.29Z" fill="#002A3A"/>
</g>
<defs>
<clipPath id="clip0_671_15562">
<rect width="377.89" height="107.15" fill="white"/>
</clipPath>
</defs>
</svg>
