<svg width="264" height="46" viewBox="0 0 264 46" fill="none" xmlns="http://www.w3.org/2000/svg">
<path fill-rule="evenodd" clip-rule="evenodd" d="M176.471 36.3111H191.108C199.405 36.3111 206.042 30.3062 206.042 23.0021C206.042 15.6923 199.405 9.68907 191.108 9.68907H176.471C168.17 9.68907 161.539 15.6923 161.539 23.0021C161.539 30.3062 168.175 36.3111 176.471 36.3111ZM214.192 23.0021C214.192 33.8497 205.372 42.6445 194.483 42.6445H173.094C162.212 42.6445 153.385 33.8497 153.385 23.0021C153.385 12.157 162.212 3.35596 173.094 3.35596H194.483C205.372 3.35571 214.192 12.157 214.192 23.0021Z" fill="#007A8A"/>
<path d="M84.8344 22.3598C88.9104 22.3598 92.0657 19.6226 92.0657 16.4187C92.0657 13.2041 88.9104 10.4764 84.8344 10.4764H63.2654V42.6442L54.4526 28.1858V3.35645H86.2764C93.9403 3.35645 100.205 9.17575 100.205 16.4224C100.205 23.6601 93.9403 29.4814 86.2764 29.4814H83.9191L98.8915 42.6442H87.2649L65.5054 22.3598H75.6459H84.8344ZM248.618 22.3598C252.7 22.3598 255.859 19.6226 255.859 16.4187C255.859 13.2041 252.7 10.4764 248.618 10.4764H227.057V42.6442H218.246V3.35645H250.06C257.729 3.35645 264 9.17575 264 16.4224C264 23.6601 257.729 29.4814 250.06 29.4814H247.713L262.677 42.6442H251.054L229.296 22.3598H239.439H248.618Z" fill="#007A8A"/>
<path fill-rule="evenodd" clip-rule="evenodd" d="M142.886 31.0179C142.886 28.7461 139.865 26.6057 135.663 26.6003H113.955V35.4305H135.649C139.857 35.4305 142.886 33.2877 142.886 31.0179ZM142.886 14.9744C142.886 12.7128 139.857 10.5647 135.649 10.5647H113.955V19.3995H135.649C139.865 19.394 142.886 17.2474 142.886 14.9744ZM150.222 14.9744C150.222 18.1086 148.749 20.9292 146.377 23.0019C148.749 25.0783 150.222 27.8959 150.222 31.0179C150.222 37.5149 143.905 42.6385 136.289 42.6385H105.145V3.35547H136.289C143.905 3.35547 150.222 8.48504 150.222 14.9744ZM56.362 42.6443H47.0857L42.6044 35.2536H34.1842L30.4311 27.4252H37.8639L28.1915 11.4606L9.26759 42.6443H0L23.8399 3.35647H32.5535L56.362 42.6443Z" fill="#007A8A"/>
<path fill-rule="evenodd" clip-rule="evenodd" d="M20.1968 27.4399H28.681L32.4194 35.2708H23.9481L20.1968 27.4399Z" fill="#FAC109"/>
</svg>
