<svg width="246" height="88" viewBox="0 0 246 88" fill="none" xmlns="http://www.w3.org/2000/svg">
<g clip-path="url(#clip0_671_15413)">
<path d="M102.828 14.9111H115.005C115.128 14.9111 115.128 15.0334 115.128 15.0334V67.2222C115.128 67.3445 115.005 67.3445 115.005 67.3445H102.828C102.705 67.3445 102.705 67.2222 102.705 67.2222V15.1556C102.705 15.0334 102.828 14.9111 102.828 14.9111Z" fill="black"/>
<path d="M98.8922 14.9111C99.0152 14.9111 99.0152 15.0334 99.0152 15.1556L83.0252 40.9445C82.9022 41.1889 82.9022 41.4334 83.0252 41.6778L99.0152 67.2222C99.1382 67.3445 99.0152 67.4667 99.0152 67.4667H84.0092C83.8862 67.4667 83.7632 67.3445 83.6402 67.2222L73.9232 51.4556C73.8002 51.3334 73.6772 51.3334 73.6772 51.4556L64.5752 67.2222C64.4522 67.3445 64.3292 67.4667 64.2062 67.4667H50.0612C49.9382 67.4667 49.8152 67.4667 49.9382 67.2222L66.5432 40.3334C66.6662 40.0889 66.6662 39.7222 66.5432 39.4778L52.0292 15.1556C52.0292 15.0334 52.0292 14.9111 52.1522 14.9111H66.6662C66.7892 14.9111 66.9122 15.0334 66.9122 15.1556L75.6452 29.8222C75.7682 29.9445 75.8912 29.9445 76.0142 29.8222L84.9932 15.1556C85.1162 15.0334 85.1162 14.9111 85.3622 14.9111H98.8922Z" fill="black"/>
<path d="M175.521 41.6778L202.458 0L246 67.4667H216.357L199.752 41.6778H175.521Z" fill="#FFCC33"/>
<path d="M45.51 14.9111H34.194C34.071 14.9111 33.948 15.0334 33.825 15.1556L0 67.3445V67.4667H13.776C13.899 67.4667 14.022 67.4667 14.022 67.3445L18.573 60.2556C18.696 60.1334 18.696 60.1334 18.819 60.1334H33.21C33.333 60.1334 33.333 60.2556 33.333 60.2556V67.2222C33.333 67.3445 33.333 67.4667 33.456 67.4667H45.51C45.633 67.4667 45.633 67.3445 45.633 67.2222V15.1556C45.633 15.0334 45.633 14.9111 45.51 14.9111ZM33.579 49.7445C33.579 49.8667 33.579 49.8667 33.579 49.7445L24.6 49.8667C24.6 49.8667 24.477 49.8667 24.6 49.7445L34.071 34.7111C34.071 34.5889 34.194 34.7111 34.194 34.7111L33.579 49.7445Z" fill="black"/>
<path d="M122.262 67.4668C122.139 67.4668 138.129 67.4668 138.129 67.4668C140.097 67.4668 142.188 67.1002 144.156 66.4891C151.536 64.1668 155.349 56.9557 155.349 50.7224C155.349 40.8224 147.6 37.4002 138.375 33.4891C136.776 32.7557 134.808 31.9002 134.808 29.7002C134.808 27.5002 136.899 26.4002 139.236 26.4002H151.782C151.905 26.4002 151.905 26.278 151.905 26.278V14.9113C151.905 14.7891 151.782 14.7891 151.782 14.7891H138.621C127.674 14.7891 121.155 21.2668 121.155 30.3113C121.155 38.2557 126.198 42.0446 133.578 44.9779C138.744 47.0557 142.065 47.9113 142.065 52.0668C142.065 54.2668 140.712 56.3446 138.006 56.3446C138.006 56.3446 122.262 56.3446 122.139 56.3446C122.016 56.3446 122.016 56.4668 122.016 56.4668C122.016 56.3446 122.016 67.3446 122.016 67.4668C122.139 67.4668 122.385 67.4668 122.262 67.4668Z" fill="black"/>
<path d="M162.237 14.6665C159.777 14.6665 157.809 16.6221 157.809 19.0665C157.809 21.5109 159.777 23.4665 162.237 23.4665C164.697 23.4665 166.665 21.5109 166.665 19.0665C166.665 16.6221 164.697 14.6665 162.237 14.6665ZM162.237 22.9776C160.023 22.9776 158.301 21.1443 158.301 19.0665C158.301 16.8665 160.146 15.1554 162.237 15.1554C164.451 15.1554 166.173 16.9887 166.173 19.0665C166.173 21.1443 164.451 22.9776 162.237 22.9776Z" fill="black"/>
<path d="M164.328 21.5113L163.344 19.189C163.959 19.0668 164.328 18.4557 164.328 17.8446C164.328 17.3557 164.082 16.989 163.836 16.7446C163.467 16.5002 163.098 16.3779 162.606 16.3779H160.638V21.5113H161.253V19.3113H162.729L163.713 21.5113H164.328ZM161.253 18.8224V16.989H162.483C162.729 16.989 162.975 16.989 163.221 17.1113C163.467 17.2335 163.59 17.4779 163.59 17.8446C163.59 18.089 163.467 18.3335 163.344 18.4557C163.098 18.7002 162.852 18.7002 162.483 18.7002L161.253 18.8224Z" fill="black"/>
<path d="M10.5781 87.0221C9.10214 87.7554 7.99514 87.9999 6.51914 87.9999C2.46014 87.9999 0.369141 85.4332 0.369141 82.7443C0.369141 80.0554 2.70614 77.4888 6.76514 77.4888C8.24114 77.4888 9.59414 77.7332 10.5781 78.3443V80.6665C9.47114 80.0554 8.24114 79.5665 6.88814 79.5665C4.67414 79.5665 3.07514 80.911 3.07514 82.6221C3.07514 84.4554 4.67414 85.7999 6.88814 85.7999C8.24114 85.7999 9.22514 85.4332 10.7011 84.6999V87.0221H10.5781Z" fill="black"/>
<path d="M25.8302 87.9999C21.8942 87.9999 19.8032 85.311 19.8032 82.7443C19.8032 80.2999 21.8942 77.4888 25.8302 77.4888C29.7662 77.4888 31.8572 80.2999 31.8572 82.7443C31.8572 85.4332 29.6432 87.9999 25.8302 87.9999ZM25.8302 79.6888C23.8622 79.6888 22.5092 80.911 22.5092 82.7443C22.5092 84.5777 23.8622 85.7999 25.8302 85.7999C27.7982 85.7999 29.1512 84.5777 29.1512 82.7443C29.1512 80.911 27.7982 79.6888 25.8302 79.6888Z" fill="black"/>
<path d="M50.0611 77.7334H52.3981V88.0001H49.8151V81.6445L46.9861 84.8223H46.6171L43.7881 81.6445V88.0001H41.2051V77.7334H43.5421L46.9861 81.5223L50.0611 77.7334Z" fill="black"/>
<path d="M71.832 77.7334H74.169V88.0001H71.586V81.6445L68.757 84.8223H68.388L65.559 81.6445V88.0001H62.73V77.7334H65.067L68.511 81.5223L71.832 77.7334Z" fill="black"/>
<path d="M94.2181 77.7332V83.4777C94.2181 86.8999 91.8811 87.9999 88.9291 87.9999C85.8541 87.9999 83.6401 86.6554 83.6401 83.4777V77.611H86.2231V83.4777C86.2231 84.9443 87.3301 85.7999 88.8061 85.7999C90.1591 85.7999 91.5121 85.0665 91.5121 83.2332V77.4888H94.2181V77.7332Z" fill="black"/>
<path d="M114.636 87.878H112.422L106.518 81.278V87.878H103.935V77.6113H106.395L112.053 83.8447V77.6113H114.636V87.878Z" fill="black"/>
<path d="M127.305 87.878H124.722V77.6113H127.305V87.878Z" fill="black"/>
<path d="M146.247 87.0221C144.771 87.7554 143.664 87.9999 142.065 87.9999C138.006 87.9999 135.915 85.4332 135.915 82.7443C135.915 80.0554 138.252 77.4888 142.311 77.4888C143.787 77.4888 145.14 77.7332 146.124 78.3443V80.6665C145.017 80.0554 143.787 79.5665 142.434 79.5665C140.22 79.5665 138.621 80.911 138.621 82.6221C138.621 84.4554 140.22 85.7999 142.434 85.7999C143.787 85.7999 144.771 85.4332 146.247 84.6999V87.0221Z" fill="black"/>
<path d="M165.189 87.878H162.36L161.499 85.8002H156.825L156.087 87.878H153.258L157.563 77.6113H160.638L165.189 87.878ZM159.039 80.0558L157.44 83.9669H160.638L159.039 80.0558Z" fill="black"/>
<path d="M180.687 79.5667H176.874V87.8778H174.291V79.5667H170.478V77.7334H180.81L180.687 79.5667Z" fill="black"/>
<path d="M191.388 87.878H188.805V77.6113H191.388V87.878Z" fill="black"/>
<path d="M205.41 87.9999C201.474 87.9999 199.383 85.311 199.383 82.7443C199.383 80.2999 201.474 77.4888 205.41 77.4888C209.346 77.4888 211.437 80.2999 211.437 82.7443C211.437 85.4332 209.223 87.9999 205.41 87.9999ZM205.41 79.6888C203.442 79.6888 202.089 80.911 202.089 82.7443C202.089 84.5777 203.442 85.7999 205.41 85.7999C207.378 85.7999 208.731 84.5777 208.731 82.7443C208.731 80.911 207.378 79.6888 205.41 79.6888Z" fill="black"/>
<path d="M230.01 87.878H227.796L221.892 81.278V87.878H219.309V77.6113H221.769L227.427 83.8447V77.6113H230.01V87.878Z" fill="black"/>
<path d="M245.385 80.2999C243.909 79.6888 242.925 79.4443 242.064 79.4443C241.08 79.4443 240.465 79.811 240.465 80.2999C240.465 81.8888 245.877 81.3999 245.877 84.9443C245.877 86.8999 244.155 87.9999 241.818 87.9999C239.973 87.9999 239.112 87.511 238.005 87.0221V84.8221C239.481 85.7999 240.465 86.1665 241.572 86.1665C242.556 86.1665 243.171 85.7999 243.171 85.1888C243.171 83.4777 237.759 84.0888 237.759 80.4221C237.759 78.711 239.358 77.4888 241.818 77.4888C243.048 77.4888 244.032 77.7332 245.385 78.2221V80.2999Z" fill="black"/>
<path d="M199.752 41.6777H195.324L212.052 67.4666H216.357L199.752 41.6777Z" fill="black"/>
<path d="M195.324 41.6777L212.052 67.4666H158.916L175.521 41.6777H195.324Z" fill="#FF0033"/>
</g>
<defs>
<clipPath id="clip0_671_15413">
<rect width="246" height="88" fill="white"/>
</clipPath>
</defs>
</svg>
