<svg width="205" height="219" viewBox="0 0 205 219" fill="none" xmlns="http://www.w3.org/2000/svg">
<path d="M41.3284 28.7383C34.2123 28.7383 28.7383 34.486 28.7383 41.6021V177.63C28.7383 184.746 34.486 190.494 41.3284 190.494H163.945C171.061 190.494 176.535 184.746 176.535 177.63V41.6021C176.535 34.486 170.788 28.7383 163.945 28.7383H41.3284Z" fill="#005568"/>
<path d="M86.2149 150.808C85.6675 150.808 84.5727 150.808 83.7516 150.808C83.7516 149.713 82.9305 148.892 81.562 148.892C80.4672 148.892 79.6461 149.439 79.6461 149.987C79.6461 150.808 80.4672 151.081 81.2883 151.355C81.562 151.355 82.3831 151.629 82.9305 151.903C84.2989 152.176 86.4886 152.724 86.4886 155.187C86.4886 157.103 85.12 159.019 81.562 159.019C78.2776 159.019 76.6354 157.377 76.6354 154.913C77.1828 154.913 78.5513 154.913 79.0987 154.913C79.0987 156.008 79.9198 157.103 81.562 157.103C82.6568 157.103 83.7516 156.555 83.7516 155.734C83.7516 154.64 82.3831 154.366 81.2883 154.092C80.7409 153.818 80.1935 153.819 79.6461 153.545C78.0039 152.997 76.6354 152.176 76.6354 150.26C76.6354 148.071 78.5513 146.976 81.0146 146.976C84.8464 146.976 86.2149 148.892 86.2149 150.808ZM90.5941 155.461C90.5941 156.282 91.1414 157.65 92.5099 157.65C93.6047 157.65 94.1521 156.829 94.4258 156.556H96.8891C96.8891 157.103 96.3417 159.292 92.7836 159.292C90.0466 159.292 88.1308 157.65 88.1308 154.913C88.1308 152.176 90.0466 150.534 92.7836 150.534C95.2469 150.534 97.1628 152.176 97.1628 154.913C97.1628 155.187 97.1628 155.187 97.1628 155.461H90.5941ZM94.6995 153.819C94.6995 152.997 94.1521 151.903 92.7836 151.903C91.6888 151.903 90.8678 152.724 90.8678 153.819H94.6995ZM98.805 159.019V147.25H101.268V159.019H98.805ZM105.374 155.461C105.374 156.282 105.921 157.65 107.29 157.65C108.384 157.65 108.932 156.829 109.206 156.556H111.669C111.669 157.103 111.121 159.292 107.563 159.292C104.826 159.292 102.91 157.65 102.91 154.913C102.91 152.176 104.826 150.534 107.563 150.534C110.027 150.534 111.942 152.176 111.942 154.913C111.942 155.187 111.942 155.187 111.942 155.461H105.374ZM109.479 153.819C109.479 152.997 108.932 151.903 107.563 151.903C106.469 151.903 105.647 152.724 105.647 153.819H109.479ZM122.069 156.008C122.069 157.377 120.975 159.292 117.964 159.292C115.227 159.292 113.311 157.65 113.311 154.913C113.311 152.176 115.227 150.534 117.964 150.534C120.975 150.534 122.069 152.45 122.069 153.819H119.606C119.332 152.997 118.785 152.45 117.964 152.45C116.322 152.45 116.048 154.092 116.048 155.187C116.048 156.829 116.595 157.924 117.964 157.924C119.059 157.924 119.606 157.103 119.606 156.282H122.069V156.008ZM128.638 157.377V159.019C128.638 159.019 128.091 159.019 127.543 159.019C125.627 159.019 124.533 157.65 124.533 156.282C124.533 156.282 124.533 152.176 124.533 151.903H123.164V150.534H124.533V148.071H126.996V150.534H128.638V152.176H126.996C126.996 152.45 126.996 156.282 126.996 156.282C126.996 157.103 127.543 157.377 128.091 157.377C128.364 157.65 128.638 157.377 128.638 157.377ZM76.6354 173.798C76.6354 175.441 75.267 178.725 71.4352 178.725C68.1508 178.725 65.6875 176.262 65.6875 172.704C65.6875 169.146 67.8771 166.682 71.4352 166.682C75.267 166.682 76.3617 169.419 76.3617 170.788H73.8984C73.6247 169.967 73.0774 168.598 71.4352 168.598C69.5193 168.598 68.1508 170.24 68.1508 172.704C68.1508 175.441 69.5193 176.809 71.4352 176.809C73.3511 176.809 73.8985 175.167 74.1722 174.072H76.6354V173.798ZM80.7409 174.62C80.7409 175.441 81.2883 176.809 82.6568 176.809C83.7516 176.809 84.299 175.988 84.5727 175.714H87.0359C87.0359 176.262 86.4885 178.451 82.9305 178.451C80.1935 178.451 78.2776 176.809 78.2776 174.072C78.2776 171.335 80.1935 169.693 82.9305 169.693C85.3937 169.693 87.3096 171.335 87.3096 174.072C87.3096 174.346 87.3096 174.346 87.3096 174.62H80.7409ZM84.8464 172.977C84.8464 172.156 84.2989 171.335 82.9305 171.335C81.8357 171.335 81.0146 172.156 81.0146 172.977H84.8464ZM91.6888 170.788C91.6888 170.514 92.5099 169.419 94.1521 169.419C94.4258 169.419 94.9732 169.419 94.9732 169.419C94.9732 169.693 94.9732 171.335 94.9732 171.609C94.9732 171.609 94.4258 171.609 93.8784 171.609C92.5099 171.609 91.6888 172.43 91.6888 174.072C91.6888 174.072 91.6888 174.893 91.6888 178.178H89.2256C89.2256 173.251 89.2256 172.156 89.2256 172.156C89.2256 170.788 89.2256 169.693 89.2256 169.693C89.2256 169.693 89.2255 169.693 91.4151 169.693L91.6888 170.788ZM101.816 176.535V178.178C101.816 178.178 101.268 178.178 100.447 178.178C98.5313 178.178 97.4365 176.809 97.4365 175.441C97.4365 175.441 97.4365 171.335 97.4365 171.061H96.068V169.693H97.4365V167.23H99.8998V169.693H101.542V171.335H99.8998C99.8998 171.609 99.8998 175.441 99.8998 175.441C99.8998 176.262 100.447 176.535 100.995 176.535C101.542 176.809 101.816 176.535 101.816 176.535ZM106.469 168.598H104.005V166.409H106.469V168.598ZM104.005 178.178V169.693H106.469V178.178H104.005ZM112.216 169.146C112.216 169.146 112.216 169.146 112.216 169.693H114.132V171.335H112.216C112.216 171.335 112.216 174.072 112.216 178.178H109.753C109.753 174.072 109.753 171.335 109.753 171.335H108.658V169.693H109.753C109.753 169.146 109.753 168.872 109.753 168.872C109.753 167.503 110.574 166.135 112.764 166.135C113.585 166.135 114.132 166.135 114.132 166.135C114.132 166.409 114.132 167.777 114.132 167.777C114.132 167.777 113.585 167.777 113.311 167.777C113.037 168.051 112.216 168.324 112.216 169.146ZM118.511 168.598H116.048V166.409H118.511V168.598ZM116.048 178.178V169.693H118.511V178.178H116.048ZM122.89 174.62C122.89 175.441 123.438 176.809 124.806 176.809C125.901 176.809 126.448 175.988 126.722 175.714H129.186C129.186 176.262 128.638 178.451 125.08 178.451C122.343 178.451 120.427 176.809 120.427 174.072C120.427 171.335 122.343 169.693 125.08 169.693C127.543 169.693 129.459 171.335 129.459 174.072C129.459 174.346 129.459 174.346 129.459 174.62H122.89ZM126.722 172.977C126.722 172.156 126.175 171.335 124.806 171.335C123.712 171.335 122.89 172.156 122.89 172.977H126.722ZM134.386 169.419C136.028 169.419 136.575 170.24 136.849 170.514V166.409H139.312C139.312 174.072 139.312 175.441 139.312 175.441C139.312 176.535 139.312 177.904 139.312 178.178C139.312 178.178 139.039 178.178 136.849 178.178V177.083C136.575 177.357 135.754 178.451 134.112 178.451C131.649 178.451 130.28 176.535 130.28 174.072C130.554 171.335 132.196 169.419 134.386 169.419ZM135.207 171.335C133.838 171.335 133.291 172.704 133.291 174.072C133.291 175.441 133.838 176.809 135.207 176.809C136.575 176.809 137.123 175.714 137.123 174.072C137.123 172.704 136.575 171.335 135.207 171.335Z" fill="white"/>
<path d="M32.2959 135.206V41.6017C32.2959 36.4014 36.4014 32.2959 41.328 32.2959H163.945C168.871 32.2959 172.977 36.4014 172.977 41.6017V135.206H32.2959Z" fill="white"/>
<path d="M55.0135 66.234C55.0135 67.6025 53.9186 68.4236 52.8238 68.4236C51.4553 68.4236 50.6343 67.3288 50.6343 66.234V61.5811C50.6343 60.2127 51.729 59.3916 52.8238 59.3916C54.1923 59.3916 55.0135 60.4864 55.0135 61.5811V66.234ZM67.6036 55.2861C67.6036 53.9176 66.5088 53.0965 65.414 53.0965C64.0455 53.0965 63.2244 54.1913 63.2244 55.2861V66.234C63.2244 67.6025 64.3192 68.4236 65.414 68.4236C66.7825 68.4236 67.6036 67.3288 67.6036 66.234V55.2861ZM79.92 46.8015C79.92 45.433 78.8252 44.6118 77.7304 44.6118C76.3619 44.6118 75.5408 45.7067 75.5408 46.8015V70.8869C75.5408 72.2554 76.6356 73.0765 77.7304 73.0765C79.0989 73.0765 79.92 71.9817 79.92 70.8869V46.8015ZM92.5101 55.2861C92.5101 53.9176 91.4153 53.0965 90.3205 53.0965C88.952 53.0965 88.131 54.1913 88.131 55.2861V66.234C88.131 67.6025 89.2257 68.4236 90.3205 68.4236C91.689 68.4236 92.5101 67.3288 92.5101 66.234V55.2861ZM104.827 61.5811C104.827 60.2127 103.732 59.3916 102.637 59.3916C101.268 59.3916 100.447 60.4864 100.447 61.5811V66.234C100.447 67.6025 101.542 68.4236 102.637 68.4236C104.005 68.4236 104.827 67.3288 104.827 66.234V61.5811ZM117.417 55.2861C117.417 53.9176 116.322 53.0965 115.227 53.0965C113.859 53.0965 113.037 54.1913 113.037 55.2861V66.234C113.037 67.6025 114.132 68.4236 115.227 68.4236C116.596 68.4236 117.417 67.3288 117.417 66.234V55.2861ZM129.733 46.8015C129.733 45.433 128.638 44.6118 127.544 44.6118C126.175 44.6118 125.354 45.7067 125.354 46.8015V70.8869C125.354 72.2554 126.449 73.0765 127.544 73.0765C128.912 73.0765 129.733 71.9817 129.733 70.8869V46.8015ZM142.323 55.2861C142.323 53.9176 141.228 53.0965 140.134 53.0965C138.765 53.0965 137.944 54.1913 137.944 55.2861V66.234C137.944 67.6025 139.039 68.4236 140.134 68.4236C141.502 68.4236 142.323 67.3288 142.323 66.234V55.2861ZM154.913 61.5811C154.913 60.2127 153.819 59.3916 152.724 59.3916C151.355 59.3916 150.534 60.4864 150.534 61.5811V66.234C150.534 67.6025 151.629 68.4236 152.724 68.4236C154.092 68.4236 154.913 67.3288 154.913 66.234V61.5811Z" fill="#005568"/>
<path d="M84.5728 99.0785H79.92V81.0144H84.5728V99.0785ZM121.522 81.2882C120.975 81.2882 119.606 80.7407 117.417 80.7407C111.943 80.7407 107.837 84.8462 107.837 90.0464C107.837 95.7941 112.49 99.3522 117.417 99.3522C119.332 99.3522 120.975 98.8048 121.522 98.8048V93.8782C121.248 93.8782 119.88 94.9731 117.69 94.9731C114.68 94.9731 112.764 92.7834 112.764 90.0464C112.764 87.3095 114.953 85.1199 117.69 85.1199C119.88 85.1199 121.248 85.941 121.522 86.2147V81.2882ZM73.6249 81.2882C73.0775 81.2882 71.709 80.7407 69.5194 80.7407C64.0454 80.7407 59.9399 84.8462 59.9399 90.0464C59.9399 95.7941 64.3191 99.3522 69.5194 99.3522C71.4353 99.3522 73.0775 98.8048 73.6249 98.8048V93.8782C73.3512 93.8782 71.9827 94.9731 69.7931 94.9731C66.7824 94.9731 64.8666 92.7834 64.8666 90.0464C64.8666 87.3095 66.7824 85.1199 69.7931 85.1199C71.9827 85.1199 73.3512 85.941 73.6249 86.2147V81.2882ZM135.754 80.7407C130.28 80.7407 126.175 84.8462 126.175 90.0464C126.175 95.2467 130.28 99.3522 135.754 99.3522C141.228 99.3522 145.334 95.2467 145.334 90.0464C145.334 84.8462 141.502 80.7407 135.754 80.7407ZM140.681 90.0464C140.681 92.7834 138.765 94.6994 136.028 94.6994C133.291 94.6994 131.375 92.5097 131.375 90.0464C131.375 87.3095 133.291 85.3936 136.028 85.3936C138.491 85.3936 140.681 87.3095 140.681 90.0464ZM101.816 81.2882C101.816 81.2882 99.6262 80.7407 97.4366 80.7407C93.3312 80.7407 90.5942 82.9303 90.5942 86.4884C90.5942 89.4991 92.7837 90.8676 95.247 91.6887C95.5207 91.6887 96.0682 91.9624 96.3419 91.9624C97.4367 92.2361 98.2577 92.7834 98.2577 93.8782C98.2577 94.973 97.163 95.5204 94.9734 95.5204C93.0575 95.5204 91.1416 94.9731 90.5942 94.9731V99.0785C90.8679 99.0785 93.0574 99.6259 95.5207 99.6259C99.0788 99.6259 102.911 97.9837 102.911 93.6046C102.911 91.415 101.542 89.499 98.5314 88.4042L97.1629 88.1306C96.3418 87.8569 94.9734 87.5832 94.9734 86.4884C94.9734 85.6673 96.0682 85.1199 97.7104 85.1199C99.3525 85.1199 101.268 85.6673 101.268 85.6673V81.2882H101.816ZM150.26 94.6994V95.2467H151.629V99.0785H152.176V95.2467H153.545V94.6994H150.26ZM154.092 99.0785H154.64V95.5204L156.008 99.0785H156.555L157.924 95.5204V99.0785H158.471V94.6994H157.65L156.282 98.2574L154.913 94.6994H154.092V99.0785Z" fill="#C41230"/>
<path d="M93.8782 114.952C93.8782 113.31 93.0572 111.12 89.4991 111.12C89.4991 111.12 88.1306 111.12 84.0252 111.12V123.163H86.7621V118.784H89.2254L91.415 123.163H94.152C91.9624 119.057 91.6887 118.236 91.6887 118.236C91.9624 118.236 93.8782 117.415 93.8782 114.952ZM88.9517 116.594C88.9517 116.594 87.5832 116.594 86.4884 116.594V113.31C87.3095 113.31 88.9517 113.31 88.9517 113.31C90.5939 113.31 91.1413 114.131 91.1413 114.952C91.1413 116.047 90.3202 116.594 88.9517 116.594ZM65.1399 111.12C65.1399 111.12 63.7715 111.12 60.2134 111.12V123.163H62.9504V118.784H65.1399C68.4243 118.784 70.0665 117.141 70.0665 114.952C70.0665 113.31 68.9717 111.12 65.1399 111.12ZM65.1399 116.594C65.1399 116.594 63.7715 116.594 62.9504 116.594V113.31C63.4978 113.31 65.1399 113.31 65.1399 113.31C66.7821 113.31 67.3296 113.857 67.3296 114.952C67.3296 116.047 66.7821 116.594 65.1399 116.594ZM74.7194 111.12L70.0665 123.163H72.8035L73.6246 120.426H78.0038L78.8248 123.163H81.5618L77.1827 111.12H74.7194ZM74.4457 118.51L76.0878 114.131L77.7301 118.51H74.4457ZM142.323 118.236C142.87 117.963 144.512 117.415 144.512 114.952C144.512 113.31 143.691 111.12 140.133 111.12C140.133 111.12 138.765 111.12 134.659 111.12V123.163H137.396V118.784H139.86L142.049 123.163H144.786C142.87 119.057 142.323 118.236 142.323 118.236ZM139.86 116.868C139.86 116.868 138.491 116.868 137.396 116.868V113.583C138.217 113.583 139.86 113.583 139.86 113.583C141.502 113.583 142.049 114.404 142.049 115.226C142.049 116.047 141.228 116.868 139.86 116.868ZM95.7942 111.12H105.647V113.31H102.089V123.163H99.3522V113.31H95.7942V111.12ZM115.774 111.12H118.237V123.163H115.5L110.574 115.226V123.163H108.111V111.12H110.848L115.774 119.057V111.12ZM125.354 120.973H130.827V123.163H122.617V111.12H130.554V113.31H125.08V115.773H130.006V117.963H125.08V120.973H125.354Z" fill="#005568"/>
</svg>
