<svg width="181" height="93" viewBox="0 0 181 93" fill="none" xmlns="http://www.w3.org/2000/svg">
<path d="M7.35029 36.292C7.35029 38.589 5.51264 39.9671 3.67507 39.9671C1.37812 39.9671 0 38.1296 0 36.292V28.4823C0 26.1854 1.83751 24.8072 3.67507 24.8072C5.97203 24.8072 7.35029 26.6447 7.35029 28.4823V36.292ZM28.4823 17.9164C28.4823 15.6194 26.6447 14.2412 24.8071 14.2412C22.5101 14.2412 21.132 16.0788 21.132 17.9164V36.292C21.132 38.589 22.9695 39.9671 24.8071 39.9671C27.1041 39.9671 28.4823 38.1296 28.4823 36.292V17.9164ZM49.1549 3.67521C49.1549 1.37826 47.3173 0 45.4797 0C43.1827 0 41.8046 1.83765 41.8046 3.67521V44.1016C41.8046 46.3985 43.6421 47.7768 45.4797 47.7768C47.7767 47.7768 49.1549 45.9391 49.1549 44.1016V3.67521ZM70.2868 17.9164C70.2868 15.6194 68.4493 14.2412 66.6117 14.2412C64.3148 14.2412 62.9367 16.0788 62.9367 17.9164V36.292C62.9367 38.589 64.7742 39.9671 66.6117 39.9671C68.9087 39.9671 70.2868 38.1296 70.2868 36.292V17.9164ZM90.9594 28.4823C90.9594 26.1854 89.1219 24.8072 87.2843 24.8072C84.9874 24.8072 83.6093 26.6447 83.6093 28.4823V36.292C83.6093 38.589 85.4468 39.9671 87.2843 39.9671C89.5813 39.9671 90.9594 38.1296 90.9594 36.292V28.4823ZM112.091 17.9164C112.091 15.6194 110.254 14.2412 108.416 14.2412C106.119 14.2412 104.741 16.0788 104.741 17.9164V36.292C104.741 38.589 106.579 39.9671 108.416 39.9671C110.713 39.9671 112.091 38.1296 112.091 36.292V17.9164ZM132.764 3.67521C132.764 1.37826 130.927 0 129.089 0C126.792 0 125.414 1.83765 125.414 3.67521V44.1016C125.414 46.3985 127.251 47.7768 129.089 47.7768C131.386 47.7768 132.764 45.9391 132.764 44.1016V3.67521ZM153.896 17.9164C153.896 15.6194 152.059 14.2412 150.221 14.2412C147.924 14.2412 146.546 16.0788 146.546 17.9164V36.292C146.546 38.589 148.383 39.9671 150.221 39.9671C152.518 39.9671 153.896 38.1296 153.896 36.292V17.9164ZM175.028 28.4823C175.028 26.1854 173.19 24.8072 171.353 24.8072C169.056 24.8072 167.678 26.6447 167.678 28.4823V36.292C167.678 38.589 169.515 39.9671 171.353 39.9671C173.65 39.9671 175.028 38.1296 175.028 36.292V28.4823Z" fill="#005568"/>
<path d="M56.9643 91.4204H49.1548V61.1005H56.9643V91.4204ZM118.982 61.56C118.063 61.56 115.766 60.6411 112.091 60.6411C102.903 60.6411 96.0126 67.532 96.0126 76.2604C96.0126 85.9076 103.822 91.8797 112.091 91.8797C115.307 91.8797 118.063 90.961 118.982 90.961V82.6918C118.523 82.6918 116.226 84.5295 112.551 84.5295C107.497 84.5295 104.282 80.8543 104.282 76.2604C104.282 71.6665 107.957 67.9914 112.551 67.9914C116.226 67.9914 118.523 69.3695 118.982 69.8289V61.56ZM38.5887 61.56C37.6699 61.56 35.373 60.6411 31.6978 60.6411C22.51 60.6411 15.6191 67.532 15.6191 76.2604C15.6191 85.9076 22.9694 91.8797 31.6978 91.8797C34.9136 91.8797 37.6699 90.961 38.5887 90.961V82.6918C38.1293 82.6918 35.8324 84.5295 32.1573 84.5295C27.1039 84.5295 23.8883 80.8543 23.8883 76.2604C23.8883 71.6665 27.1039 67.9914 32.1573 67.9914C35.8324 67.9914 38.1293 69.3695 38.5887 69.8289V61.56ZM142.871 60.6411C133.683 60.6411 126.792 67.532 126.792 76.2604C126.792 84.9888 133.683 91.8797 142.871 91.8797C152.058 91.8797 158.949 84.9888 158.949 76.2604C158.949 67.532 152.518 60.6411 142.871 60.6411ZM151.14 76.2604C151.14 80.8543 147.924 84.0701 143.33 84.0701C138.736 84.0701 135.52 80.3949 135.52 76.2604C135.52 71.6665 138.736 68.4508 143.33 68.4508C147.465 68.4508 151.14 71.6665 151.14 76.2604ZM85.9061 61.56C85.9061 61.56 82.2309 60.6411 78.5558 60.6411C71.6649 60.6411 67.071 64.3163 67.071 70.2884C67.071 75.3417 70.7461 77.6386 74.8806 79.0168C75.34 79.0168 76.2589 79.4762 76.7183 79.4762C78.5558 79.9356 79.9339 80.8543 79.9339 82.6918C79.9339 84.5294 78.0964 85.4482 74.4213 85.4482C71.2056 85.4482 67.9898 84.5295 67.071 84.5295V91.4204C67.5304 91.4204 71.2055 92.3391 75.34 92.3391C81.3121 92.3391 87.7436 89.5828 87.7436 82.2326C87.7436 78.5574 85.4466 75.3416 80.3933 73.504L78.0964 73.0447C76.7182 72.5853 74.4213 72.1259 74.4213 70.2884C74.4213 68.9102 76.2589 67.9914 79.0152 67.9914C81.7716 67.9914 84.9872 68.9101 84.9872 68.9101V61.56H85.9061ZM167.218 84.0701V84.9888H169.515V91.4204H170.434V84.9888H172.731V84.0701H167.218ZM173.65 91.4204H174.569V85.4482L176.865 91.4204H177.784L180.081 85.4482V91.4204H181V84.0701H179.622L177.325 90.0421L175.028 84.0701H173.65V91.4204Z" fill="#C41230"/>
</svg>
