<svg width="328" height="36" viewBox="0 0 328 36" fill="none" xmlns="http://www.w3.org/2000/svg">
<path d="M288.189 34.3277H326.252V8.69287L288.189 34.3277ZM305.025 8.69287L282.619 34.3277L310.852 15.3327L305.025 8.69287ZM282.617 8.69287V29.6255L294.147 16.4415L282.617 8.69287Z" fill="#FE3D40"/>
<path d="M69.5769 10.8763V8.69311H63.4281V34.3279H69.6282V20.2609C69.6282 16.393 71.8628 13.8938 75.321 13.8938C76.6947 13.8938 78.215 14.2152 79.248 14.7136L80.717 8.67686C79.5044 8.24347 78.2168 8.04123 76.5885 8.04123C73.6432 8.04123 71.2382 9.01635 69.5769 10.8763ZM142.594 29.1797C138.293 29.1797 135.289 26.0268 135.289 21.5123C135.289 16.9943 138.293 13.8414 142.594 13.8414C146.896 13.8414 149.896 16.9943 149.896 21.5123C149.896 26.0268 146.896 29.1797 142.594 29.1797ZM149.554 11.3729C147.876 9.29624 145.544 8.04123 141.934 8.04123C134.52 8.04123 128.931 13.8324 128.931 21.5123C128.931 29.1887 134.52 34.9798 141.934 34.9798C145.526 34.9798 147.849 33.7483 149.554 31.5886V34.3279H155.756V8.69311H149.554V11.3729ZM198.722 29.1797C194.424 29.1797 191.421 26.0268 191.421 21.5123C191.421 16.9943 194.424 13.8414 198.722 13.8414C203.023 13.8414 206.027 16.9943 206.027 21.5123C206.027 26.0268 203.023 29.1797 198.722 29.1797ZM205.683 11.3729C204.005 9.29624 201.671 8.04123 198.061 8.04123C190.652 8.04123 185.06 13.8324 185.06 21.5123C185.06 29.1887 190.652 34.9798 198.061 34.9798C201.653 34.9798 203.976 33.7483 205.683 31.5886V34.3279H211.885V8.69311H205.683V11.3729ZM260.156 29.1797C255.857 29.1797 252.853 26.0268 252.853 21.5123C252.853 16.9943 255.857 13.8414 260.156 13.8414C264.456 13.8414 267.46 16.9943 267.46 21.5123C267.46 26.0268 264.456 29.1797 260.156 29.1797ZM267.114 11.3729C265.438 9.29624 263.106 8.04123 259.494 8.04123C252.084 8.04123 246.493 13.8324 246.493 21.5123C246.493 29.1887 252.084 34.9798 259.494 34.9798C263.088 34.9798 265.409 33.7483 267.114 31.5886V34.3279H273.316V8.69311H267.114V11.3729ZM230.522 29.1797C226.221 29.1797 223.217 26.0268 223.217 21.5123C223.217 16.9961 226.221 13.8414 230.522 13.8414C234.82 13.8414 237.824 16.9961 237.824 21.5123C237.824 26.0268 234.82 29.1797 230.522 29.1797ZM231.183 8.04123C228.111 8.04123 225.505 9.0958 223.587 11.102V1.01855H217.387V34.3279H223.587V31.5904C225.281 33.8187 227.946 34.9834 231.183 34.9834C238.594 34.9834 244.18 29.1905 244.18 21.5123C244.18 13.8342 238.594 8.04123 231.183 8.04123ZM185.976 8.69492H178.116L169.76 18.1825H167.478V1.01855H161.251V34.3261H167.478V23.7984H169.727L178.162 34.3261H186.029L175.061 20.7918L185.976 8.69492ZM115.128 8.04303C112.19 8.04303 108.254 8.7834 105.871 12.2252C103.975 9.55989 100.821 8.04303 97.123 8.04303C94.8829 8.04303 91.868 8.5956 89.6884 11.0966V8.69311H83.5139V34.3279H89.7415V20.1562C89.7415 15.8314 92.8644 13.8938 95.9599 13.8938C99.4932 13.8938 101.519 16.1582 101.519 20.1038V34.3298H107.745V20.1544C107.745 15.8314 110.869 13.8938 113.965 13.8938C117.498 13.8938 119.524 16.1582 119.524 20.1038V34.3298H125.75V18.3053C125.75 12.2613 121.383 8.04123 115.126 8.04123M45.8883 29.1797C41.4887 29.1797 38.2962 25.9545 38.2962 21.5123C38.2962 17.0683 41.4887 13.8414 45.8883 13.8414C50.3044 13.8414 53.5098 17.0683 53.5098 21.5123C53.5098 25.9545 50.3026 29.1797 45.8883 29.1797ZM45.8901 8.04123C37.9353 8.04123 31.9367 13.8324 31.9367 21.5123C31.9367 29.1887 37.9353 34.9798 45.8883 34.9798C53.8578 34.9798 59.8692 29.1887 59.8692 21.5123C59.8692 13.8324 53.8596 8.04123 45.8901 8.04123ZM15.4079 29.1797C11.1091 29.1797 8.10702 26.0268 8.10702 21.5123C8.10702 16.9961 11.1109 13.8414 15.4098 13.8414C19.7086 13.8414 22.7125 16.9961 22.7125 21.5123C22.7125 26.0268 19.7068 29.1797 15.4079 29.1797ZM22.37 11.1472C20.4468 9.11025 17.8312 8.04123 14.7486 8.04123C7.33407 8.04123 1.74756 13.8324 1.74756 21.5123C1.74756 29.1887 7.3359 34.9816 14.7486 34.9816C18.595 34.9816 20.5475 33.6941 22.3682 31.5868V34.3279H28.5701V1.01855H22.37V11.1472Z" fill="#003596"/>
</svg>
