<svg width="213" height="119" viewBox="0 0 213 119" fill="none" xmlns="http://www.w3.org/2000/svg">
<g clip-path="url(#clip0_671_15407)">
<path d="M187.757 89.4102L187.329 86.5273L186.888 83.6443L186.488 80.8302L186.088 78.0032L185.715 75.8652L185.343 73.7272L184.515 68.7473L183.674 63.7682C182.86 58.1122 182.557 55.5742 182.419 54.3742C182.408 53.8933 182.333 53.4159 182.198 52.9543V52.9402C182.161 52.6963 182.066 52.4646 181.922 52.2643C181.743 52.0713 181.508 52.3472 181.37 54.3882C181.325 55.1806 181.225 55.9688 181.07 56.7473C180.932 57.4473 180.739 58.3332 180.408 60.1542C180.077 61.9752 179.594 64.7752 178.808 69.3542C178.022 73.9332 176.987 80.3062 175.539 89.2542L177.056 89.2682H183.356L185.121 89.2823L186.445 89.3372L187.757 89.4102ZM191.219 29.2842L212.599 118.859H193.012L189.84 103.6L172.377 103.628L169.453 118.511H151.37L172.06 29.2812L191.219 29.2842Z" fill="#0090DF"/>
<path d="M212.199 0V22.745L23.642 22.566L23.449 47.215L44.829 47.105V70.153L23.794 70.264L23.615 96.016H47.864L48.015 118.516H0.0690002L0 0H212.199Z" fill="#0090DF"/>
<path d="M138.997 93.093L148.997 118.514H129.218L122.418 99.6451L113.579 76.017L113.479 118.517H95.079L94.996 78.517L94.896 29.123L113.531 29.04L113.614 65.94L127.601 29.056L146.925 29.042L137.96 52.491L130.47 71.374L138.997 93.093Z" fill="#0090DF"/>
<path d="M90.224 101.3L90.114 118.514H53.451L53.271 28.9531H72.071L72.181 101.3H90.224Z" fill="#0090DF"/>
</g>
<defs>
<clipPath id="clip0_671_15407">
<rect width="212.599" height="118.859" fill="white"/>
</clipPath>
</defs>
</svg>
