<svg width="100" height="100" viewBox="0 0 100 100" fill="none" xmlns="http://www.w3.org/2000/svg">
<g clip-path="url(#clip0_671_15465)">
<path d="M94.0401 89.45C94.3474 89.7475 94.5896 90.1055 94.7514 90.5014C94.9132 90.8973 94.9911 91.3225 94.9801 91.75C94.9837 92.3935 94.7956 93.0234 94.4398 93.5595C94.084 94.0957 93.5767 94.5137 92.9824 94.7604C92.3882 95.0072 91.7339 95.0713 91.1031 94.9448C90.4722 94.8183 89.8933 94.5068 89.4401 94.05C89.138 93.7487 88.8992 93.39 88.7377 92.995C88.5763 92.6 88.4955 92.1767 88.5001 91.75C88.4988 91.3233 88.5815 90.9004 88.7436 90.5056C88.9058 90.1108 89.144 89.7517 89.4449 89.449C89.7458 89.1463 90.1033 88.9058 90.4971 88.7413C90.8909 88.5767 91.3133 88.4914 91.7401 88.4901C92.1691 88.4816 92.5952 88.5626 92.9912 88.7279C93.3872 88.8932 93.7444 89.1391 94.0401 89.45ZM94.4201 89.08C94.0717 88.724 93.6544 88.4428 93.1935 88.2536C92.7327 88.0645 92.2381 87.9714 91.7401 87.98C91.1201 87.9814 90.5101 88.1357 89.9639 88.4292C89.4178 88.7226 88.9525 89.1463 88.6092 89.6625C88.2659 90.1788 88.0553 90.7717 87.9959 91.3888C87.9365 92.0059 88.0302 92.6282 88.2687 93.2004C88.5072 93.7727 88.8831 94.2773 89.3633 94.6695C89.8434 95.0618 90.4128 95.3296 91.0211 95.4492C91.6294 95.5688 92.2579 95.5366 92.8507 95.3553C93.4436 95.1741 93.9826 94.8494 94.4201 94.41C94.7714 94.0598 95.0502 93.6437 95.2404 93.1855C95.4306 92.7273 95.5285 92.2361 95.5285 91.7401C95.5285 91.244 95.4306 90.7528 95.2404 90.2946C95.0502 89.8364 94.7714 89.4203 94.4201 89.07V89.08ZM92.3001 91.57C92.0745 91.644 91.837 91.6745 91.6001 91.66H90.9501V90.16H91.5801C91.9801 90.16 92.2801 90.21 92.4501 90.31C92.6201 90.41 92.7301 90.62 92.7301 90.91C92.74 91.0506 92.7032 91.1905 92.6254 91.3081C92.5477 91.4256 92.4333 91.5142 92.3001 91.56V91.57ZM90.2201 93.7901H90.9501V92.17H91.5301C91.9101 92.17 92.1901 92.21 92.3401 92.3C92.6001 92.46 92.7301 92.77 92.7301 93.25V93.58L92.7401 93.71C92.7448 93.7264 92.7482 93.7431 92.7501 93.76C92.7501 93.78 92.7601 93.7901 92.7701 93.7901H93.4501L93.4301 93.75C93.3997 93.6844 93.3859 93.6123 93.3901 93.5401V92.93C93.3788 92.6939 93.295 92.4669 93.1501 92.28C93.0001 92.06 92.7601 91.93 92.4401 91.87C92.6508 91.8415 92.8544 91.7737 93.0401 91.67C93.3101 91.49 93.4401 91.21 93.4401 90.85C93.4401 90.33 93.2401 89.98 92.8001 89.8C92.5601 89.7 92.1901 89.65 91.6701 89.65H90.2201V93.7901Z" fill="#E4002B"/>
<path d="M95.8602 62.0303C96.1302 56.7003 95.1402 50.9503 90.5002 45.7503C85.7302 40.6103 77.6802 36.2503 61.1302 35.2303C61.9902 32.5503 62.7402 30.0903 63.5302 27.5803C73.4302 27.9303 82.2402 28.6403 89.7302 29.6103C90.3302 26.9303 90.6502 24.3103 91.2602 21.7703C90.5002 20.657 89.6935 19.577 88.8402 18.5303C85.2802 18.1103 81.7202 17.2303 77.9002 16.7303C72.4419 16.0338 66.9573 15.5634 61.4602 15.3203C57.0921 28.3265 52.7554 41.3432 48.4502 54.3703C73.0702 56.5003 82.5502 63.1403 82.0002 72.5003C81.5002 77.5603 76.8902 82.1503 70.8002 82.7003C63.5802 83.1903 60.2702 80.2603 58.1002 77.0603C56.127 74.1045 54.1703 71.1378 52.2302 68.1603C51.6802 67.2403 50.9502 67.8403 50.2902 68.4803C48.8312 69.8949 47.3679 71.3049 45.9002 72.7103C44.9602 73.5303 45.1702 74.2403 45.5002 74.9303C46.8011 77.9985 48.1212 81.0585 49.4602 84.1103C51.6102 85.4303 61.7502 87.2303 69.3302 86.6703C75.433 86.1056 81.2659 83.8858 86.2002 80.2503C91.4502 76.1803 95.2702 70.7003 95.8602 62.0303Z" fill="white"/>
<path d="M9.73012 79.6305C10.6768 80.9171 11.6835 82.1538 12.7501 83.3405C22.7339 85.0359 32.8265 86.0117 42.9501 86.2605L42.8501 82.8104C36.0601 82.4305 32.9401 81.3904 32.4001 80.0505C31.9401 78.9805 31.8601 77.3804 31.7701 75.8105C31.2532 64.8019 31.0864 53.7796 31.2701 42.7605C35.0701 42.6904 38.8501 42.6604 42.8201 42.6104C44.7401 41.7404 46.5501 40.8704 48.4701 40.0105L48.4801 36.0804C42.6001 36.1004 37.0201 36.2004 31.4201 36.3604C31.5801 31.5905 31.7701 27.2004 32.0501 22.9104C32.2501 20.0904 34.2001 18.0304 36.2101 17.8704C39.4401 17.7404 42.3301 19.0304 45.1401 20.2704C46.6801 21.0204 48.2101 21.7704 49.7901 22.5704C50.5501 22.7704 51.4501 22.9504 51.9901 22.3004C52.9301 21.1804 53.8201 20.1504 54.7401 19.0704C55.2401 18.3304 55.0301 17.9104 54.8201 17.6404C52.8994 16.1287 50.9593 14.642 49.0001 13.1804C47.8201 12.3804 45.9501 12.2104 44.1001 12.2104C43.3701 12.2104 42.6401 12.2304 41.9501 12.2504C40.0601 12.3504 37.6501 12.6504 33.7101 13.6204C24.8301 16.0104 14.1701 22.2004 13.0401 32.3204C12.8958 33.9822 12.7724 35.6456 12.6701 37.3104C10.1601 37.5105 7.87012 37.7004 5.72012 37.9104C5.56788 39.8281 5.45119 41.7485 5.37012 43.6705C7.55012 43.5405 9.83012 43.4205 12.3701 43.3104C11.9901 53.9305 12.3401 64.5205 13.3401 74.3405C13.5101 75.8305 13.6701 77.3104 13.4801 78.2605C13.3201 79.1704 11.8501 79.6505 9.73012 79.6305Z" fill="white"/>
<path d="M91.2701 21.7702C90.6501 24.3002 90.3301 26.9302 89.7401 29.6102C82.2401 28.6402 73.4401 27.9302 63.5401 27.5802C62.7401 30.0802 61.9901 32.5502 61.1401 35.2302C77.6901 36.2502 85.7401 40.6102 90.5101 45.7502C95.1501 50.9502 96.1301 56.7002 95.8601 62.0302C95.2601 70.7002 91.4501 76.1802 86.2001 80.2402C80.9001 84.2402 74.4701 86.2202 69.3301 86.6602C61.7601 87.2202 51.6301 85.4202 49.4701 84.1002C48.1294 81.0491 46.8094 77.9891 45.5101 74.9202C45.1801 74.2302 44.9701 73.5202 45.9101 72.7002C47.3778 71.2948 48.8411 69.8848 50.3001 68.4702C50.9601 67.8302 51.6901 67.2302 52.2401 68.1502C54.2801 71.2902 56.1901 74.1802 58.1001 77.0502C60.2701 80.2502 63.5801 83.1802 70.8201 82.6902C76.8901 82.1502 81.5201 77.5502 82.0101 72.4902C82.5401 63.1302 73.0701 56.4902 48.4401 54.3602C53.1701 40.1002 57.7801 26.3002 61.4601 15.3302C67.3101 15.6002 72.7201 16.0802 77.9001 16.7502C81.7201 17.2302 85.2801 18.1202 88.8401 18.5302C82.3338 10.5046 73.501 4.69159 63.5564 1.89041C53.6118 -0.910775 43.0436 -0.562553 33.3049 2.88719C23.5663 6.33694 15.1354 12.7188 9.17153 21.1553C3.20765 29.5918 0.00364068 39.6686 5.24776e-05 50.0002C-0.0154304 60.6643 3.39549 71.0513 9.73005 79.6302C11.8501 79.6502 13.3201 79.1702 13.4801 78.2602C13.6701 77.3002 13.5101 75.8302 13.3401 74.3402C12.3401 64.5202 11.9901 53.9302 12.3601 43.3102C10.0258 43.4118 7.6924 43.5318 5.36005 43.6702C5.46005 41.7002 5.56005 39.8402 5.72005 37.9102C7.88005 37.7002 10.1601 37.5102 12.6701 37.3102C12.7701 35.6102 12.8901 33.9802 13.0401 32.3302C14.1701 22.2002 24.8301 16.0002 33.7101 13.6202C36.4068 12.9039 39.1662 12.4485 41.9501 12.2602C42.6401 12.2302 43.3701 12.2102 44.1101 12.2102C45.9501 12.2102 47.8101 12.3802 49.0001 13.1802C50.9201 14.6202 52.8001 16.0502 54.8201 17.6402C55.0201 17.9102 55.2401 18.3402 54.7401 19.0702L52.0001 22.3002C51.4601 22.9502 50.5601 22.7802 49.8001 22.5802C48.2201 21.7702 46.7001 21.0202 45.1501 20.2802C42.3501 19.0302 39.4501 17.7402 36.2201 17.8802C34.2101 18.0302 32.2601 20.0902 32.0601 22.9102C31.7801 27.2002 31.5901 31.5902 31.4301 36.3602C37.0301 36.2002 42.6101 36.1002 48.5001 36.0702L48.4901 40.0102C46.5701 40.8702 44.7601 41.7402 42.8301 42.6102C38.8601 42.6602 35.0801 42.6902 31.2801 42.7602C31.095 53.7794 31.2617 64.8017 31.7801 75.8102C31.8801 77.3802 31.9601 78.9802 32.4101 80.0402C32.9501 81.3902 36.0701 82.4202 42.8701 82.8102L42.9701 86.2502C32.8469 86.0086 22.7542 85.0394 12.7701 83.3502C19.5248 90.885 28.4067 96.1929 38.2422 98.5725C48.0777 100.952 58.4037 100.291 67.8557 96.6777C77.3077 93.064 85.4408 86.6674 91.1801 78.3332C96.9194 69.999 99.9949 60.1195 100 50.0002C100.018 39.9199 96.9733 30.072 91.2701 21.7602V21.7702Z" fill="#E4002B"/>
</g>
<defs>
<clipPath id="clip0_671_15465">
<rect width="100" height="100" fill="white"/>
</clipPath>
</defs>
</svg>
