<svg width="352" height="41" viewBox="0 0 352 41" fill="none" xmlns="http://www.w3.org/2000/svg">
<g clip-path="url(#clip0_671_15471)">
<path d="M0 40.6125V0.516462H43.6219V9.4267H9.64776V16.2062H38.9095V24.8582H9.64776V40.5802C9.64776 40.6125 0 40.6125 0 40.6125ZM145.958 40.6125V26.9566C145.958 25.7621 144.939 25.2133 144.939 25.2133C144.494 24.9228 143.124 24.8582 141.087 24.8582H141.532H121.186V40.6448H111.538V0.516462H141.628C146.85 0.516462 150.416 1.32355 152.868 3.74481C155.319 6.26292 155.606 9.55583 155.638 12.9456V15.8188C155.701 18.6921 154.173 21.3393 152.358 22.8889L152.708 23.0503C153.441 23.4054 153.855 23.922 153.855 23.922C155.224 25.6976 155.224 27.2149 155.224 29.1196V40.5802H145.958V40.6125ZM140.736 16.2385C143.124 16.2385 144.494 16.2385 145.067 15.8834C145.067 15.8834 146.022 15.3023 146.086 14.1401V11.4928C146.086 10.2984 145.067 9.74953 145.067 9.74953C144.334 9.36213 143.029 9.39441 140.004 9.39441H121.218V16.1739H141.15H140.736V16.2385ZM169.807 40.6125V9.45898H160.732V0.516462H196.967V9.4267H179.487V40.5802C179.487 40.6125 169.807 40.6125 169.807 40.6125ZM322.356 40.6125V9.45898H313.282V0.516462H349.516V9.4267H332.036V40.5802C332.036 40.6125 322.356 40.6125 322.356 40.6125ZM201.743 40.6125V0.516462H211.391V40.5802H201.743V40.6125ZM269.532 40.6125V0.516462H308.442V9.4267H279.18V16.2062H299.526V24.8582H279.18V31.6377H308.665V40.548C308.665 40.6125 269.532 40.6125 269.532 40.6125ZM228.33 40.6125H218.619V0.516462H249.791C249.791 0.516462 255.522 0.290478 259.12 3.90623C259.12 3.90623 262.814 7.07 262.814 14.7212V40.5802H253.134V14.1078C253.134 14.1078 253.262 11.396 252.338 10.4921C252.338 10.4921 251.542 9.45898 250.014 9.45898H228.33V40.6125ZM347.256 40.548C344.581 40.548 342.48 38.3527 342.48 35.7054C342.48 33.0582 344.645 30.8629 347.256 30.8629C349.867 30.8629 352.032 33.0582 352.032 35.7054C352 38.4172 349.898 40.548 347.256 40.548ZM347.256 31.444C344.931 31.444 343.053 33.3487 343.053 35.77C343.053 38.1267 344.931 40.0314 347.256 40.0314C349.58 40.0314 351.459 38.1267 351.459 35.77C351.491 33.3487 349.58 31.444 347.256 31.444ZM345.473 32.8645H347.797C348.593 32.8645 349.389 33.0259 349.516 34.2527C349.516 34.9306 349.357 35.1889 348.848 35.5763C349.421 35.9314 349.421 36.0283 349.485 36.9645C349.548 37.6424 349.421 37.7716 349.707 38.2235H348.911L348.784 37.5456C348.657 36.8999 348.943 35.9314 347.861 35.9314H346.141V38.2235H345.473V32.8645ZM346.173 33.5102V35.3503H347.893C348.338 35.3503 348.816 35.2212 348.848 34.5432C348.975 33.607 348.275 33.5102 347.893 33.5102H346.173Z" fill="#231F20"/>
<path d="M47.8887 15.2055H63.9046V25.8591H47.8887V15.2055ZM68.3305 0.0645669H84.0598V10.7181H68.3305V0.0645669ZM68.3305 30.2819H84.0598V40.9354H68.3305V30.2819ZM88.422 15.2055H104.502V25.8591H88.422V15.2055ZM54.4797 0.0645669C51.1364 0.93622 48.5255 4.71339 47.8887 9.55591V10.7504H63.9046V0.0645669H54.4797ZM47.8887 30.2819V31.6055C48.4618 36.222 50.9136 39.9024 54.0658 40.9354H63.9364V30.2819H47.8887ZM104.502 10.7181V9.52362C103.865 4.71339 101.254 0.93622 97.9106 0H88.422V10.6535H104.502V10.7181ZM98.3245 41C101.445 39.9024 103.897 36.2866 104.502 31.6701V30.3465H88.422V41H98.3245Z" fill="#EE3124"/>
</g>
<defs>
<clipPath id="clip0_671_15471">
<rect width="352" height="41" fill="white"/>
</clipPath>
</defs>
</svg>
