<svg width="193" height="196" viewBox="0 0 193 196" fill="none" xmlns="http://www.w3.org/2000/svg">
<path d="M77.1775 130.772V139.867C77.1775 142.455 75.8903 143.821 73.5573 143.821C71.2081 143.821 69.9209 142.406 69.9209 139.755V130.788H66.7028V139.867C66.7028 144.335 69.1807 146.89 73.5251 146.89C77.9016 146.89 80.4117 144.287 80.4117 139.723V130.756L77.1775 130.772ZM89.036 130.772L82.0368 146.649H85.3353L86.6868 143.58L86.7834 143.355H94.0561L95.4882 146.665H98.8671L91.9322 130.884L91.8679 130.788L89.036 130.772ZM108.215 130.772L104.611 141.699L101.104 130.788H97.6603L103.195 146.665H105.866L109.487 136.236L113.107 146.665H115.794L121.313 130.788H117.966L114.442 141.699L110.838 130.772H108.215ZM139.784 130.772V146.633H142.97V130.772H139.784ZM48.4888 130.772V146.649H51.7068V140.205H58.9957V146.649H62.2298V130.772H58.9957V137.184H51.7068V130.772H48.4888ZM123.92 130.788V146.649H135.923V143.756H127.105V139.819H132.978V136.927H127.105V133.681H135.633V130.788H123.92ZM90.4037 134.789L92.7046 140.108H92.6885L92.8494 140.478H87.9741L88.135 140.108L90.4037 134.789Z" fill="#232527"/>
<path d="M88.6658 49.6201C87.3785 49.7326 83.9352 50.52 83.9352 50.52C76.1476 52.5288 74.2972 59.5995 74.2972 59.5995C73.9111 60.7886 73.7502 62.0099 73.6858 63.1509V64.7097C73.7823 67.1201 74.3294 68.9199 74.3294 68.9199C76.936 80.4581 89.7277 99.4044 92.4791 103.374C92.6722 103.566 92.8331 103.502 92.8331 103.502C93.1227 103.422 93.1066 103.133 93.1066 103.133C97.3545 60.8368 88.6658 49.6201 88.6658 49.6201ZM102.664 49.6201C102.664 49.6201 93.9433 60.8368 98.1751 103.165C98.2072 103.438 98.4003 103.486 98.4003 103.486C98.6899 103.599 98.8348 103.325 98.8348 103.325C101.651 99.2437 114.378 80.4099 116.968 68.9199C116.968 68.9199 118.368 63.3598 117.017 59.5995C117.017 59.5995 115.086 52.4323 107.282 50.5361C107.298 50.5361 105.062 49.9576 102.664 49.6201ZM62.4388 62.3313C62.4388 62.3313 55.0051 69.3699 54.6511 76.8263V77.9512C54.6511 78.0315 54.6672 78.1279 54.6672 78.2083C54.989 84.2184 59.5265 87.7859 59.5265 87.7859C66.8153 94.9048 84.4984 103.872 88.6014 105.913C88.6658 105.929 88.8749 106.009 89.0037 105.848C89.0037 105.848 89.068 105.8 89.1002 105.704V105.511C89.1002 105.495 89.0841 105.495 89.0841 105.479C77.8371 80.9402 62.4388 62.3153 62.4388 62.3313ZM128.875 62.3313C128.875 62.3313 113.525 80.8919 102.278 105.398C102.278 105.398 102.149 105.688 102.358 105.864C102.358 105.864 102.423 105.913 102.503 105.929H102.664C102.696 105.913 102.729 105.913 102.745 105.897C106.96 103.807 124.515 94.8887 131.787 87.818C131.787 87.818 136.389 84.122 136.631 78.1922C137.178 69.9484 128.875 62.3153 128.875 62.3313ZM142.697 86.6931C142.697 86.6931 117.676 100.111 104.74 108.821C104.74 108.821 104.498 108.982 104.595 109.255C104.595 109.255 104.724 109.48 104.901 109.48C109.535 109.496 127.073 109.512 127.507 109.432C127.507 109.432 129.776 109.335 132.576 108.259C132.576 108.259 138.819 106.282 142.053 99.2115C142.053 99.2115 143.533 96.2547 143.549 92.0926V91.9158C143.533 90.3249 143.308 88.5412 142.697 86.6931ZM48.6173 86.7574C46.3325 93.796 49.4057 99.4686 49.4057 99.4847C52.6077 106.218 58.6898 108.275 58.6898 108.275C61.5055 109.432 64.3213 109.512 64.3213 109.512C64.7558 109.593 81.8274 109.528 86.397 109.496C86.5901 109.496 86.7028 109.303 86.7028 109.303C86.7188 109.287 86.7349 109.255 86.7349 109.239V109.062C86.7028 108.95 86.5901 108.853 86.5901 108.853C73.6697 100.144 48.6173 86.7574 48.6173 86.7574ZM85.8822 111.65L56.4371 112.678C59.623 118.367 65.0132 122.786 70.6126 121.42C74.4742 120.456 83.2273 114.349 86.1235 112.292L86.1074 112.276C86.3327 112.067 86.2522 111.907 86.2522 111.907C86.1879 111.666 85.8822 111.666 85.8822 111.65ZM105.383 111.666C105.383 111.682 105.126 111.714 105.046 111.907C105.046 111.907 104.981 112.164 105.158 112.308C107.974 114.333 116.518 120.295 120.637 121.452C120.637 121.452 121.264 121.661 122.31 121.709H122.938C125.689 121.613 130.5 120.199 134.861 112.71L105.383 111.666Z" fill="#CF0A2C"/>
</svg>
