<svg width="222" height="203" viewBox="0 0 222 203" fill="none" xmlns="http://www.w3.org/2000/svg">
<g clip-path="url(#clip0_651_9376)">
<path d="M222.205 0H0V203H222.205V0Z" fill="white"/>
<path d="M62.9794 71.7155V55.8125H21.4976V71.7155H31.0145V105.733H21.4976V121.636H62.9794V105.733H53.4625V71.7155H62.9794Z" fill="#00539F"/>
<path d="M108.757 81.0695C106.193 80.3232 93.0001 76.5449 90.7159 75.7986C88.4317 75.0523 86.567 73.9794 86.567 72.6267C86.567 71.274 88.6648 69.828 92.9069 69.828C106.286 69.828 112.713 78.0842 112.713 78.0842C112.713 78.0842 113.437 79.0496 113.68 79.3959H126.588V56.8707H112.731V60.9688C111.673 60.2374 103.859 55.1348 91.7415 55.1348C75.7519 55.1348 66.8481 63.4376 66.8481 75.8452C66.8481 88.2529 78.0828 93.3838 81.2061 94.6899C84.3294 95.996 96.543 99.4477 101.764 101.08C106.985 102.713 108.896 103.879 108.896 104.719C108.896 105.558 106.612 107.751 100.086 107.751C88.7177 107.751 82.8634 101.043 81.836 99.7436V99.7336C81.5093 99.2955 81.1259 98.7771 80.9958 98.582C80.8451 98.3562 80.4957 97.8551 80.2533 97.5088H67.3453V121.563H81.836V116.54C83.522 117.663 92.1528 123.05 102.51 123.05C114.071 123.05 128.802 118.013 128.802 102.293C128.802 86.5736 111.32 81.8158 108.757 81.0695Z" fill="#00539F"/>
<path d="M165.595 54.9136C146.323 54.9136 130.517 64.5553 130.517 89.168C130.517 113.781 147.676 123 165.68 123C183.684 123 200.674 113.865 200.674 89.4221C200.674 64.9792 183.685 54.9136 165.595 54.9136ZM165.765 106.591C159.171 106.591 154.945 105.069 154.945 89.0836C154.945 73.0981 158.073 71.4066 166.018 71.4066C170.836 71.4066 176.669 71.7447 176.669 88.5761C176.669 105.408 172.358 106.591 165.765 106.591Z" fill="#00539F"/>
<path d="M49.1375 48.5537C53.4699 42.1524 58.7976 36.4781 64.9052 31.7659C67.3747 33.5929 69.9998 35.2501 72.7595 36.727C68.1359 41.8841 63.9933 47.5976 63.3071 48.5537H66.0814C67.7465 46.308 71.191 41.7905 74.823 37.7853C78.7928 39.7381 83.0118 41.3352 87.4139 42.5517C86.2422 45.0392 85.3565 47.2144 84.8366 48.5537H87.2469C87.8007 47.1745 88.6122 45.2508 89.6247 43.1253C95.2403 44.4981 101.124 45.2676 107.144 45.3848V48.554H109.382V45.3956C115.357 45.3519 121.209 44.6705 126.805 43.3902C127.759 45.4094 128.527 47.2323 129.057 48.5537H131.467C130.968 47.2674 130.132 45.2113 129.027 42.8458C133.508 41.6793 137.808 40.1239 141.857 38.2018C145.35 42.1006 148.615 46.386 150.223 48.5537H152.997C152.332 47.6271 148.404 42.2077 143.94 37.1704C147.009 35.5833 149.919 33.7776 152.639 31.7659C158.746 36.4781 164.074 42.1524 168.406 48.5537H171.098C157.863 28.1152 134.87 14.5635 108.771 14.5635C82.6728 14.5635 59.68 28.1152 46.4453 48.5537H49.1375ZM88.4123 40.5042C84.225 39.3724 80.2074 37.8887 76.4199 36.0736C76.9345 35.5385 77.4488 35.0202 77.9571 34.5295C83.1435 29.525 91.674 24.0298 93.5439 22.8469C95.0613 23.6809 96.7172 24.3862 98.4785 24.946C97.1106 26.7409 94.4247 30.3844 91.4998 35.006C90.3612 36.8047 89.3241 38.6951 88.4123 40.5042ZM107.144 43.1451C101.477 43.0316 95.9359 42.3256 90.6395 41.0688C91.4677 39.4485 92.3919 37.7812 93.3902 36.2042C96.76 30.8803 99.8002 26.883 100.813 25.5826C102.834 26.0576 104.958 26.358 107.144 26.4561V43.1451ZM109.382 43.1562V26.4815C111.538 26.4449 113.648 26.2166 115.668 25.8102C116.825 27.3084 119.722 31.161 122.914 36.2042C123.964 37.8637 124.933 39.6228 125.794 41.3225C120.516 42.4905 115.007 43.1145 109.382 43.1562ZM128.037 40.7923C127.091 38.8966 126.003 36.9002 124.804 35.006C122.03 30.6229 119.471 27.1189 118.047 25.2374C119.92 24.7109 121.689 24.0265 123.313 23.1984C125.938 24.8821 133.562 29.9124 138.347 34.5295C138.982 35.1426 139.626 35.7975 140.269 36.4767C136.402 38.263 132.304 39.709 128.037 40.7923ZM150.765 30.3661C148.14 32.2622 145.335 33.9608 142.382 35.4542C141.556 34.5683 140.724 33.7126 139.9 32.9178C135.425 28.5992 128.761 24.0687 125.496 21.9413C126.605 21.2218 127.619 20.4262 128.524 19.5601C136.605 21.8707 144.108 25.5654 150.765 30.3661ZM108.772 16.8024C114.681 16.8024 120.424 17.5238 125.923 18.8739C121.75 22.2655 115.497 24.2552 108.772 24.2552C102.017 24.2552 95.7815 22.2719 91.6139 18.8757C97.1147 17.5245 102.86 16.8024 108.772 16.8024ZM89.0198 19.5601C89.756 20.2661 90.5619 20.9266 91.4349 21.5356C88.4768 23.4402 81.1908 28.2992 76.4042 32.9174C75.715 33.5824 75.0202 34.2907 74.3281 35.0228C71.6806 33.6358 69.1559 32.0823 66.7799 30.3661C73.4353 25.5654 80.938 21.8711 89.0198 19.5601Z" fill="#00539F"/>
<path d="M168.41 129.094C164.17 135.361 158.975 140.93 153.029 145.582C150.197 143.452 147.158 141.547 143.944 139.883C147.816 135.513 151.285 130.855 152.57 129.094H149.783C148.065 131.389 145.058 135.283 141.86 138.853C137.811 136.93 133.512 135.373 129.03 134.207C129.978 132.177 130.726 130.377 131.236 129.094H128.818C128.306 130.345 127.625 131.932 126.806 133.665C121.213 132.387 115.362 131.706 109.382 131.662V129.094H107.144V131.672C101.12 131.789 95.2363 132.558 89.624 133.929C88.7499 132.094 88.0253 130.408 87.4871 129.094H85.0694C85.6031 130.439 86.3997 132.351 87.4125 134.502C83.0093 135.718 78.7888 137.313 74.8193 139.267C71.4838 135.588 68.3075 131.479 66.5223 129.094H63.7357C65.0626 130.913 68.7274 135.832 72.7596 140.329C69.8556 141.885 67.0981 143.638 64.5155 145.582C58.5695 140.929 53.3745 135.36 49.1346 129.094H46.4473C59.6823 149.532 82.6744 163.084 108.773 163.084C134.871 163.084 157.863 149.533 171.098 129.094L168.41 129.094ZM128.038 136.262C132.306 137.345 136.405 138.79 140.272 140.577C139.628 141.257 138.984 141.913 138.347 142.528C133.577 147.13 125.977 152.148 123.332 153.846C121.709 153.014 119.938 152.33 118.059 151.803C119.485 149.918 122.038 146.421 124.804 142.05C126.004 140.156 127.092 138.158 128.038 136.262ZM109.382 133.901C115.012 133.943 120.521 134.565 125.795 135.731C124.934 137.432 123.965 139.192 122.914 140.852C119.727 145.889 116.834 149.737 115.673 151.24C113.659 150.838 111.549 150.612 109.381 150.576V133.901H109.382ZM107.144 133.912V150.599C104.95 150.696 102.824 150.993 100.805 151.465C99.7854 150.155 96.7549 146.169 93.3903 140.852C92.3912 139.274 91.4663 137.606 90.6377 135.984C95.9311 134.729 101.472 134.025 107.144 133.912ZM88.4113 136.551C89.3235 138.361 90.3613 140.251 91.4999 142.051C94.4226 146.669 97.1066 150.31 98.4756 152.106C96.7117 152.666 95.0577 153.372 93.541 154.208C91.664 153.02 83.141 147.529 77.9576 142.528C77.4485 142.036 76.9342 141.517 76.4188 140.982C80.2056 139.166 84.2228 137.682 88.4113 136.551ZM66.3746 146.986C68.8684 145.151 71.5274 143.497 74.3248 142.031C75.0177 142.764 75.714 143.474 76.4039 144.139C81.1894 148.756 88.4732 153.614 91.4324 155.52C90.3781 156.258 89.4171 157.07 88.563 157.951C80.492 155.585 73.0054 151.838 66.3746 146.986ZM108.772 160.845C102.67 160.845 96.7433 160.078 91.0815 158.641C95.2158 155.006 101.781 152.802 108.772 152.802C115.755 152.802 122.327 155.008 126.461 158.642C120.8 160.079 114.874 160.845 108.772 160.845ZM128.98 157.951C127.965 156.905 126.805 155.95 125.51 155.106C128.781 152.975 135.432 148.451 139.9 144.139C140.725 143.344 141.557 142.488 142.383 141.601C145.487 143.172 148.429 144.969 151.17 146.985C144.539 151.839 137.052 155.585 128.98 157.951Z" fill="#00539F"/>
<path d="M25.7652 186.83C25.8648 188.683 26.5789 189.963 27.9085 190.671C28.5917 191.044 29.3618 191.231 30.2192 191.231C31.8217 191.231 33.1881 190.563 34.3188 189.226C35.4492 187.89 36.2506 185.177 36.7227 181.087C35.9773 182.268 35.055 183.098 33.9556 183.576C32.8562 184.055 31.6729 184.294 30.4056 184.294C27.8339 184.294 25.7995 183.493 24.3026 181.892C22.8052 180.29 22.0571 178.228 22.0571 175.707C22.0571 173.286 22.7963 171.156 24.2746 169.318C25.7529 167.481 27.9334 166.562 30.8155 166.562C34.7037 166.562 37.3873 168.313 38.8656 171.816C39.6857 173.742 40.0956 176.152 40.0956 179.046C40.0956 182.313 39.6048 185.208 38.6236 187.73C36.9957 191.929 34.2379 194.028 30.3497 194.028C27.7406 194.028 25.7589 193.344 24.4051 191.977C23.051 190.61 22.3737 188.894 22.3737 186.831H25.7652V186.83ZM34.496 180.036C35.5954 179.161 36.1451 177.631 36.1451 175.447C36.1451 173.486 35.6513 172.024 34.6634 171.062C33.6759 170.101 32.418 169.62 30.8901 169.62C29.2503 169.62 27.9487 170.169 26.9858 171.267C26.0229 172.365 25.5414 173.833 25.5414 175.67C25.5414 177.407 25.9636 178.789 26.8087 179.813C27.6534 180.836 29.0012 181.348 30.8524 181.348C32.1819 181.348 33.3966 180.911 34.496 180.036Z" fill="#00539F"/>
<path d="M59.7367 170.869C60.9293 173.069 61.5256 176.084 61.5256 179.912C61.5256 183.542 60.9852 186.544 59.9045 188.919C58.3393 192.324 55.7795 194.028 52.2269 194.028C49.0215 194.028 46.6362 192.636 45.071 189.851C43.7665 187.526 43.1143 184.406 43.1143 180.49C43.1143 177.457 43.5058 174.853 44.2883 172.677C45.7539 168.625 48.4066 166.599 52.2452 166.599C55.6989 166.599 58.1961 168.022 59.7367 170.869ZM56.3612 188.657C57.3939 187.116 57.9104 184.244 57.9104 180.043C57.9104 177.009 57.5367 174.514 56.7905 172.556C56.0439 170.598 54.5939 169.619 52.4413 169.619C50.4625 169.619 49.0159 170.549 48.1015 172.407C47.1867 174.266 46.7295 177.003 46.7295 180.621C46.7295 183.343 47.0219 185.531 47.6066 187.184C48.5024 189.708 50.0333 190.97 52.1982 190.97C53.9405 190.969 55.3278 190.199 56.3612 188.657Z" fill="#00539F"/>
<path d="M80.9622 170.869C82.1549 173.069 82.7512 176.084 82.7512 179.912C82.7512 183.542 82.2108 186.544 81.1301 188.919C79.5649 192.324 77.005 194.028 73.4525 194.028C70.2471 194.028 67.8618 192.636 66.2966 189.851C64.9921 187.526 64.3398 184.406 64.3398 180.49C64.3398 177.457 64.7314 174.853 65.5138 172.677C66.9795 168.625 69.6321 166.599 73.4708 166.599C76.9249 166.599 79.4217 168.022 80.9622 170.869ZM77.5868 188.657C78.6195 187.116 79.136 184.244 79.136 180.043C79.136 177.009 78.7623 174.514 78.0161 172.556C77.2695 170.598 75.8195 169.619 73.6669 169.619C71.6881 169.619 70.2415 170.549 69.3271 172.407C68.4123 174.266 67.9551 177.003 67.9551 180.621C67.9551 183.343 68.2474 185.531 68.8322 187.184C69.728 189.708 71.2589 190.97 73.4238 190.97C75.1661 190.969 76.5534 190.199 77.5868 188.657Z" fill="#00539F"/>
<path d="M88.0244 174.393V171.82C90.447 171.584 92.1364 171.189 93.093 170.636C94.0495 170.083 94.7637 168.774 95.2362 166.71H97.8822V193.3H94.3042V174.393L88.0244 174.393Z" fill="#00539F"/>
<path d="M109.828 173.591H113.723V177.656H109.828V173.591ZM109.828 189.235H113.723V193.301H109.828V189.235Z" fill="#00539F"/>
<path d="M118.819 187.296C119.645 185.593 121.257 184.046 123.655 182.653L127.233 180.584C128.836 179.651 129.96 178.855 130.606 178.195C131.624 177.161 132.134 175.978 132.134 174.645C132.134 173.088 131.668 171.852 130.736 170.937C129.804 170.021 128.562 169.564 127.009 169.564C124.711 169.564 123.121 170.437 122.239 172.182C121.767 173.117 121.506 174.414 121.456 176.071H118.046C118.083 173.747 118.512 171.851 119.331 170.384C120.785 167.799 123.35 166.506 127.028 166.506C130.084 166.506 132.317 167.333 133.727 168.986C135.137 170.639 135.842 172.479 135.842 174.505C135.842 176.643 135.09 178.471 133.587 179.987C132.717 180.87 131.158 181.939 128.91 183.194L126.357 184.612C125.139 185.283 124.183 185.923 123.487 186.532C122.245 187.613 121.462 188.813 121.139 190.131H135.712V193.301H117.394C117.517 191.001 117.993 188.999 118.819 187.296Z" fill="#00539F"/>
<path d="M155.241 170.869C156.434 173.069 157.03 176.084 157.03 179.912C157.03 183.542 156.49 186.544 155.409 188.919C153.844 192.324 151.284 194.028 147.731 194.028C144.526 194.028 142.141 192.636 140.576 189.851C139.271 187.526 138.619 184.406 138.619 180.49C138.619 177.457 139.01 174.853 139.793 172.677C141.259 168.625 143.911 166.599 147.75 166.599C151.203 166.599 153.701 168.022 155.241 170.869ZM151.866 188.657C152.899 187.116 153.415 184.244 153.415 180.043C153.415 177.009 153.041 174.514 152.295 172.556C151.548 170.598 150.098 169.619 147.946 169.619C145.967 169.619 144.52 170.549 143.606 172.407C142.691 174.266 142.234 177.003 142.234 180.621C142.234 183.343 142.526 185.531 143.111 187.184C144.007 189.708 145.538 190.97 147.703 190.97C149.445 190.969 150.832 190.199 151.866 188.657Z" fill="#00539F"/>
<path d="M162.304 174.393V171.82C164.726 171.584 166.415 171.189 167.373 170.636C168.329 170.083 169.043 168.774 169.515 166.71H172.162V193.3H168.584V174.393L162.304 174.393Z" fill="#00539F"/>
<path d="M184.591 186.494C184.815 188.409 185.703 189.733 187.256 190.466C188.051 190.839 188.971 191.026 190.014 191.026C192.002 191.026 193.474 190.392 194.431 189.123C195.387 187.856 195.866 186.451 195.866 184.91C195.866 183.045 195.298 181.603 194.161 180.584C193.024 179.564 191.661 179.054 190.071 179.054C188.915 179.054 187.924 179.278 187.098 179.726C186.272 180.173 185.567 180.795 184.983 181.59L182.076 181.422L184.108 167.046H197.972V170.291H186.623L185.486 177.712C186.107 177.24 186.697 176.886 187.256 176.649C188.25 176.239 189.399 176.034 190.703 176.034C193.151 176.034 195.226 176.823 196.927 178.402C198.629 179.981 199.48 181.982 199.48 184.406C199.48 186.93 198.701 189.155 197.142 191.082C195.583 193.009 193.095 193.972 189.678 193.972C187.504 193.972 185.582 193.359 183.911 192.135C182.24 190.911 181.305 189.031 181.106 186.495L184.591 186.494Z" fill="#00539F"/>
</g>
<defs>
<clipPath id="clip0_651_9376">
<rect width="222" height="203" fill="white"/>
</clipPath>
</defs>
</svg>
