<svg width="225" height="99" viewBox="0 0 225 99" fill="none" xmlns="http://www.w3.org/2000/svg">
<mask id="mask0_671_15441" style="mask-type:luminance" maskUnits="userSpaceOnUse" x="0" y="0" width="223" height="99">
<path d="M223 0H0V99H223V0Z" fill="white"/>
</mask>
<g mask="url(#mask0_671_15441)">
<path d="M134.874 68.7831H165.274V81.2487H120.202V17.2373H134.874V68.7831Z" fill="#707070"/>
<path d="M197.534 56.8453H209.482V68.0464C207.288 68.8894 202.987 69.7325 198.905 69.7325C185.694 69.7325 181.301 62.9713 181.301 49.2412C181.301 36.1376 185.483 28.4267 198.682 28.4267C206.039 28.4267 210.213 30.7535 213.675 35.1906L222.802 26.7378C217.227 18.7262 207.5 16.2983 198.365 16.2983C177.83 16.2899 167.033 27.5809 167.033 49.1316C167.033 70.5755 176.79 82.2009 198.256 82.2009C208.113 82.2009 217.748 79.6718 222.992 75.9653V44.908H197.534V56.8453Z" fill="#707070"/>
<path d="M83.8308 84.5046C103.008 65.1737 103.007 33.8311 83.8288 14.4991C64.6506 -4.83292 33.5574 -4.83381 14.3803 14.4971C-4.79682 33.828 -4.79594 65.1706 14.3823 84.5026C33.5605 103.835 64.6536 103.835 83.8308 84.5046Z" fill="#A50034"/>
<path d="M61.1184 66.6081H51.0826V28.5986H47.3721V70.3596H51.0909V70.3343H61.1268L61.1184 66.6081Z" fill="white"/>
<path d="M86.1485 51.0739H61.1759V47.3449H89.8088C89.8479 48.0671 89.8674 48.7893 89.8674 49.52C89.8674 71.9727 71.7136 90.1709 49.3252 90.1709C26.9368 90.1709 8.78027 71.9811 8.78027 49.5171C8.78027 27.0532 26.9313 8.86621 49.3224 8.86621C49.9134 8.86621 50.5016 8.87838 51.0871 8.90274V12.6036C50.5016 12.5774 49.9153 12.5643 49.328 12.5643C28.9775 12.5643 12.474 29.1102 12.474 49.5171C12.474 69.9241 28.9747 86.4728 49.328 86.4728C69.121 86.4728 85.2899 70.8177 86.1457 51.1779L86.1485 51.0739Z" fill="white"/>
<path d="M34.2066 39.8496C35.3263 39.8441 36.4193 39.5043 37.3476 38.8732C38.276 38.2421 38.9981 37.3479 39.4227 36.3036C39.8474 35.2592 39.9557 34.1114 39.7339 33.005C39.5121 31.8987 38.9701 30.8834 38.1764 30.0872C37.3827 29.2911 36.3728 28.7497 35.2742 28.5316C34.1756 28.3134 33.0374 28.4282 32.0035 28.8614C30.9695 29.2946 30.086 30.0268 29.4645 30.9657C28.8429 31.9046 28.5112 33.008 28.5112 34.1367C28.5131 34.8888 28.6618 35.6331 28.949 36.3273C29.2362 37.0214 29.6563 37.6517 30.1851 38.1822C30.714 38.7127 31.3413 39.133 32.0313 39.4191C32.7213 39.7052 33.4605 39.8515 34.2066 39.8496Z" fill="white"/>
</g>
</svg>
