<svg width="316" height="74" viewBox="0 0 316 74" fill="none" xmlns="http://www.w3.org/2000/svg">
<path d="M31.6291 26.2252C32.9302 26.2252 33.5808 26.2252 33.9432 25.8142C34.3058 25.4033 34.2144 24.7685 34.0313 23.499L32.0357 9.66407C31.8933 8.68516 31.8222 8.19404 31.4833 7.90338C31.1412 7.60938 30.6398 7.60938 29.6369 7.60938H28.1292C27.1263 7.60938 26.6248 7.60938 26.2826 7.90338C25.9403 8.19738 25.8692 8.68516 25.7303 9.66407L23.7312 23.499C23.5484 24.7685 23.4569 25.4033 23.8193 25.8142C24.1819 26.2252 24.8325 26.2252 26.1334 26.2252H31.6291Z" fill="#FF6C37"/>
<path d="M19.5242 30.9594C19.9273 29.74 20.1273 29.1318 19.8427 28.6642C19.558 28.1964 18.9177 28.0861 17.6369 27.8657L3.67429 25.4602C2.68495 25.2898 2.19027 25.2063 1.80402 25.4334C1.41777 25.664 1.26192 26.1351 0.950203 27.0739L0.486023 28.4904C0.174312 29.4325 0.021844 29.9004 0.198028 30.3112C0.374214 30.7222 0.82484 30.9394 1.72609 31.3736L14.4521 37.5211C15.621 38.0856 16.2037 38.3663 16.712 38.1524C17.2202 37.9386 17.4235 37.3306 17.8233 36.1111L19.5242 30.9594Z" fill="#FF6C37"/>
<path d="M20.3498 43.7755C19.2995 43.0203 18.7709 42.6462 18.2322 42.7698C17.6935 42.8933 17.3885 43.458 16.7821 44.5939L10.148 56.9387C9.67708 57.8141 9.4433 58.2517 9.54493 58.6861C9.64659 59.1203 10.0532 59.411 10.8663 59.9925L12.0861 60.8644C12.8992 61.4456 13.3024 61.7364 13.753 61.6996C14.2037 61.6595 14.5527 61.3053 15.2506 60.5937L25.1101 50.5575C26.0149 49.6354 26.4656 49.1778 26.418 48.6331C26.3706 48.0886 25.8454 47.7144 24.7918 46.9594L20.3498 43.7755Z" fill="#FF6C37"/>
<path d="M32.9602 46.9627C31.9099 47.7178 31.3814 48.0919 31.334 48.6366C31.2864 49.1811 31.7371 49.6388 32.6418 50.5609L42.5014 60.5972C43.1992 61.3088 43.5484 61.663 43.9989 61.7031C44.4496 61.7432 44.856 61.4525 45.666 60.8677L46.8855 59.9957C47.6988 59.4145 48.1019 59.1238 48.207 58.6894C48.3121 58.2552 48.0749 57.8174 47.6038 56.9421L40.9767 44.5939C40.3668 43.4613 40.0653 42.8934 39.5265 42.7731C38.9877 42.6495 38.4625 43.0271 37.4089 43.7787L32.9602 46.9627Z" fill="#FF6C37"/>
<path d="M39.9387 36.118C40.3418 37.3373 40.5417 37.9454 41.05 38.1593C41.5582 38.3731 42.1444 38.0891 43.3098 37.5244L56.036 31.3771C56.9371 30.9427 57.3878 30.7257 57.564 30.3147C57.7402 29.9037 57.5844 29.4327 57.2759 28.4939L56.8117 27.0806C56.5001 26.1385 56.3476 25.6707 55.9579 25.4402C55.5716 25.2097 55.0771 25.2965 54.0876 25.4669L40.1285 27.8724C38.8477 28.0929 38.2072 28.2032 37.9226 28.6708C37.638 29.1386 37.8381 29.7468 38.2412 30.9661L39.9387 36.118Z" fill="#FF6C37"/>
<path d="M112.657 28.4372C110.468 26.2783 106.944 26.2783 99.8964 26.2783H71.3545V56.4329H79.8492V35.9947C79.8492 34.4153 79.8492 33.6255 80.3469 33.1351C80.8446 32.6443 81.645 32.6443 83.247 32.6443H99.5567C102.761 32.6443 104.361 32.6443 105.357 33.6255C106.352 34.6068 106.352 36.1865 106.352 39.3453V56.4329H114.847V41.0206C114.847 34.0709 114.847 30.5963 112.657 28.4372Z" fill="#023A4F"/>
<path fill-rule="evenodd" clip-rule="evenodd" d="M154.941 26.2783C159.746 26.2783 162.15 26.2783 163.642 27.7505C165.135 29.2225 165.135 31.5913 165.135 36.3298V39.6802C165.135 41.8916 165.135 42.997 164.438 43.6842C163.741 44.371 162.621 44.371 160.378 44.371H130.817C130.497 44.371 130.336 44.371 130.237 44.4691C130.137 44.5674 130.137 44.7254 130.137 45.0411V46.7164C130.137 48.2958 130.137 49.0855 130.635 49.576C131.133 50.0668 131.933 50.0668 133.535 50.0668H165.135V56.4329H131.836C127.031 56.4329 124.628 56.4329 123.136 54.9608C121.643 53.4887 121.643 51.1198 121.643 46.3812V36.3298C121.643 31.5913 121.643 29.2225 123.136 27.7505C124.628 26.2783 127.031 26.2783 131.836 26.2783H154.941ZM130.137 38.3401H153.752C154.864 38.3401 155.421 38.3401 155.829 38.0934C156.058 37.955 156.25 37.7655 156.39 37.5401C156.471 37.4101 156.525 37.2653 156.562 37.0915C156.64 36.7263 156.64 36.2353 156.64 35.4923C156.64 35.0099 156.64 34.6337 156.619 34.3294C156.593 33.9412 156.53 33.6699 156.39 33.4443C156.25 33.2188 156.058 33.0293 155.829 32.891C155.421 32.6443 154.864 32.6443 153.752 32.6443H133.535C131.933 32.6443 131.133 32.6443 130.635 33.1351C130.137 33.6255 130.137 34.4153 130.137 35.9947V38.3401Z" fill="#023A4F"/>
<path fill-rule="evenodd" clip-rule="evenodd" d="M207.059 19.0341C206.928 19.2104 206.928 19.4454 206.928 19.9155V25.6084C206.928 25.738 206.928 25.8411 206.923 25.9242C206.911 26.044 206.887 26.1225 206.83 26.1804C206.784 26.2236 206.729 26.2478 206.654 26.2612C206.557 26.2786 206.429 26.2785 206.249 26.2785H182.124C177.319 26.2785 174.916 26.2786 173.424 27.7507C171.931 29.2227 171.931 31.5919 171.931 36.33V46.3815C171.931 51.12 171.931 53.4892 173.424 54.961C174.916 56.4331 177.319 56.4331 182.124 56.4331H215.423V16.2271L207.869 18.6405C207.416 18.7854 207.189 18.858 207.059 19.0341ZM205.493 49.9917C205.017 50.067 204.389 50.067 203.531 50.067H183.823C182.221 50.067 181.421 50.067 180.923 49.5766C180.425 49.0858 180.425 48.296 180.425 46.7166V35.9949C180.425 34.4155 180.425 33.6257 180.923 33.1353C181.421 32.6445 182.221 32.6445 183.823 32.6445H206.928V46.7166C206.928 48.296 206.928 49.0858 206.431 49.5766C206.2 49.8044 205.903 49.9265 205.493 49.9917Z" fill="#023A4F"/>
<path fill-rule="evenodd" clip-rule="evenodd" d="M232.412 56.4329C227.607 56.4329 225.203 56.4329 223.712 54.9608C222.219 53.4887 222.219 51.1198 222.219 46.3812V43.0308C222.219 42.1369 222.219 41.4235 222.267 40.8455C222.334 39.9941 222.5 39.4363 222.916 39.0269C223.254 38.6951 223.689 38.5237 224.301 38.435C224.654 38.3839 225.067 38.3603 225.553 38.3497C225.97 38.3401 226.44 38.3401 226.977 38.3401H256.537C256.645 38.3401 256.738 38.3401 256.813 38.3361C256.873 38.3332 256.922 38.3281 256.963 38.3184C257.029 38.3045 257.078 38.2809 257.118 38.242C257.165 38.1948 257.191 38.1337 257.204 38.048C257.21 38.0057 257.212 37.9576 257.214 37.9023L257.216 37.8127V35.9947C257.216 35.6385 257.216 35.3224 257.212 35.0406C257.202 34.5997 257.181 34.2433 257.119 33.95C257.08 33.7501 257.023 33.5797 256.942 33.4319C256.882 33.3212 256.809 33.2233 256.719 33.1351C256.221 32.6443 255.421 32.6443 253.819 32.6443H222.219V26.2783H255.518C260.323 26.2783 262.727 26.2783 264.218 27.7505C265.713 29.2225 265.713 31.5913 265.713 36.3298V56.4329H232.412ZM257.216 44.371H233.601C232.489 44.371 231.934 44.371 231.525 44.6177C231.433 44.6729 231.348 44.7368 231.269 44.8078C231.235 44.8388 231.2 44.8716 231.168 44.9053C231.14 44.9351 231.113 44.9658 231.089 44.9976C231.044 45.0525 231.002 45.1105 230.965 45.171C230.714 45.5738 230.714 46.1222 230.714 47.219C230.714 47.9761 230.714 48.4717 230.797 48.8389C230.834 49.0034 230.886 49.1422 230.965 49.2668C231.105 49.4922 231.296 49.6817 231.525 49.8201C231.934 50.0668 232.489 50.0668 233.601 50.0668H253.819L254.473 50.0652C254.734 50.0632 254.967 50.0587 255.18 50.0481C255.925 50.0116 256.389 49.9023 256.719 49.576C256.91 49.3879 257.029 49.1553 257.102 48.851C257.216 48.3628 257.216 47.6894 257.216 46.7164V44.371Z" fill="#023A4F"/>
<path fill-rule="evenodd" clip-rule="evenodd" d="M280.987 63.3275C280.979 63.4155 280.963 63.4894 280.938 63.5539C280.92 63.5987 280.9 63.6392 280.872 63.6772C280.742 63.8533 280.515 63.926 280.063 64.0709L272.506 66.4843V26.2783H305.807C310.61 26.2783 313.014 26.2783 314.507 27.7505C316 29.2225 316 31.5917 316 36.3298V46.3812C316 51.1198 316 53.4889 314.507 54.9608C313.014 56.4329 310.61 56.4329 305.807 56.4329H281.682C281.587 56.4329 281.508 56.4329 281.439 56.4354C281.372 56.4378 281.315 56.4423 281.267 56.4517C281.196 56.4659 281.143 56.4897 281.102 56.5309C281.048 56.5826 281.025 56.651 281.013 56.7505C281.001 56.8397 281.001 56.9537 281.001 57.1029V62.7958V63.0539C280.999 63.159 280.995 63.2491 280.987 63.3275ZM282.385 32.7286C282 32.796 281.722 32.9171 281.499 33.1351C281.001 33.6255 281.001 34.4153 281.001 35.9947V50.0668H304.106C305.71 50.0668 306.51 50.0668 307.008 49.5764C307.505 49.0855 307.505 48.2958 307.505 46.7164V35.9947C307.505 34.4153 307.505 33.6255 307.008 33.1351C306.51 32.6443 305.71 32.6443 304.106 32.6443H284.4C283.815 32.6443 283.337 32.6443 282.94 32.6684C282.733 32.6808 282.551 32.6999 282.385 32.7286Z" fill="#023A4F"/>
</svg>
