<svg width="359" height="51" viewBox="0 0 359 51" fill="none" xmlns="http://www.w3.org/2000/svg">
<g clip-path="url(#clip0_671_15475)">
<path d="M36.471 0.904063H33.4172C31.5866 0.904063 30.5714 1.92413 30.5714 3.7636V34.3472L9.82711 2.81042C9.08488 1.44754 8.06639 0.904063 6.44046 0.904063H2.77922C0.948595 0.904063 0 1.92413 0 3.7636V47.1123C0 49.0186 0.948595 49.9735 2.77922 49.9735H5.8971C7.72772 49.9735 8.67632 49.0203 8.67632 47.1123V15.8213L29.4872 48.0663C30.2336 49.4291 31.3178 49.981 32.8089 49.981H36.4702C38.2925 49.981 39.3159 49.0278 39.3159 47.1215V3.76778C39.3159 1.92831 38.2925 0.908244 36.4702 0.908244M78.0511 42.4133H57.6313V28.6942H72.0766C73.9072 28.6942 74.924 27.741 74.924 25.8347V23.9266C74.924 22.0872 73.9072 21.134 72.0783 21.134H57.6313V8.46426H76.9652C78.7958 8.46426 79.811 7.51109 79.811 5.67162V3.76527C79.811 1.9258 78.7958 0.904063 76.9652 0.904063H51.7334C49.9028 0.904063 48.9542 1.92413 48.9542 3.7636V47.1123C48.9542 49.0186 49.9028 49.9735 51.7334 49.9735H78.0511C79.88 49.9735 80.8969 49.0203 80.8969 47.1123V45.2059C80.8969 43.3664 79.88 42.4133 78.0511 42.4133ZM125.123 0.904063H90.5492C88.652 0.904063 87.7018 1.92413 87.7018 3.7636V5.67162C87.7018 7.51109 88.6504 8.46426 90.5492 8.46426H103.497V47.1123C103.497 49.0186 104.445 49.9735 106.276 49.9735H109.326C111.224 49.9735 112.172 49.0203 112.172 47.1123V8.46426H125.12C126.95 8.46426 127.899 7.51109 127.899 5.67162V3.76527C127.899 1.9258 126.95 0.904063 125.12 0.904063M141.465 14.4576C141.465 11.1883 144.311 9.00941 148.785 9.00941C152.513 9.00941 155.158 10.5061 157.123 11.6599C158.548 12.4041 159.971 12.68 160.987 10.7067L162.211 8.45757C163.026 6.96092 162.826 5.66493 161.329 4.56962C159.297 3.0738 154.621 0.899883 148.921 0.899883C139.773 0.899883 132.72 6.41828 132.72 14.93C132.72 29.9852 155.16 28.078 155.16 37.2711C155.16 40.5429 152.448 42.7895 147.975 42.7895C143.232 42.7895 139.774 40.3397 138.214 39.2494C136.52 38.2962 135.369 38.3631 134.283 39.8597L132.793 42.0395C131.437 43.879 132.114 45.0353 133.198 45.9885C135.573 47.828 141.13 50.894 147.976 50.894C158.078 50.894 163.906 44.4225 163.906 36.5897C163.906 21.1934 141.465 23.5094 141.465 14.4492M210.196 39.1064C209.114 37.5429 207.758 37.5429 206.269 38.6298C204.03 40.2661 199.895 42.8522 194.469 42.8522C184.093 42.8522 178.268 34.6123 178.268 25.5529C178.268 16.6315 183.893 8.93082 194.403 8.93082C199.354 8.93082 203.148 10.9768 205.245 12.3397C206.868 13.3631 208.158 13.226 209.106 11.6599L210.321 9.67831C211.27 8.18165 211.203 6.81878 209.78 5.72346C207.201 3.884 201.917 0.882324 194.048 0.882324C179.486 0.892358 169.251 11.6532 169.251 25.6833C169.251 39.9183 179.012 50.884 194.131 50.884C202.67 50.884 208.435 47.0713 211.143 44.889C212.499 43.7327 212.566 42.3021 211.551 40.94L210.195 39.1006M309.575 0.905736H306.454C304.624 0.905736 303.675 1.9258 303.675 3.76527V32.6449C303.675 39.1833 299.407 42.8623 292.966 42.8623C286.526 42.8623 282.324 39.1833 282.324 32.6449V3.7661C282.324 1.92664 281.375 0.906572 279.476 0.906572H276.426C274.596 0.906572 273.647 1.92664 273.647 3.7661V32.7143C273.647 43.5437 281.374 50.8999 293.034 50.8999C304.625 50.8999 312.355 43.5437 312.355 32.7143V3.7636C312.355 1.92413 311.406 0.904063 309.576 0.904063M356.223 0.904063H321.649C319.752 0.904063 318.804 1.92413 318.804 3.7636V5.67162C318.804 7.51109 319.752 8.46426 321.649 8.46426H334.597V47.1123C334.597 49.0186 335.546 49.9735 337.376 49.9735H340.43C342.336 49.9735 343.284 49.0203 343.284 47.1123V8.46426H356.232C358.062 8.46426 359.011 7.51109 359.011 5.67162V3.76527C359.011 1.9258 358.062 0.904063 356.232 0.904063" fill="#474A50"/>
<path d="M240.943 0.904003H222.125C219.911 0.904003 218.119 2.70584 218.119 4.92825C218.119 7.15233 219.912 8.95333 222.125 8.95333H240.063C239.991 8.96002 239.917 8.97256 239.845 8.98009C240.208 8.95668 240.573 8.94079 240.943 8.94079C250.163 8.94079 256.807 16.1615 256.807 25.5612C256.807 35.3689 250.164 42.8622 240.944 42.8622C231.733 42.8622 225.084 35.3706 225.084 25.5612C225.084 19.7 227.672 14.6874 231.849 11.7435C231.791 11.7853 231.725 11.8187 231.666 11.8689H226.033C224.211 11.8689 222.688 10.6314 222.205 8.95083C218.336 13.2987 216.089 19.1013 216.089 25.5562C216.089 39.7869 226.391 50.8906 240.967 50.8906C255.546 50.8906 265.847 39.7869 265.847 25.5478C265.847 11.7184 255.546 0.890625 240.967 0.890625" fill="#80CC28"/>
<path d="M222.19 8.95361L222.188 8.95561C222.188 8.95561 222.19 8.95561 222.191 8.95361" fill="#80CC28"/>
<path d="M226.018 11.8699H231.656C231.714 11.8255 231.781 11.7862 231.839 11.7444C234.094 10.1558 236.807 9.17337 239.835 8.98023C239.902 8.97187 239.977 8.96016 240.052 8.95264H222.178V8.961L222.17 8.96936C222.653 10.65 224.175 11.8874 225.998 11.8874" fill="#6A9E47"/>
<path d="M354.938 46.322H355.312C355.748 46.322 356.103 46.1765 356.103 45.8203C356.103 45.5067 355.873 45.2969 355.375 45.2969C355.167 45.2969 355.025 45.3136 354.942 45.3387V46.3169L354.938 46.322ZM354.916 48.2668H354.126V44.8387C354.438 44.7801 354.874 44.7383 355.436 44.7383C356.081 44.7383 356.373 44.847 356.623 44.9892C356.814 45.1397 356.956 45.4072 356.956 45.7417C356.956 46.1179 356.664 46.4106 356.248 46.536V46.5778C356.581 46.7032 356.772 46.9541 356.872 47.4139C356.981 47.9407 357.039 48.1497 357.122 48.2751H356.273C356.173 48.1497 356.107 47.8403 356.007 47.439C355.949 47.0628 355.741 46.8955 355.3 46.8955H354.925V48.2751L354.916 48.2668ZM352.815 46.4691C352.815 47.9992 353.938 49.2116 355.478 49.2116C356.975 49.2116 358.079 47.9992 358.079 46.4942C358.079 44.9725 356.981 43.735 355.458 43.735C353.943 43.735 352.82 44.9725 352.82 46.4775L352.815 46.4691ZM358.953 46.4691C358.953 48.4173 357.438 49.939 355.458 49.939C353.502 49.939 351.946 48.4173 351.946 46.4691C351.946 44.5711 353.511 43.041 355.466 43.041C357.446 43.041 358.961 44.5711 358.961 46.4691" fill="#474A50"/>
</g>
<defs>
<clipPath id="clip0_671_15475">
<rect width="359" height="50" fill="white" transform="translate(0 0.899902)"/>
</clipPath>
</defs>
</svg>
