<svg width="383" height="107" viewBox="0 0 383 107" fill="none" xmlns="http://www.w3.org/2000/svg">
<g clip-path="url(#clip0_671_15523)">
<path d="M1.00928 0.951859H382.023V105.989H1.00928V0.951859Z" fill="#901A35" stroke="white" stroke-width="4.54007" stroke-miterlimit="3.864"/>
<path d="M180.592 45.667C186.478 43.9255 193.376 42.2568 201.374 40.8514C201.05 43.1511 200.85 44.5899 200.772 45.1678C193.395 46.3589 185.776 47.8842 178.144 49.8301C178.592 49.0694 179.408 47.6837 180.592 45.667Z" fill="#FCAF1C"/>
<path d="M230.033 41.8599C222.627 42.3631 214.421 43.1611 205.798 44.4014L205.166 40.2206C211.997 39.1415 219.575 38.259 227.945 37.6831C228.975 39.7509 229.672 41.1444 230.033 41.8599Z" fill="#FCAF1C"/>
<path d="M264.941 41.3429L264.766 41.3331L265.278 37.2369C272.979 37.5376 281.136 38.0742 289.769 38.8939C289.769 38.8939 295.01 38.9037 297.008 42.5439C297.008 42.5439 297.846 46.1035 294.65 47.505C294.65 47.505 291.457 49.4253 287.223 45.3841C287.223 45.3841 280.514 42.023 264.941 41.3429Z" fill="#FCAF1C"/>
<path d="M239.479 41.3496L239.292 41.3574L237.367 37.1826L237.822 37.1649C243.628 36.9526 249.754 36.8838 256.23 36.986L255.735 41.0842C251.493 41.0449 245.954 41.0862 239.479 41.3496Z" fill="#FCAF1C"/>
<path fill-rule="evenodd" clip-rule="evenodd" d="M152.358 58.2686C152.358 58.2686 156.097 55.2495 164.575 51.4835L164.577 53.7596C161.089 54.9016 157.628 56.1438 154.215 57.4941L152.358 58.2686Z" fill="#FCAF1C"/>
<path fill-rule="evenodd" clip-rule="evenodd" d="M137.863 44.72C137.863 30.8805 139.778 19.663 142.144 19.663C144.509 19.663 146.425 30.8805 146.425 44.72C146.425 58.5594 144.509 69.7769 142.144 69.7769C139.778 69.7769 137.863 58.5594 137.863 44.72ZM133.856 44.72C133.856 29.4771 137.566 17.1196 142.144 17.1196C146.721 17.1196 150.431 29.4771 150.431 44.72C150.431 59.9629 146.721 72.3203 142.144 72.3203C137.566 72.3203 133.856 59.9629 133.856 44.72Z" fill="white"/>
<path d="M342.344 17.2421H337.653L330.398 44.6538L323.235 17.2421H318.972V20.1747H320.957V69.5869H318.776V72.0674H325.008V69.4866H323.334V35.1424L328.777 54.9022H330.156L335.713 36.0446V69.292H334.025V72.0674H342.142V69.292H339.863V19.8799H342.338L342.344 17.2421Z" fill="white"/>
<path d="M270.599 24.5593L269.842 20.2626C269.842 20.2626 268.882 18.7334 267.745 20.3589C267.745 20.3589 262.603 26.0885 262.697 44.496C262.697 44.496 261.759 57.0795 266.32 67.8664C266.32 67.8664 266.795 69.4919 269.271 69.4919H272.032V72.0668H267.365C267.365 72.0668 263.561 72.456 261.18 65.9657C261.18 65.9657 257.737 56.3286 258.22 44.496C258.22 44.496 257.177 10.427 272.317 18.6391V24.5593H270.599Z" fill="white"/>
<path d="M238.935 24.7069L238.007 20.135C238.007 20.135 237.852 19.3586 236.692 19.4353C236.692 19.4353 233.673 19.5906 232.899 22.4583C232.899 22.4583 230.579 26.9555 233.054 32.5357L239.708 46.4106C239.708 46.4106 245.511 57.9602 241.565 66.4848C241.565 66.4848 237.31 75.7112 227.87 70.2056L228.722 68.2696C228.722 68.2696 233.983 70.7501 236.15 69.044C236.15 69.044 242.417 64.1616 235.376 48.7359L228.877 35.0163C228.877 35.0163 225.627 27.1875 229.109 21.5286C229.109 21.5286 233.983 14.1656 240.56 18.8948V24.7069H238.935Z" fill="white"/>
<path d="M215.493 72.0674H208.994L204.507 38.7374L200.018 72.0674H195.375V69.8974H197.698L204.815 17.2421H206.672L213.018 69.5869H215.493V72.0674Z" fill="white"/>
<path fill-rule="evenodd" clip-rule="evenodd" d="M177.58 34.8378C177.58 42.6666 174.868 49.1077 171.393 49.8762C171.395 45.7289 171.397 35.7026 171.397 19.8013C174.872 20.5757 177.58 27.0109 177.58 34.8378ZM165.593 19.6814V17.2421H171.762C171.762 17.2421 177.973 16.6387 180.735 27.349C180.735 27.349 183.826 39.7929 174.925 51.2914C174.925 51.2914 180.366 57.1862 180.366 69.5869H182.377V72.0674H176.807C176.807 72.0674 176.342 59.0456 171.081 53.7739V72.0674H165.511V69.5869H166.902V19.6696L165.593 19.6814Z" fill="white"/>
<path d="M287.235 38.3103C288.107 26.173 291.416 17.1196 295.328 17.1196C299.903 17.1196 303.615 29.4751 303.615 44.72C303.615 59.9629 299.903 72.3203 295.328 72.3203C291.106 72.3203 287.622 61.8105 287.105 48.2206C287.739 48.7435 288.593 49.3646 289.357 49.6378C289.357 49.6378 289.995 49.9955 291.151 50.2353C291.579 61.4213 293.286 69.7769 295.328 69.7769C297.691 69.7769 299.609 58.5575 299.609 44.72C299.609 30.8805 297.691 19.663 295.328 19.663C293.32 19.663 291.667 27.6589 291.204 38.5717L287.235 38.3103Z" fill="white"/>
<path d="M60.4731 32.7086C60.6694 31.3268 62.0572 30.2084 63.5744 30.2084H72.4327C73.95 30.2084 75.0198 31.3268 74.8235 32.7086L69.8457 67.7898C69.6494 69.1697 68.2597 70.29 66.7444 70.29H57.8861C56.3688 70.29 55.2971 69.1697 55.4934 67.7898L60.4731 32.7086Z" fill="#FCAF1C"/>
<path d="M60.4731 32.7086C60.6694 31.3268 62.0572 30.2084 63.5744 30.2084H72.4327C73.95 30.2084 75.0198 31.3268 74.8235 32.7086L69.8457 67.7898C69.6494 69.1697 68.2597 70.29 66.7444 70.29H57.8861C56.3688 70.29 55.2971 69.1697 55.4934 67.7898L60.4731 32.7086Z" stroke="#901A35" stroke-width="0.177063" stroke-miterlimit="3.864" stroke-linejoin="round"/>
<path d="M92.5994 16.1093C94.2501 16.1093 95.2041 17.0921 94.731 18.3028L91.9811 25.3553C91.5081 26.568 89.7886 27.5488 88.1378 27.5488H44.9199C43.2692 27.5488 42.3152 26.568 42.7863 25.3553L45.5363 18.3028C46.0093 17.0921 47.7307 16.1093 49.3795 16.1093H92.5994Z" fill="#FCAF1C"/>
<path d="M92.5994 16.1093C94.2501 16.1093 95.2041 17.0921 94.731 18.3028L91.9811 25.3553C91.5081 26.568 89.7886 27.5488 88.1378 27.5488H44.9199C43.2692 27.5488 42.3152 26.568 42.7863 25.3553L45.5363 18.3028C46.0093 17.0921 47.7307 16.1093 49.3795 16.1093H92.5994Z" stroke="#901A35" stroke-width="0.177063" stroke-miterlimit="3.864" stroke-linejoin="round"/>
<path d="M89.1934 86.5569C89.1561 84.9118 88.6143 82.9442 87.5721 80.6485C85.1892 75.4024 80.8159 69.0281 74.4544 61.5256L75.9363 50.7523C86.3512 58.1979 93.492 66.1839 97.3666 74.7125C99.9772 80.4598 100.152 85.1181 97.8927 88.6876C95.5942 92.2315 91.3839 94.0929 85.2657 94.2776C75.5398 94.5685 65.068 90.718 53.8445 82.7202C43.3433 75.2491 36.1553 67.2512 32.2787 58.7207C29.623 52.8693 29.4993 48.1696 31.9097 44.6237C34.3201 41.0759 38.6148 39.2086 44.7879 39.0239C48.4663 38.9138 52.2939 39.4445 56.2706 40.614L55.7386 44.4803C52.2428 42.5304 49.01 41.6007 46.0422 41.6892C43.0253 41.7815 41.2352 42.8017 40.6777 44.7495C40.1066 46.6758 40.4245 48.9657 41.6297 51.6192C42.9075 54.4299 45.1059 58.0858 48.2268 62.5889C51.3497 67.094 54.7788 71.3671 58.5102 75.4083C64.4242 81.814 69.2882 86.1363 73.1098 88.3731C76.9177 90.5844 80.5117 91.6379 83.8937 91.5357C87.4994 91.4276 89.264 89.7687 89.1934 86.5569Z" fill="#FCAF1C" stroke="#901A35" stroke-width="0.740032" stroke-miterlimit="3.864"/>
</g>
<defs>
<clipPath id="clip0_671_15523">
<rect width="383" height="107" fill="white"/>
</clipPath>
</defs>
</svg>
