<svg width="17" height="23" viewBox="0 0 17 23" fill="none" xmlns="http://www.w3.org/2000/svg">
<g clip-path="url(#clip0_5062_332)">
<path fill-rule="evenodd" clip-rule="evenodd" d="M10.7015 0.315914C10.6103 0.354949 10.5406 0.482662 10.5587 0.577178C10.5946 0.764273 10.8183 0.8464 10.9596 0.724373C11.0534 0.643306 11.0749 0.529488 11.0166 0.421175C10.9598 0.315482 10.8152 0.267179 10.7015 0.315914ZM6.51982 0.323635C6.45406 0.339201 6.41051 0.371046 6.37231 0.431474L6.33884 0.484446L6.33176 1.27882C6.32375 2.17584 6.33303 2.10665 6.20503 2.22442C6.09275 2.32773 6.02653 2.35191 5.85581 2.35191C5.7554 2.35191 5.7058 2.34621 5.68935 2.33279C5.66832 2.31562 5.66592 2.26002 5.66587 1.78927C5.66582 1.2988 5.66408 1.26208 5.63892 1.2215C5.58312 1.13147 5.39347 1.08348 5.30891 1.138C5.28787 1.15156 5.25761 1.18915 5.24169 1.22152C5.19047 1.3256 5.17961 1.47992 5.18808 1.9826C5.19241 2.23938 5.19049 2.48266 5.18379 2.52324C5.16584 2.63193 5.11031 2.73927 5.02743 2.82547C4.94171 2.91463 4.8712 2.95816 4.74804 2.99792C4.61595 3.04056 4.54826 3.08304 4.50995 3.14735C4.46943 3.21538 4.46715 3.27947 4.50257 3.35533C4.54678 3.45004 4.57669 3.46684 4.70053 3.46659C4.96891 3.46602 5.31858 3.23846 5.52397 2.93069C5.56506 2.86914 5.60583 2.81869 5.61458 2.8186C5.62334 2.8185 6.16482 2.81549 6.81787 2.81191C7.53349 2.80799 8.05373 2.79948 8.12732 2.79047C8.49472 2.74557 8.73181 2.55095 8.85314 2.1947C8.91619 2.00957 8.93577 1.81534 8.90686 1.66205C8.87732 1.50541 8.83535 1.39962 8.76732 1.31031C8.62904 1.12876 8.41791 1.05918 8.16081 1.11044C7.83963 1.17445 7.35244 1.41995 6.95193 1.71958C6.89175 1.76459 6.83377 1.80143 6.82307 1.80143C6.79588 1.80143 6.78522 1.56385 6.78515 0.956859C6.78509 0.47253 6.78478 0.467206 6.75321 0.421593C6.6934 0.335132 6.61329 0.301504 6.51982 0.323635ZM9.39586 0.337627C9.37086 0.352622 9.3358 0.391797 9.31795 0.424673L9.28551 0.484446L9.2814 1.27185C9.27855 1.81708 9.28229 2.0886 9.29354 2.15468C9.31776 2.29699 9.40458 2.45723 9.51832 2.56953C9.68659 2.7357 9.88542 2.80703 10.1851 2.80874C10.5051 2.81058 10.7129 2.72945 10.869 2.54171C11.0108 2.37124 11.0319 2.26581 11.0434 1.66846L11.0521 1.21524L11.0157 1.1425C10.9538 1.01915 10.836 0.968314 10.7163 1.0133C10.6735 1.02938 10.6435 1.05302 10.6213 1.08812C10.5894 1.13849 10.5887 1.14893 10.5809 1.64813C10.5733 2.13453 10.5716 2.15934 10.5422 2.21486C10.502 2.29095 10.4486 2.3266 10.3325 2.35478C10.1164 2.40725 9.82948 2.30563 9.76496 2.15374C9.74986 2.1182 9.74371 1.92949 9.7364 1.27735L9.72708 0.446274L9.69104 0.404145C9.61685 0.317405 9.48072 0.286717 9.39586 0.337627ZM4.30448 0.355814C4.2017 0.423349 4.2068 0.360385 4.20678 1.56241C4.20676 2.75425 4.20273 2.70061 4.29704 2.7668C4.36019 2.8111 4.50665 2.8111 4.5698 2.7668C4.66411 2.70061 4.66009 2.75425 4.66006 1.56241C4.66005 0.360385 4.66515 0.423349 4.56237 0.355814C4.49516 0.311635 4.37168 0.311635 4.30448 0.355814ZM3.47009 0.367241C3.24181 0.396145 2.99354 0.459486 2.81206 0.535118C2.43946 0.690411 2.04984 1.14036 2.0707 1.39128C2.08167 1.52323 2.13026 1.5588 2.40586 1.63664C2.77326 1.74041 3.23081 1.94471 3.35804 2.06179C3.42114 2.11984 3.51259 2.26781 3.51259 2.31184C3.51259 2.32184 3.5007 2.33628 3.4862 2.34393C3.47075 2.35205 3.22526 2.36139 2.89474 2.36641C2.22961 2.37652 1.83938 2.35612 1.77359 2.3078C1.70097 2.25447 1.68397 2.21705 1.67112 2.08226C1.65709 1.9352 1.63107 1.87986 1.55781 1.84133C1.4983 1.81003 1.38786 1.80731 1.3319 1.83577C1.30984 1.84699 1.27438 1.87653 1.2531 1.90141C1.21456 1.94648 1.21444 1.94724 1.22093 2.12139C1.22622 2.26336 1.23413 2.31371 1.26305 2.38966C1.36105 2.64703 1.56497 2.77565 1.9211 2.80466C2.12506 2.82129 3.13454 2.82194 3.39925 2.80562C3.62278 2.79184 3.71714 2.76312 3.81374 2.67947C3.90295 2.60222 3.94107 2.5095 3.94877 2.3511C3.95653 2.19127 3.93586 2.09389 3.86435 1.95335C3.72206 1.67367 3.40783 1.48578 2.6658 1.23673C2.61332 1.2191 2.81397 1.05312 2.9955 0.96398C3.15624 0.885059 3.27 0.858134 3.63658 0.812214C3.90203 0.778948 3.92011 0.773694 3.97016 0.715189C4.06258 0.607141 4.02616 0.445703 3.89446 0.379603C3.84987 0.357221 3.8135 0.352385 3.70086 0.353821C3.62458 0.354796 3.52073 0.360831 3.47009 0.367241ZM13.5573 1.02962C13.4637 1.10712 13.4654 1.09544 13.4576 1.72255C13.4505 2.289 13.4504 2.29182 13.4192 2.31662C13.3542 2.36838 13.0608 2.36475 13.0067 2.31152C12.9868 2.292 12.9815 2.24379 12.974 2.01347C12.9638 1.70325 12.9506 1.62664 12.8836 1.48786C12.7319 1.17371 12.3542 0.99301 12.0077 1.06884C11.706 1.13488 11.4562 1.3638 11.3826 1.64175C11.3573 1.7375 11.3543 1.92195 11.3765 2.02721C11.4002 2.14011 11.4802 2.29201 11.5628 2.38107C11.7988 2.63565 12.1544 2.7106 12.4836 2.57514C12.5269 2.55736 12.5115 2.59804 12.4381 2.69593C12.3268 2.84439 12.188 2.937 11.9518 3.02051C11.8095 3.07082 11.754 3.16178 11.7859 3.29263C11.8109 3.39507 11.8957 3.45985 12.0049 3.45985C12.0309 3.45985 12.0958 3.44658 12.1492 3.43037C12.426 3.34637 12.6692 3.16365 12.8411 2.91052L12.9175 2.79787L13.1699 2.79701C13.3991 2.79621 13.4341 2.79276 13.5522 2.75923L13.6822 2.72231L13.8213 2.75856C13.9392 2.78925 13.9909 2.79484 14.1588 2.79506C14.326 2.79527 14.3739 2.79028 14.4634 2.76327C14.5964 2.72316 14.6377 2.72373 14.7963 2.7679C15.0346 2.83423 15.3434 2.81065 15.5275 2.71205C15.6623 2.63988 15.7624 2.49732 15.7958 2.32999C15.806 2.27898 15.8076 2.07578 15.801 1.70582C15.7915 1.18274 15.7897 1.15467 15.7609 1.10106C15.7211 1.02717 15.6553 0.993121 15.552 0.993121C15.4851 0.993121 15.4637 0.999518 15.4259 1.03079C15.3427 1.09965 15.3418 1.10723 15.3415 1.69994C15.3413 2.28413 15.3402 2.29376 15.2655 2.32897C15.1831 2.36783 14.9606 2.36164 14.8906 2.31855C14.8754 2.3092 14.8696 2.19012 14.8619 1.73012C14.8534 1.22452 14.8493 1.14794 14.8281 1.1092C14.7723 1.00742 14.6399 0.96713 14.5318 1.01904C14.4981 1.03521 14.4546 1.0716 14.4351 1.09987L14.3997 1.15128L14.3903 1.72184C14.3851 2.03564 14.3755 2.29732 14.369 2.30337C14.3435 2.32699 14.218 2.35888 14.1505 2.35888C14.0603 2.35888 13.9596 2.33425 13.9361 2.30644C13.9223 2.29009 13.9163 2.15004 13.9109 1.71918C13.9042 1.18357 13.9023 1.15078 13.8752 1.10461C13.814 1.00047 13.6417 0.959813 13.5573 1.02962ZM12.0475 1.5301C11.6907 1.65999 11.7829 2.18119 12.1626 2.18119C12.4426 2.18119 12.6015 1.87293 12.4368 1.64931C12.3523 1.53455 12.1801 1.48181 12.0475 1.5301ZM8.23717 1.56646C7.96653 1.61748 7.84359 1.67848 7.33051 2.01642C6.88948 2.3069 6.84472 2.33856 6.8574 2.35105C6.86118 2.35477 7.15406 2.35328 7.50823 2.34776L8.15217 2.3377L8.229 2.29603C8.31694 2.24832 8.37202 2.1809 8.41505 2.06824C8.47122 1.92115 8.46457 1.67557 8.40217 1.59238C8.37248 1.55279 8.33822 1.54741 8.23717 1.56646ZM8.54459 20.005C8.53292 20.0165 8.52759 20.0857 8.52759 20.2258V20.4298L8.49151 20.446C8.47166 20.4549 8.431 20.4621 8.40115 20.4621C8.324 20.4621 8.31026 20.4859 8.30759 20.6238C8.30472 20.773 8.31503 20.7885 8.41607 20.7868C8.45792 20.7861 8.50015 20.7919 8.50988 20.7997C8.52347 20.8107 8.52759 20.9345 8.52759 21.3321C8.52759 21.7165 8.53198 21.8545 8.54459 21.8669C8.57081 21.8927 8.92962 21.89 8.9517 21.8638C8.96378 21.8495 8.96936 21.7008 8.97176 21.3306C8.97357 21.0482 8.98011 20.8092 8.98631 20.7993C8.99346 20.788 9.0226 20.7825 9.06625 20.7845C9.17251 20.7893 9.18093 20.7759 9.17618 20.6099L9.17217 20.4691L9.08194 20.4593C9.03232 20.4539 8.98864 20.4465 8.98487 20.4428C8.98112 20.4391 8.97467 20.3432 8.97057 20.2296C8.96644 20.1161 8.95675 20.0153 8.94902 20.0057C8.9297 19.9818 8.56884 19.9812 8.54459 20.005ZM14.5094 20.9321L14.513 21.8767H14.7184H14.9238L14.9336 21.4795C14.939 21.261 14.9508 21.0488 14.9597 21.0079C14.9964 20.8404 15.1655 20.7673 15.3064 20.8581C15.3843 20.9083 15.389 20.9352 15.4025 21.4098C15.41 21.6746 15.4208 21.8557 15.4297 21.8662C15.4504 21.8908 15.8142 21.8908 15.8339 21.8662C15.8744 21.8158 15.862 20.9482 15.8185 20.7897C15.7902 20.6865 15.7442 20.6065 15.6729 20.5364C15.5768 20.4418 15.5022 20.4135 15.3488 20.4135C15.2009 20.4135 15.0911 20.4443 15.019 20.506C14.929 20.5829 14.9273 20.5783 14.9329 20.2705L14.938 19.9953L14.7219 19.9914L14.5057 19.9876L14.5094 20.9321ZM1.54158 20.4282C1.3483 20.4868 1.1748 20.7027 1.17523 20.8843C1.17541 20.961 1.22862 21.0715 1.29159 21.1258C1.35114 21.1773 1.5083 21.253 1.71342 21.3291C1.93731 21.4121 1.95502 21.4406 1.84808 21.5458C1.79161 21.6014 1.7792 21.6075 1.73828 21.5999C1.70705 21.5942 1.67149 21.5687 1.62807 21.5211L1.56396 21.4508L1.36598 21.4547C1.17455 21.4585 1.16786 21.4596 1.1636 21.4891C1.15598 21.5417 1.23439 21.6775 1.32364 21.7664C1.43659 21.8789 1.52568 21.9137 1.7222 21.9223C1.93119 21.9313 2.07545 21.8856 2.20326 21.7697C2.3448 21.6413 2.38506 21.4385 2.30108 21.2769C2.23164 21.1432 2.12331 21.0774 1.82923 20.9901C1.72534 20.9593 1.62008 20.8974 1.60479 20.8583C1.59367 20.8297 1.63808 20.7847 1.69102 20.7708C1.74674 20.7562 1.80215 20.7716 1.85666 20.8167C1.89838 20.8512 1.90605 20.8524 2.09701 20.8524C2.32361 20.8524 2.31702 20.8575 2.26516 20.7212C2.20867 20.5727 2.06759 20.457 1.90044 20.4221C1.79899 20.4009 1.62175 20.4039 1.54158 20.4282ZM3.24727 20.4264C3.03207 20.4777 2.81671 20.6494 2.7276 20.8407C2.70139 20.8969 2.67286 20.9762 2.66419 21.0168C2.59654 21.3337 2.76345 21.681 3.0561 21.8323C3.18401 21.8984 3.29395 21.9255 3.43467 21.9255C3.66042 21.9255 3.84871 21.8457 4.00326 21.6845C4.30492 21.3699 4.288 20.9041 3.96421 20.6092C3.87127 20.5245 3.71833 20.4457 3.60044 20.4217C3.50322 20.4019 3.34107 20.4041 3.24727 20.4264ZM5.34717 20.4153C5.22345 20.4339 5.15639 20.4632 5.1111 20.5186C5.05562 20.5866 5.02134 20.5862 5.02134 20.5176V20.4691L4.82692 20.4652C4.63484 20.4614 4.63241 20.4617 4.62466 20.4931C4.62035 20.5106 4.61858 20.829 4.62075 21.2008L4.62467 21.8767H4.83717H5.04967L5.05705 21.4447C5.06493 20.9833 5.06881 20.9575 5.14144 20.8829C5.18394 20.8392 5.22864 20.8245 5.31867 20.8245C5.38019 20.8245 5.40307 20.8315 5.43938 20.8616C5.46403 20.882 5.49145 20.9149 5.5003 20.9347C5.51067 20.958 5.51906 21.1318 5.52387 21.4238L5.53134 21.8767H5.74384H5.95634L5.96006 21.3994C5.96406 20.8881 5.95505 20.7912 5.89157 20.6622C5.84713 20.5719 5.7496 20.4828 5.65833 20.4492C5.57963 20.4203 5.42587 20.4035 5.34717 20.4153ZM6.91967 20.4328C6.56021 20.536 6.36804 20.7973 6.37036 21.1799C6.3722 21.4819 6.52179 21.752 6.74459 21.8556C6.86557 21.9119 6.9645 21.9294 7.12517 21.9231C7.25637 21.9179 7.26562 21.9154 7.36072 21.8589C7.48236 21.7866 7.52176 21.7825 7.52176 21.8422V21.8844L7.7378 21.8805L7.95384 21.8767L7.95752 21.1884C7.96017 20.6918 7.95673 20.4949 7.94515 20.4812C7.93308 20.4668 7.88313 20.4622 7.74315 20.4624C7.64085 20.4625 7.54972 20.4672 7.54061 20.4729C7.53152 20.4786 7.52195 20.5034 7.51936 20.5279L7.51467 20.5725L7.42779 20.518C7.25503 20.4097 7.09413 20.3827 6.91967 20.4328ZM10.1811 20.4216C10.1046 20.4393 10.0522 20.4688 10.0106 20.5174C9.96988 20.565 9.94426 20.5718 9.94426 20.5349C9.94426 20.5213 9.9337 20.4953 9.92081 20.4772C9.89783 20.445 9.89402 20.4445 9.72905 20.4519C9.62832 20.4565 9.55236 20.4664 9.53987 20.4766C9.5219 20.4913 9.51951 20.59 9.52267 21.1852L9.52634 21.8767H9.73884H9.95134L9.95842 21.4422C9.96517 21.0289 9.96695 21.0057 9.99514 20.9683C10.0411 20.9073 10.1076 20.8698 10.1888 20.8591C10.2296 20.8537 10.271 20.8429 10.2807 20.8352C10.2934 20.8251 10.2984 20.7645 10.2984 20.6222C10.2984 20.3898 10.3008 20.3939 10.1811 20.4216ZM11.0869 20.4339C10.9241 20.4851 10.7505 20.6291 10.6703 20.7795C10.5924 20.9256 10.5749 20.9978 10.5749 21.1729C10.5749 21.2926 10.5816 21.3526 10.6013 21.4098C10.6949 21.6813 10.8854 21.862 11.1312 21.9124C11.2208 21.9308 11.433 21.9225 11.5218 21.8971C11.5518 21.8886 11.6035 21.8569 11.6367 21.8268C11.7085 21.7617 11.7293 21.7585 11.7293 21.8123C11.7293 21.88 11.7567 21.8896 11.9488 21.8896C12.0653 21.8896 12.1297 21.884 12.1437 21.8726C12.1614 21.8581 12.1657 21.7539 12.1715 21.1902C12.1753 20.8243 12.1732 20.5107 12.1667 20.4935C12.1553 20.4631 12.1492 20.4621 11.9624 20.4621C11.7614 20.4621 11.7151 20.4727 11.7151 20.5184C11.7151 20.5535 11.7143 20.5533 11.6263 20.5051C11.4519 20.4096 11.2494 20.3828 11.0869 20.4339ZM13.1601 20.4275C13.0464 20.455 12.9798 20.4853 12.8801 20.555C12.6398 20.7231 12.5131 21.0655 12.5868 21.3477C12.6246 21.4924 12.6754 21.5764 12.7977 21.6961C13.0739 21.9665 13.441 22.0123 13.7533 21.8151C13.9038 21.7201 14.1045 21.4616 14.0925 21.3782C14.0885 21.3502 14.0775 21.3462 13.9818 21.3376C13.9233 21.3324 13.8294 21.3338 13.7731 21.3407C13.6808 21.3521 13.6626 21.3598 13.5895 21.4183C13.4916 21.4968 13.4356 21.5213 13.3553 21.5212C13.2822 21.521 13.1676 21.4704 13.1148 21.4151C13.0169 21.3123 12.984 21.126 13.0437 21.0121C13.107 20.8911 13.2216 20.8195 13.3513 20.8199C13.4622 20.8202 13.5275 20.8492 13.6115 20.9353L13.68 21.0057H13.886C14.0636 21.0057 14.0933 21.0025 14.1009 20.9829C14.1061 20.9697 14.0874 20.9152 14.0567 20.854C13.9937 20.7283 13.8321 20.5596 13.7172 20.4997C13.557 20.4163 13.3291 20.3867 13.1601 20.4275ZM3.30717 20.8439C3.1798 20.8986 3.10192 21.0236 3.10221 21.1729C3.10242 21.2884 3.13444 21.3588 3.22067 21.4335C3.36231 21.5561 3.55597 21.5426 3.68216 21.4012C3.74654 21.3291 3.76762 21.2719 3.76745 21.1699C3.76722 21.0218 3.68691 20.896 3.55908 20.8433C3.50155 20.8196 3.36295 20.8199 3.30717 20.8439ZM6.99997 20.8608C6.88018 20.9195 6.81004 21.0316 6.80944 21.1652C6.80882 21.3052 6.87748 21.4172 7.00467 21.4837C7.07942 21.5227 7.23671 21.5256 7.31078 21.4893C7.47032 21.4112 7.55088 21.2362 7.50239 21.0732C7.44021 20.8642 7.20012 20.7627 6.99997 20.8608ZM11.2082 20.8548C11.0413 20.9344 10.9619 21.1566 11.0435 21.316C11.0761 21.3796 11.1459 21.449 11.2122 21.4838C11.2917 21.5255 11.4444 21.5253 11.5252 21.4834C11.5938 21.4477 11.6678 21.3687 11.6972 21.2996C11.7088 21.2723 11.718 21.2108 11.7177 21.163C11.7169 21.0192 11.6362 20.9023 11.4987 20.8458C11.4237 20.815 11.2825 20.8193 11.2082 20.8548Z" fill="black"/>
<path fill-rule="evenodd" clip-rule="evenodd" d="M1.6716 4.35751C1.41746 4.41175 1.22336 4.59879 1.15897 4.85149C1.1427 4.91541 1.13945 5.41239 1.13945 7.84083V10.7535L1.17185 10.8417C1.24872 11.0509 1.40352 11.2047 1.6059 11.2728C1.67351 11.2956 1.9944 11.2975 6.99029 11.304C11.9384 11.3105 12.3064 11.3126 12.3556 11.3345C12.4382 11.3714 12.4681 11.4308 12.4628 11.5479C12.4577 11.6623 12.4259 11.7177 12.342 11.7587C12.2902 11.7841 12.1268 11.785 6.71404 11.7918L1.13945 11.7987V13.4223V15.0459L4.05637 15.0494C6.18386 15.052 6.97847 15.0572 6.99241 15.0686C7.02045 15.0914 7.0196 15.4548 6.99143 15.4927C6.97167 15.5193 6.92124 15.5199 4.05539 15.5267L1.13945 15.5337L1.13585 17.152C1.13285 18.5014 1.13544 18.773 1.15148 18.7861C1.16572 18.7977 3.08374 18.8009 8.51468 18.7983L15.8586 18.7948L15.8622 17.1538L15.8658 15.5128H12.9417H10.0175L10.008 15.3839C10.0028 15.313 10.0006 15.211 10.0032 15.1574L10.0078 15.0598L12.657 15.0529L15.3061 15.0459L15.3966 15.0138C15.6236 14.9331 15.7655 14.7861 15.8341 14.5604C15.8533 14.4972 15.8577 14.1428 15.8696 11.6493C15.8818 9.10846 15.8809 8.79668 15.8613 8.68201C15.82 8.44133 15.7002 8.27121 15.5063 8.17797C15.3306 8.09347 15.6879 8.09865 10.0439 8.09865C6.69481 8.09865 4.85023 8.0938 4.80233 8.08487C4.70815 8.0673 4.64936 8.02591 4.61602 7.9537C4.55787 7.82772 4.59701 7.71478 4.71958 7.65495L4.78633 7.62235L10.3225 7.61314L15.8586 7.60391V5.97337V4.34282L8.8107 4.34044C2.8249 4.33841 1.74904 4.34098 1.6716 4.35751Z" fill="#EC8C34"/>
</g>
<defs>
<clipPath id="clip0_5062_332">
<rect width="17" height="22" fill="white" transform="translate(0 0.214844)"/>
</clipPath>
</defs>
</svg>
