<svg width="227" height="38" viewBox="0 0 227 38" fill="none" xmlns="http://www.w3.org/2000/svg">
<g clip-path="url(#clip0_671_15507)">
<path fill-rule="evenodd" clip-rule="evenodd" d="M191.503 31.2227H211.299C214.375 31.2227 216.059 30.9377 217.044 30.3107C218.262 29.5697 218.955 28.3157 218.955 26.8337C218.955 25.0667 218.028 23.5315 216.463 22.7886C215.65 22.3326 214.142 22.1046 212.283 22.1046H204.022C199.382 22.1046 196.366 21.3066 194.337 19.6004C192.016 17.6054 190.68 14.5293 190.68 11.2214C190.68 6.3821 193.404 2.166 197.407 0.7999C199.155 0.1691 201.179 0 205.707 0H225.882V6.7792H207.561C203.907 6.8381 202.493 6.8381 201.275 7.1212C199.65 7.5202 198.665 9.0022 198.665 10.9953C198.665 12.7053 199.474 14.0733 200.869 14.7003C202.028 15.2114 204.081 15.3254 206.869 15.3254H213.074C218.764 15.3254 221.838 16.1804 224.102 18.4604C225.842 20.1666 227 23.5296 227 26.8318C227 30.8788 225.084 34.6408 222.067 36.4629C220.156 37.6561 217.716 38 211.971 38H191.503V31.2227ZM162.801 10.3607C161.696 12.16 161.17 15.048 161.17 18.9202C161.17 27.4227 164.006 31.2949 170.303 31.2949C176.494 31.2949 179.33 27.4227 179.33 19.0285C179.33 10.5222 176.549 6.7051 170.303 6.7051C166.892 6.7051 164.216 8.0161 162.801 10.3607ZM184.878 5.7931C187.144 8.8274 188.41 13.7693 188.41 19.5643C188.41 26.1383 186.367 31.5343 182.726 34.5135C179.964 36.7593 175.774 38 170.802 38C163.739 38 158.166 35.6383 155.293 31.4203C153.14 28.3309 152.09 24.2288 152.09 19.2261C152.09 12.0327 154.02 6.5759 157.665 3.6518C160.534 1.292 165.063 0 170.25 0C176.816 0 182.06 2.0805 184.876 5.795M147.55 38H139.208V22.3326H124.114V38H115.77V0H124.114V15.5515H139.208V0H147.55V38ZM98.8585 17.8828C100.89 17.8828 102.067 17.5959 102.871 16.7979C103.834 15.941 104.42 14.1189 104.42 12.0099C104.42 9.5019 103.455 7.6779 101.8 7.0509C101.21 6.8191 100.249 6.7051 99.0174 6.7051H88.53V17.8809L98.8585 17.8828ZM87.5766 38H79.45V0H98.5104C105.203 0 107.551 0.6821 110.069 3.4732C112.301 5.8672 113.5 9.0022 113.5 12.3614C113.5 16.3495 111.902 20.0526 109.266 22.2794C107.038 24.1547 104.972 24.7228 100.625 24.7228H87.5785L87.5766 38ZM49.2968 10.3607C48.1921 12.16 47.67 15.048 47.67 18.9202C47.67 27.4227 50.5037 31.2949 56.8011 31.2949C62.9944 31.2949 65.83 27.4227 65.83 19.0285C65.83 10.5222 63.0493 6.7051 56.8011 6.7051C53.3904 6.7051 50.7118 8.0161 49.2968 10.3607ZM71.3783 5.7931C73.6426 8.8274 74.91 13.7693 74.91 19.5643C74.91 26.1383 72.867 31.5343 69.2237 34.5135C66.4656 36.7593 62.2718 38 57.3024 38C50.2351 38 44.6622 35.6383 41.7907 31.4203C39.638 28.3309 38.59 24.2288 38.59 19.2261C38.59 12.0327 40.5214 6.5759 44.1666 3.6518C47.0344 1.292 51.563 0 56.75 0C63.3179 0 68.5635 2.0786 71.3783 5.7931ZM0.822875 31.2227H20.6211C23.6931 31.2227 25.3786 30.9377 26.3623 30.3107C27.5843 29.5697 28.2785 28.3157 28.2785 26.8337C28.2785 25.0667 27.3516 23.5315 25.7834 22.7886C24.97 22.3326 23.4642 22.1046 21.6066 22.1046H13.3476C8.70545 22.1046 5.68635 21.3066 3.65659 19.6004C1.33741 17.6054 0 14.5293 0 11.2214C0 6.384 2.72968 2.166 6.73244 0.7999C8.47278 0.1691 10.4988 0 15.0293 0H35.2058V6.7792H16.8831C13.2284 6.8381 11.8135 6.8381 10.599 7.1212C8.97218 7.5202 7.98851 9.0022 7.98851 10.9953C7.98851 12.7053 8.80192 14.0733 10.1904 14.7003C11.3519 15.2114 13.4062 15.3254 16.1889 15.3254H22.3936C28.0799 15.3254 31.1558 16.1804 33.4182 18.4604C35.1585 20.1666 36.32 23.5296 36.32 26.8318C36.32 30.8788 34.4056 34.6408 31.3884 36.4629C29.476 37.6561 27.0395 38 21.2945 38H0.824767L0.822875 31.2227Z" fill="#116AB3"/>
</g>
<defs>
<clipPath id="clip0_671_15507">
<rect width="227" height="38" fill="white"/>
</clipPath>
</defs>
</svg>
