<svg width="271" height="86" viewBox="0 0 271 86" fill="none" xmlns="http://www.w3.org/2000/svg">
<path d="M71.851 8.0625V10.2125H73.9905V8.0625H71.851ZM71.851 12.3625V14.5125H73.9905V12.3625H71.851ZM65.4326 14.5125V16.6625H67.5721V14.5125H65.4326Z" fill="#FDB511"/>
<path d="M37.441 16.125C20.4528 16.125 6.68604 29.9595 6.68604 47.0312C6.68604 64.103 20.4528 77.9375 37.441 77.9375C54.4291 77.9375 68.1959 64.103 68.1959 47.0312C68.1959 29.9595 54.4291 16.125 37.441 16.125ZM37.441 25.9792C48.9999 25.9792 58.39 35.4154 58.39 47.0312C58.39 58.6471 48.9999 68.0833 37.441 68.0833C25.882 68.0833 16.5811 58.6471 16.5811 47.0312C16.5811 35.4154 25.882 25.9792 37.441 25.9792Z" fill="#FDB511"/>
<path d="M86.0427 63.3854C81.6212 63.3854 77.9127 62.2818 74.9175 60.0744L77.7844 55.3444C80.1806 57.0358 82.8906 57.8815 85.9144 57.8814C87.3977 57.8815 88.5673 57.5948 89.4231 57.0215C90.2789 56.4195 90.7068 55.5881 90.7068 54.5274C90.7068 54.2408 90.6782 53.9828 90.6212 53.7534C90.5641 53.5241 90.4643 53.3091 90.3217 53.1085C90.1791 52.8791 90.0364 52.6928 89.8938 52.5494C89.7511 52.3774 89.5229 52.2055 89.2092 52.0335C88.9239 51.8615 88.6672 51.7181 88.439 51.6034C88.2393 51.4888 87.9112 51.3454 87.4548 51.1734C86.9984 51.0014 86.6133 50.8725 86.2995 50.7864C86.0142 50.6718 85.5721 50.5141 84.973 50.3134C84.374 50.1128 83.8747 49.9408 83.4754 49.7974C82.4199 49.4248 81.5213 49.0378 80.7796 48.6364C80.0379 48.2065 79.282 47.6618 78.5118 47.0024C77.7416 46.3145 77.1568 45.4545 76.7574 44.4224C76.3581 43.3618 76.1584 42.1578 76.1584 40.8104C76.1584 38.0871 77.0997 35.9801 78.9825 34.4894C80.8652 32.9701 83.347 32.2105 86.4278 32.2104C90.1363 32.2105 93.1458 32.8985 95.4564 34.2744L93.2742 39.2195C91.1062 38.1875 88.8954 37.6715 86.6418 37.6714C83.6751 37.6715 82.1917 38.6461 82.1917 40.5954C82.1917 41.0541 82.2773 41.4555 82.4484 41.7994C82.6196 42.1435 82.805 42.4301 83.0047 42.6595C83.2044 42.8888 83.5609 43.1181 84.0744 43.3474C84.6164 43.5768 85.0586 43.7488 85.4009 43.8635C85.7717 43.9781 86.3708 44.1645 87.1981 44.4224C87.5689 44.5371 87.8542 44.6231 88.0539 44.6804C89.0523 44.9958 89.908 45.2968 90.6212 45.5834C91.3344 45.8701 92.1188 46.2858 92.9746 46.8305C93.8304 47.3465 94.5293 47.9341 95.0713 48.5934C95.6133 49.2528 96.0697 50.0841 96.4406 51.0875C96.8114 52.0908 96.9968 53.2088 96.9969 54.4415C96.9968 57.1361 96.0412 59.3005 94.13 60.9345C92.2472 62.5684 89.5515 63.3854 86.0427 63.3854Z" fill="black"/>
<path d="M107.557 63.9876L99.4697 40.7246H106.188L110.338 56.9786L113.847 40.7246H120.137L113.505 63.2566C111.964 68.4739 108.755 71.0826 103.877 71.0826C102.736 71.0826 101.524 70.9536 100.24 70.6956L100.925 66.1376C102.066 66.2523 102.793 66.3096 103.107 66.3096C104.276 66.3096 105.189 66.1233 105.845 65.7506C106.501 65.4066 107.072 64.8189 107.557 63.9876Z" fill="black"/>
<path d="M141.353 43.6485C143.492 41.3552 145.774 40.2085 148.199 40.2085C150.453 40.2085 152.036 40.9825 152.949 42.5305C153.89 44.0785 154.361 46.0135 154.361 48.3355V62.9555H147.857V48.2495C147.857 46.4722 147.172 45.5835 145.803 45.5835C144.719 45.5835 143.507 46.1855 142.166 47.3895V62.9555H135.662V48.2495C135.662 46.4722 134.977 45.5835 133.608 45.5835C132.353 45.5835 131.14 46.2142 129.971 47.4755V62.9555H123.467V40.7245H127.489L128.773 44.1215C131.026 41.5129 133.437 40.2085 136.004 40.2085C138.571 40.2085 140.354 41.3552 141.353 43.6485Z" fill="black"/>
<path d="M170.608 48.7225V48.1635C170.608 47.1602 170.38 46.4292 169.923 45.9705C169.495 45.5118 168.739 45.2825 167.655 45.2825C165.972 45.2825 163.904 45.8558 161.451 47.0025L159.226 42.7025C162.079 41.0399 165.074 40.2085 168.212 40.2085C171.15 40.2085 173.361 40.9395 174.844 42.4015C176.356 43.8349 177.112 45.8845 177.112 48.5505V62.9555H173.09C172.348 61.3788 171.963 60.5905 171.934 60.5905C169.909 62.4538 167.741 63.3855 165.43 63.3855C163.462 63.3855 161.808 62.8122 160.467 61.6655C159.155 60.4902 158.499 58.8992 158.499 56.8925C158.499 54.5418 159.254 52.8218 160.766 51.7325C162.535 50.4138 165.816 49.4105 170.608 48.7225ZM170.608 57.4515V52.7645C167.784 53.3378 166.072 53.9685 165.473 54.6565C165.074 55.0865 164.874 55.6742 164.874 56.4195C164.874 57.9962 165.63 58.7845 167.142 58.7845C168.397 58.7845 169.552 58.3402 170.608 57.4515Z" fill="black"/>
<path d="M182.302 62.9555V40.7245H186.324L187.608 44.1215C189.862 41.5129 192.329 40.2085 195.011 40.2085C199.233 40.2085 201.344 42.9175 201.344 48.3355V62.9555H194.84V48.2495C194.84 46.4722 194.098 45.5835 192.615 45.5835C191.245 45.5835 189.976 46.2142 188.806 47.4755V62.9555H182.302Z" fill="black"/>
<path d="M208.077 45.1963H204.825V40.7243H208.163L209.275 34.4033H214.581V40.7243H219.288V45.1963H214.581V55.9033C214.581 56.878 214.738 57.5517 215.052 57.9243C215.366 58.297 216.008 58.4833 216.977 58.4833C217.519 58.4833 218.275 58.34 219.245 58.0533L220.015 62.5683C218.389 63.113 216.735 63.3853 215.052 63.3853C210.402 63.3853 208.077 61.006 208.077 56.2473V45.1963Z" fill="black"/>
<path d="M229.401 53.7535C229.544 55.2728 229.957 56.3908 230.642 57.1075C231.355 57.8242 232.411 58.1825 233.808 58.1825C234.579 58.1825 235.349 58.0678 236.119 57.8385C236.918 57.6092 237.503 57.3942 237.873 57.1935C238.273 56.9928 238.858 56.6775 239.628 56.2475L242.195 60.3755C241.311 61.0348 240.555 61.5508 239.927 61.9235C239.3 62.2675 238.401 62.5972 237.232 62.9125C236.062 63.2278 234.764 63.3855 233.338 63.3855C230.086 63.3855 227.49 62.3822 225.55 60.3755C223.639 58.3402 222.683 55.5738 222.683 52.0765C222.683 48.5792 223.596 45.7268 225.422 43.5195C227.247 41.3122 229.758 40.2085 232.953 40.2085C236.233 40.2085 238.686 41.3122 240.312 43.5195C241.938 45.7268 242.751 48.5648 242.751 52.0335V53.7535H229.401ZM229.401 49.9265H236.119C236.119 46.5725 235.049 44.8955 232.91 44.8955C231.883 44.8955 231.084 45.2968 230.514 46.0995C229.943 46.8735 229.572 48.1492 229.401 49.9265Z" fill="black"/>
<path d="M256.655 63.3855C253.117 63.3855 250.45 62.3392 248.653 60.2465C246.884 58.1252 246 55.3588 246 51.9475C246 48.5362 246.927 45.7268 248.781 43.5195C250.636 41.3122 253.26 40.2085 256.655 40.2085C259.65 40.2085 262.089 41.0399 263.972 42.7025L260.934 47.0455C260.163 46.4722 259.493 46.0852 258.922 45.8845C258.352 45.6552 257.61 45.5405 256.697 45.5405C254.044 45.5405 252.718 47.6475 252.718 51.8615C252.718 55.9895 254.073 58.0535 256.783 58.0535C258.238 58.0535 259.707 57.4658 261.19 56.2905L264.314 60.3325C262.289 62.3678 259.735 63.3855 256.655 63.3855Z" fill="black"/>
<path d="M46.1772 31.7124C40.5929 38.7262 39.1855 41.806 36.9608 47.4768C34.4366 42.3463 31.4241 38.8055 26.2088 36.4603C25.2209 36.2069 24.735 36.0599 24.0693 36.9978C23.4037 37.9357 23.8073 38.7796 24.6042 39.7749C26.6925 42.3831 29.0393 44.7929 30.6661 47.7478C32.5732 51.212 34.9476 56.9216 35.7473 58.4082C36.3833 59.5906 37.9216 60.1103 38.5108 60.1103C41.667 59.735 41.6681 58.1225 42.2697 55.3274C43.2453 50.7439 44.5089 46.0052 50.4562 40.3124V31.7124H46.1772Z" fill="black"/>
<path d="M69.7116 10.2124V12.3624H71.8511V10.2124H69.7116ZM69.7116 12.3624H65.4327V14.5124H69.7116V12.3624ZM65.4327 14.5124H63.2932V18.8124H65.4327V14.5124ZM65.4327 18.8124V20.9624H67.5722V18.8124H65.4327ZM67.5722 18.8124H69.7116V16.6624H67.5722V18.8124ZM65.4327 20.9624H63.2932V23.1124H61.1537V20.9624H56.8748V23.1124H54.7353V25.2624H56.8748V27.4124H54.7353V25.2624H52.5958V27.4124H50.4564V29.5624H48.3169V38.1624H52.5958V36.0124H54.7353V33.8624H56.8748V31.7124H54.7353V29.5624H56.8748V31.7124H59.0143V29.5624H61.1537V27.4124H63.2932V25.2624H65.4327V20.9624ZM61.1537 20.9624H63.2932V18.8124H61.1537V20.9624ZM61.1537 18.8124V16.6624H59.0143V18.8124H61.1537Z" fill="black"/>
</svg>
