<svg width="441" height="127" viewBox="0 0 441 127" fill="none" xmlns="http://www.w3.org/2000/svg">
<path d="M427.265 41.6013C427.878 41.9533 428.358 42.4324 428.706 43.0388C429.054 43.6375 429.236 44.3222 429.232 45.019C429.232 45.7356 429.058 46.3927 428.706 46.995C428.358 47.593 427.874 48.0678 427.265 48.4155C426.653 48.7631 425.976 48.937 425.236 48.937C424.515 48.937 423.848 48.7631 423.244 48.4155C422.65 48.0809 422.154 47.5907 421.806 46.995C421.454 46.397 421.28 45.7399 421.28 45.019C421.28 44.3024 421.454 43.6411 421.806 43.0388C422.154 42.4365 422.635 41.9575 423.244 41.6013C423.849 41.2494 424.515 41.0713 425.236 41.0713C425.977 41.0713 426.652 41.2452 427.265 41.6013ZM426.855 47.7749C427.321 47.5123 427.707 47.1216 427.969 46.6469C428.238 46.1636 428.371 45.6251 428.371 45.0186C428.371 44.4163 428.238 43.8693 427.969 43.3818C427.71 42.9008 427.324 42.504 426.855 42.2368C426.379 41.9613 425.836 41.8211 425.231 41.8211C424.643 41.8211 424.117 41.9609 423.645 42.2368C423.179 42.5053 422.796 42.9019 422.539 43.3818C422.27 43.8693 422.137 44.4121 422.137 45.0186C422.137 45.6251 422.269 46.1636 422.539 46.6469C422.798 47.1205 423.181 47.511 423.645 47.7749C424.117 48.0461 424.643 48.1821 425.231 48.1821C425.84 48.1821 426.378 48.0465 426.855 47.7749ZM426.66 44.8703C426.469 45.0696 426.225 45.2137 425.923 45.3072L427.082 47.0753H426.03L425.074 45.447H424.697V47.0753H423.802V42.8352H425.024C426.3 42.8352 426.937 43.2636 426.937 44.1243C426.941 44.4253 426.851 44.6709 426.66 44.8703ZM424.701 44.7734H425.173C425.74 44.7734 426.022 44.557 426.022 44.129C426.022 43.9127 425.951 43.7601 425.811 43.6627C425.67 43.5654 425.446 43.5187 425.144 43.5187H424.705V44.7738L424.701 44.7734ZM145.869 54.3859C145.612 54.6405 145.301 54.7633 144.937 54.7633H133.763C133.399 54.7633 133.216 54.9414 133.216 55.3019V81.2981C133.216 84.0332 133.821 86.0088 135.022 87.2303C136.227 88.4557 138.145 89.0622 140.775 89.0622H144.063C144.428 89.0622 144.738 89.1893 144.995 89.4397C145.252 89.6941 145.381 89.9994 145.381 90.3556V98.4457C145.381 99.2388 144.942 99.7051 144.068 99.8492L138.369 99.955C132.6 99.955 128.288 98.9838 125.443 97.0418C122.598 95.0998 121.132 91.4322 121.062 86.0385V55.2972C121.062 54.9367 120.879 54.7587 120.515 54.7587H114.269C113.905 54.7587 113.594 54.6358 113.337 54.3812C113.08 54.131 112.952 53.8257 112.952 53.4653V45.9137C112.952 45.5533 113.08 45.248 113.337 44.9978C113.594 44.7474 113.901 44.6203 114.269 44.6203H120.515C120.879 44.6203 121.062 44.4423 121.062 44.0818V31.4634C121.062 31.103 121.19 30.7977 121.447 30.5475C121.704 30.2971 122.01 30.1701 122.379 30.1701H131.909C132.273 30.1701 132.584 30.2971 132.841 30.5475C133.097 30.8019 133.226 31.1073 133.226 31.4634V44.0823C133.226 44.4427 133.408 44.6208 133.773 44.6208H144.946C145.311 44.6208 145.621 44.7479 145.878 44.9982C146.135 45.2527 146.264 45.558 146.264 45.9141V53.4657C146.251 53.8304 146.123 54.1356 145.87 54.3859M196.12 72.0248L196.013 75.3702C196.013 76.2352 195.574 76.6636 194.7 76.6636H160.407C160.043 76.6636 159.861 76.8459 159.861 77.2021C160.08 79.5768 160.407 81.1919 160.846 82.0573C162.598 87.2346 166.872 89.8592 173.665 89.9314C178.63 89.9314 182.573 87.9172 185.497 83.8892C185.787 83.4565 186.156 83.2406 186.595 83.2406C186.885 83.2406 187.142 83.3464 187.361 83.5627L194.154 89.0622C194.812 89.5667 194.92 90.1393 194.481 90.7879C192.215 93.951 189.204 96.3975 185.444 98.1235C181.683 99.8496 177.5 100.714 172.899 100.714C167.2 100.714 162.362 99.4547 158.382 96.9402C154.402 94.4257 151.499 90.8979 149.673 86.3697C147.991 82.4857 147.155 77.092 147.155 70.1891C147.155 66.0212 147.593 62.6375 148.467 60.0508C149.929 55.0175 152.684 51.0447 156.738 48.1315C160.792 45.2184 165.667 43.7643 171.362 43.7643C185.75 43.7643 193.855 51.1718 195.681 65.9872C195.975 67.7808 196.12 69.7946 196.12 72.0248ZM164.623 56.5442C162.834 57.8754 161.571 59.7243 160.842 62.099C160.403 63.3244 160.109 64.9017 159.964 66.8436C159.815 67.2041 159.964 67.3821 160.403 67.3821H182.643C183.008 67.3821 183.19 67.2041 183.19 66.8436C183.041 65.0457 182.826 63.6805 182.532 62.7433C181.873 60.1528 180.577 58.1428 178.643 56.7011C176.708 55.2636 174.277 54.5427 171.358 54.5427C168.657 54.547 166.413 55.2126 164.623 56.5442ZM241.959 48.9374C245.501 52.389 247.272 57.0997 247.273 63.0698V98.4495C247.273 98.8099 247.144 99.1153 246.887 99.3655C246.63 99.6201 246.32 99.7429 245.955 99.7429H235.875C235.51 99.7429 235.2 99.6201 234.943 99.3655C234.686 99.1153 234.557 98.8099 234.557 98.4495V65.6561C234.557 62.3489 233.609 59.6691 231.708 57.6208C229.807 55.5726 227.289 54.5466 224.149 54.5466C221.01 54.5466 218.471 55.5556 216.537 57.5656C214.603 59.5798 213.634 62.2426 213.634 65.5498V98.4491C213.634 98.8095 213.506 99.1148 213.249 99.365C212.992 99.6196 212.681 99.7425 212.317 99.7425H202.236C201.872 99.7425 201.561 99.6196 201.304 99.365C201.047 99.1148 200.919 98.8095 200.919 98.4491V45.918C200.919 45.5575 201.047 45.2522 201.304 45.002C201.561 44.7517 201.867 44.6246 202.236 44.6246H212.317C212.681 44.6246 212.992 44.7517 213.249 45.002C213.506 45.2565 213.634 45.5618 213.634 45.918V49.3697C213.634 49.586 213.705 49.7301 213.854 49.8023C213.999 49.8746 214.111 49.8024 214.181 49.586C217.175 45.7021 221.702 43.7601 227.765 43.7601C233.684 43.7601 238.413 45.4857 241.959 48.9374M288.933 46.1347C292.436 47.7163 295.141 49.8916 297.038 52.6603C298.934 55.4289 299.887 58.5755 299.887 62.099V98.4499C299.887 98.8104 299.759 99.1157 299.502 99.3659C299.245 99.6205 298.934 99.7433 298.57 99.7433H288.489C288.125 99.7433 287.814 99.6205 287.557 99.3659C287.3 99.1157 287.172 98.8104 287.172 98.4499V94.9982C287.172 94.7819 287.097 94.6591 286.952 94.6208C286.803 94.5868 286.658 94.6378 286.514 94.7819C282.935 98.6659 277.75 100.608 270.958 100.608C265.479 100.608 260.968 99.2426 257.427 96.5075C253.882 93.7767 252.114 89.7104 252.114 84.3172C252.114 78.7076 254.102 74.3399 258.086 71.2108C262.066 68.0817 267.674 66.5168 274.901 66.5168H286.621C286.986 66.5168 287.168 66.3387 287.168 65.9783V63.3877C287.168 60.585 286.327 58.4097 284.65 56.8622C282.969 55.3146 280.45 54.5427 277.092 54.5427C274.317 54.5427 272.068 55.026 270.353 55.9972C268.635 56.9683 267.558 58.3166 267.123 60.0422C266.903 60.9072 266.39 61.2676 265.591 61.1193L254.963 59.8259C254.598 59.7537 254.288 59.6308 254.031 59.4485C253.774 59.2705 253.683 59.0373 253.758 58.7489C254.342 54.3647 256.731 50.7646 260.935 47.962C265.135 45.1593 270.411 43.7558 276.765 43.7558C281.374 43.7601 285.429 44.5532 288.933 46.1347ZM282.932 87.8789C285.487 86.0092 286.767 83.6346 286.767 80.7596V75.6886C286.767 75.3281 286.585 75.15 286.22 75.15H277.017C273.145 75.15 270.097 75.8709 267.869 77.3084C265.641 78.7458 264.526 80.7979 264.526 83.4565C264.526 85.7589 265.384 87.5398 267.102 88.7949C268.817 90.0543 271.028 90.6816 273.729 90.6816C277.307 90.6859 280.376 89.7529 282.932 87.8789ZM353.902 72.0248C353.902 77.1299 353.206 81.6246 351.819 85.5085C350.211 90.2532 347.619 93.959 344.041 96.6176C340.462 99.2805 336.081 100.607 330.895 100.607C325.781 100.607 321.585 98.7037 318.297 94.8916C318.148 94.6752 318.003 94.6034 317.858 94.6752C317.709 94.7475 317.638 94.8916 317.638 95.1079V98.4533C317.638 98.8138 317.51 99.1191 317.253 99.3693C316.996 99.6239 316.685 99.7467 316.321 99.7467H306.24C305.876 99.7467 305.565 99.6239 305.308 99.3693C305.051 99.1191 304.923 98.8138 304.923 98.4533V25.5313C304.923 25.1708 305.051 24.8655 305.308 24.6153C305.565 24.365 305.872 24.2379 306.24 24.2379H316.321C316.685 24.2379 316.996 24.365 317.253 24.6153C317.51 24.8698 317.638 25.1751 317.638 25.5313V48.937C317.638 49.1533 317.709 49.2974 317.858 49.3697C318.003 49.4419 318.148 49.4079 318.297 49.2638C321.436 45.5962 325.598 43.7643 330.788 43.7643C336.193 43.7643 340.665 45.0955 344.206 47.7541C347.748 50.4169 350.361 54.1186 352.038 58.8632C353.281 62.8912 353.902 67.2759 353.902 72.0248ZM340.864 72.2369C340.864 66.6273 339.766 62.2426 337.576 59.0753C335.604 56.0563 332.68 54.547 328.812 54.547C325.234 54.547 322.492 56.1285 320.595 59.2916C318.769 62.2426 317.857 66.5168 317.857 72.1268C317.857 77.6645 318.698 81.8367 320.375 84.6393C322.272 88.091 325.122 89.8167 328.92 89.8167C330.961 89.8167 332.788 89.3673 334.399 88.4685C336.006 87.5695 337.281 86.2931 338.234 84.6398C339.986 81.625 340.864 77.4907 340.864 72.2373M359.149 99.4505C358.892 99.2003 358.764 98.895 358.764 98.5345V25.6163C358.764 25.2558 358.892 24.9505 359.149 24.7003C359.406 24.45 359.712 24.3229 360.081 24.3229H370.162C370.526 24.3229 370.837 24.45 371.094 24.7003C371.35 24.9548 371.479 25.2601 371.479 25.6163V98.5345C371.479 98.895 371.35 99.2003 371.094 99.4505C370.837 99.7051 370.526 99.8279 370.162 99.8279H360.076C359.712 99.8279 359.402 99.7051 359.149 99.4505ZM425.356 71.9402L425.248 75.2856C425.248 76.1506 424.809 76.579 423.935 76.579H389.643C389.278 76.579 389.096 76.7613 389.096 77.1175C389.316 79.4922 389.643 81.1073 390.082 81.9727C391.834 87.15 396.108 89.7746 402.9 89.8468C407.866 89.8468 411.809 87.8326 414.733 83.8046C415.022 83.3719 415.391 83.156 415.826 83.156C416.116 83.156 416.373 83.2618 416.593 83.4781L423.385 88.9777C424.043 89.4822 424.151 90.0547 423.712 90.7033C421.447 93.8664 418.435 96.3129 414.675 98.0389C410.915 99.765 406.731 100.63 402.13 100.63C396.435 100.63 391.594 99.3701 387.614 96.8556C383.634 94.3411 380.731 90.8134 378.904 86.2851C377.223 82.4011 376.386 77.0074 376.386 70.1045C376.386 65.9366 376.825 62.5529 377.699 59.9662C379.161 54.9329 381.915 50.9601 385.969 48.047C390.024 45.1338 394.898 43.6797 400.593 43.6797C414.981 43.6797 423.086 51.0872 424.913 65.9026C425.207 67.7005 425.356 69.7143 425.356 71.9406M393.859 56.4596C392.07 57.7908 390.807 59.6397 390.078 62.0144C389.639 63.2398 389.349 64.8171 389.2 66.759C389.051 67.1195 389.2 67.2976 389.638 67.2976H411.879C412.243 67.2976 412.426 67.1195 412.426 66.759C412.277 64.9612 412.061 63.596 411.767 62.6588C411.109 60.0682 409.812 58.0582 407.878 56.6165C405.944 55.179 403.513 54.4582 400.593 54.4582C397.893 54.4667 395.648 55.1323 393.859 56.4596ZM106.363 68.5476L93.6935 30.0298C93.2412 28.6602 92.4434 27.4373 91.3809 26.4849C90.3184 25.5326 89.0289 24.8847 87.6431 24.6068L48.099 16.7076C45.3408 16.1563 42.4667 17.1488 40.5985 19.2939L13.7776 50.0688C12.8392 51.1488 12.196 52.4633 11.9131 53.8794C11.6302 55.2955 11.7176 56.763 12.1664 58.1334L24.8356 96.6512C25.2872 98.0213 26.0848 99.2447 27.1475 100.197C28.2102 101.15 29.5002 101.797 30.8864 102.074L70.4305 109.973C70.9298 110.073 71.4374 110.122 71.9462 110.122C74.2034 110.122 76.4024 109.138 77.9306 107.387L104.751 76.6117C106.661 74.4237 107.278 71.3328 106.363 68.5472M91.0556 30.9419L99.3885 56.2726L81.679 27.6683C81.3023 27.0598 80.8389 26.5124 80.304 26.0443L87.1171 27.4052C88.0196 27.5873 88.8591 28.0103 89.5507 28.6312C90.2423 29.2522 90.7615 30.0496 91.0556 30.9419ZM78.0012 97.7452L62.5654 98.5464L87.5351 83.7485C87.5725 83.7272 87.6098 83.7017 87.6468 83.6762L81.6375 95.3663C81.2845 96.0513 80.7638 96.6307 80.1263 97.0477C79.4889 97.4647 78.7566 97.7051 78.0012 97.7452ZM39.2069 97.4949L30.4846 83.4089C30.6502 83.5317 30.82 83.6465 30.9981 83.7523L56.1667 98.6697C56.2825 98.7377 56.4029 98.8053 56.5229 98.8648L43.1085 99.5601C41.5388 99.6366 40.0438 98.8478 39.2073 97.4953M40.5283 28.9404L55.9641 28.1393L30.9985 42.9372C30.9612 42.9585 30.9238 42.984 30.8869 43.0095L36.8962 31.3194C37.2488 30.635 37.7689 30.056 38.4055 29.639C39.0422 29.222 39.7736 28.9813 40.5283 28.9404ZM79.3267 29.195L88.0487 43.2806C87.8831 43.1576 87.7117 43.043 87.5351 42.9372L62.3666 28.0245C62.2507 27.9565 62.1303 27.8889 62.0103 27.8294L75.4247 27.1341C76.9861 27.041 78.4852 27.8379 79.3259 29.1946M87.8369 78.2702C87.8358 78.8814 87.6785 79.4816 87.3806 80.0112C87.0827 80.5408 86.6547 80.9814 86.139 81.2892L60.9704 96.2019C60.4515 96.5082 59.8631 96.6694 59.2641 96.6694C58.6652 96.6694 58.0768 96.5082 57.5578 96.2019L32.3943 81.285C31.8783 80.9775 31.45 80.537 31.1521 80.0073C30.8542 79.4776 30.697 78.8772 30.6963 78.266V48.415C30.6974 47.8039 30.8547 47.2037 31.1526 46.6741C31.4505 46.1444 31.8786 45.7038 32.3943 45.396L57.5628 30.4833C58.0812 30.1758 58.67 30.0149 59.2691 30.0171C59.8574 30.0171 60.4494 30.1739 60.9754 30.4833L86.1394 45.4007C86.6556 45.7079 87.0842 46.1483 87.3821 46.6781C87.6801 47.2079 87.837 47.8084 87.8373 48.4197L87.8369 78.2702ZM28.0161 79.4195L20.7061 67.6108C20.2971 66.9476 20.0658 66.1859 20.0353 65.4022C20.0047 64.6185 20.1761 63.8403 20.5321 63.1458L27.909 48.7929V78.2664C27.909 78.6608 27.9459 79.0425 28.0161 79.4195ZM90.5172 47.2662L97.8271 59.0749C98.2361 59.7381 98.4674 60.4998 98.498 61.2835C98.5285 62.0672 98.3571 62.8454 98.0011 63.5398L90.6209 77.8928V48.4193C90.6209 48.0291 90.5832 47.6432 90.5172 47.2662ZM42.6821 21.1934C43.1735 20.6321 43.7749 20.183 44.447 19.8755C45.1192 19.5679 45.8471 19.4087 46.5833 19.4082C46.9105 19.4082 47.2417 19.4422 47.573 19.5056L72.2609 24.4368L40.3913 26.0906C39.5091 26.1374 38.6601 26.3537 37.8734 26.7099L42.6821 21.1934ZM15.8571 51.9683L33.5953 31.6203L18.0686 61.8231C17.6106 62.7205 17.3385 63.705 17.2695 64.7151L14.8093 57.2311C14.5156 56.3373 14.4578 55.3798 14.6418 54.4558C14.8258 53.5318 15.2451 52.6739 15.8571 51.9692M27.4743 95.7446L19.141 70.4135L36.8505 99.0178C37.2282 99.6255 37.6915 100.173 38.2255 100.642L31.4166 99.2809C29.582 98.9162 28.0746 97.5595 27.4743 95.7446ZM75.8519 105.497C75.2485 106.187 74.4807 106.705 73.6235 107.001C72.7663 107.296 71.8488 107.36 70.9606 107.184L46.2728 102.253L78.1423 100.599C79.0245 100.553 79.8735 100.336 80.6602 99.9801L75.8519 105.497ZM102.673 74.7178L84.9383 95.0705L100.465 64.8676C100.924 63.9707 101.196 62.986 101.264 61.9757L103.724 69.4597C104.017 70.3532 104.074 71.3101 103.889 72.2335C103.705 73.1568 103.285 74.0137 102.672 74.7174" fill="#041E42"/>
</svg>
