<svg width="298" height="223" viewBox="0 0 298 223" fill="none" xmlns="http://www.w3.org/2000/svg">
<path d="M285.157 6.76855H13.5288C9.82662 6.76855 6.81006 9.78701 6.81006 13.4457V140.77H291.83V13.4915C291.83 9.78701 288.859 6.76855 285.157 6.76855Z" fill="black"/>
<path d="M13.4831 217.009H285.111C288.813 217.009 291.83 214.036 291.83 210.332V144.657H6.81006V210.332C6.81006 213.99 9.78092 217.009 13.4831 217.009Z" fill="#81817B"/>
<path d="M135.7 66.3147L125.05 36.6332C124.913 36.2216 124.73 35.6728 124.73 35.2154C124.73 33.9349 125.827 32.7 127.381 32.7C128.753 32.7 129.621 33.569 130.032 34.8495L138.853 60.415L147.72 34.7581C148.132 33.569 148.954 32.6543 150.28 32.6543H150.554C151.971 32.6543 152.885 33.5232 153.251 34.7581L162.072 60.415L171.03 34.7123C171.35 33.6147 172.127 32.7 173.544 32.7C175.052 32.7 176.149 33.8434 176.149 35.1239C176.149 35.5813 175.921 36.1301 175.784 36.5417L165.088 66.3147C164.54 67.8696 163.443 68.6928 162.255 68.6928H162.072C160.701 68.6928 159.695 67.8696 159.192 66.3147L150.463 41.0694L141.596 66.3147C141.139 67.8696 140.088 68.6928 138.762 68.6928H138.625C137.345 68.6928 136.248 67.8696 135.7 66.3147Z" fill="white"/>
<path d="M213.353 35.3069C213.353 33.8891 214.496 32.6543 215.913 32.6543C217.421 32.6543 218.564 33.7976 218.564 35.3069V41.3438C221.169 35.4898 226.882 32.7458 230.676 32.7458C232.23 32.7458 233.235 33.8891 233.235 35.3983C233.235 36.8161 232.275 37.868 230.904 38.0509C224.094 38.8741 218.518 43.9964 218.518 54.1036V66.0403C218.518 67.458 217.421 68.6928 215.959 68.6928C214.45 68.6928 213.308 67.5495 213.308 66.0403V35.3069H213.353Z" fill="white"/>
<path d="M260.293 48.844C259.745 42.5327 256.134 36.9989 249.278 36.9989C243.291 36.9989 238.766 42.0296 238.08 48.844H260.293ZM250.101 68.9671C240.64 68.9671 232.916 61.6039 232.916 50.8563V50.7191C232.916 40.7034 239.908 32.6084 249.461 32.6084C259.653 32.6084 265.458 41.0235 265.458 50.2618C265.458 51.6796 264.315 52.6857 263.035 52.6857H238.126C238.857 60.2319 244.113 64.4851 250.238 64.4851C254.489 64.4851 257.642 62.793 260.156 60.4605C260.567 60.1404 261.024 59.866 261.619 59.866C262.898 59.866 263.858 60.8721 263.858 62.107C263.858 62.7015 263.584 63.2961 263.035 63.7991C259.836 66.9091 255.951 68.9671 250.101 68.9671Z" fill="white"/>
<path d="M202.064 55.3842V51.9999C199.505 51.2681 196.031 50.4906 191.735 50.4906C185.153 50.4906 181.497 53.3719 181.497 57.7624V57.8996C181.497 62.2901 185.565 64.8969 190.318 64.8969C196.808 64.8512 202.064 60.918 202.064 55.3842ZM176.241 58.0825V57.9453C176.241 50.5364 182.365 46.6032 191.232 46.6032C195.711 46.6032 198.911 47.1978 202.019 48.1125V46.8776C202.019 40.5663 198.134 37.3192 191.598 37.3192C188.078 37.3192 186.022 37.7765 183.462 38.9199C183.142 39.0571 182.777 39.1028 182.502 39.1028C181.268 39.1028 180.217 38.0967 180.217 36.8618C180.217 35.7642 180.674 35.1239 181.634 34.6666C185.108 33.1574 187.713 32.6543 192.146 32.6543C197.082 32.6543 200.876 33.9349 203.481 36.5417C205.858 38.9199 207.092 42.3042 207.092 46.7862V66.1317C207.092 67.641 205.995 68.6929 204.578 68.6929C203.07 68.6929 202.064 67.5952 202.064 66.2689V62.9303C199.642 66.1317 195.528 68.9673 189.404 68.9673C182.822 69.013 176.241 65.2628 176.241 58.0825Z" fill="white"/>
<path d="M40.7238 34.8952C39.5811 32.3798 36.7474 31.2365 34.0965 32.4256C31.4455 33.6147 30.4857 36.5417 31.6741 39.057L42.7805 63.2504C44.5173 67.0464 46.3912 69.0129 49.8192 69.0129C53.5213 69.0129 55.121 66.8177 56.9035 63.2504C56.9035 63.2504 66.5931 42.1212 66.6845 41.8926C66.7759 41.6639 67.0958 40.9779 68.1014 40.9779C68.9241 40.9779 69.6553 41.6639 69.6553 42.5328V63.2047C69.6553 66.4061 71.3922 69.0129 74.8201 69.0129C78.2023 69.0129 80.0762 66.4061 80.0762 63.2047V46.283C80.0762 43.0359 82.4072 40.8864 85.6066 40.8864C88.806 40.8864 90.9084 43.0816 90.9084 46.283V63.2047C90.9084 66.4061 92.6909 69.0129 96.0731 69.0129C99.4554 69.0129 101.329 66.4061 101.329 63.2047V46.283C101.329 43.0359 103.66 40.8864 106.86 40.8864C110.013 40.8864 112.161 43.0816 112.161 46.283V63.2047C112.161 66.4061 113.944 69.0129 117.326 69.0129C120.708 69.0129 122.582 66.4061 122.582 63.2047V43.9963C122.582 36.9075 116.915 31.9682 110.059 31.9682C103.203 31.9682 98.9526 36.7246 98.9526 36.7246C96.6673 33.7519 93.5593 32.014 88.2575 32.014C82.6357 32.014 77.7452 36.7246 77.7452 36.7246C75.46 33.7519 71.575 32.014 68.3756 32.014C63.3937 32.014 59.463 34.2092 57.0406 39.6973L49.8192 56.3903L40.7238 34.8952Z" fill="white"/>
<path d="M274.507 36.9531C274.507 34.9866 272.999 33.3859 270.988 33.3859C269.023 33.3859 267.469 35.0323 267.469 36.9531V36.9989C267.469 38.9655 268.977 40.5204 270.988 40.5204C272.953 40.5204 274.507 38.9197 274.507 36.9531ZM266.646 36.9989C266.646 34.6207 268.566 32.6084 270.988 32.6084C273.456 32.6084 275.33 34.575 275.33 36.9531C275.33 39.3313 273.41 41.3436 270.988 41.3436C268.566 41.3436 266.646 39.3771 266.646 36.9989Z" fill="white"/>
<path d="M271.034 36.816C271.491 36.816 271.719 36.5873 271.719 36.2215C271.719 35.8099 271.445 35.6269 270.988 35.6269H270.074V36.816H271.034ZM269.16 35.2611C269.16 34.9866 269.342 34.8037 269.617 34.8037H271.079C271.628 34.8037 272.039 34.9409 272.313 35.2153C272.542 35.444 272.679 35.7641 272.679 36.1757C272.679 36.8618 272.359 37.2276 271.856 37.4563L272.496 38.2338C272.588 38.3252 272.633 38.4624 272.633 38.5997C272.633 38.8741 272.405 39.0113 272.176 39.0113C271.948 39.0113 271.811 38.9198 271.719 38.7826L270.805 37.6392H270.074V38.5539C270.074 38.8283 269.891 39.0113 269.617 39.0113C269.342 39.0113 269.16 38.8283 269.16 38.5539V35.2611Z" fill="white"/>
<path d="M117.509 88.5869H125.324C130.672 88.5869 134.146 91.834 134.146 97.1392V97.2307C134.146 102.947 130.169 105.92 125.096 105.966H121.577V114.335H117.509V88.5869ZM125.05 102.124C128.158 102.124 129.986 100.158 129.986 97.3222V97.2764C129.986 94.1665 128.158 92.4743 125.05 92.4743H121.531V102.124H125.05Z" fill="white"/>
<path d="M142.83 88.4502H146.76L155.719 114.336H151.514L149.503 108.253H139.996L137.985 114.336H133.917L142.83 88.4502ZM148.223 104.457L144.749 94.1212L141.276 104.457H148.223Z" fill="white"/>
<path d="M160.106 88.5869H168.928C171.716 88.5869 174.001 89.4559 175.464 91.0108C176.743 92.3829 177.475 94.3037 177.475 96.6819V96.8191C177.475 100.798 175.372 103.268 172.401 104.365L178.16 114.335H173.498L168.288 105.188C168.242 105.234 168.105 105.234 168.059 105.234H164.174V114.335H160.106V88.5869ZM168.516 101.438C171.67 101.438 173.407 99.6546 173.407 97.002V96.9105C173.407 93.9835 171.624 92.4743 168.608 92.4743H164.174V101.438H168.516Z" fill="white"/>
<path d="M187.484 92.5658H181.04V88.5869H197.951V92.5658H191.506V114.335H187.484V92.5658Z" fill="white"/>
<path d="M202.613 88.5869H206.406L217.147 105.737V88.5869H221.124V114.335H217.696L206.635 96.6361V114.335H202.613V88.5869Z" fill="white"/>
<path d="M227.293 88.5869H242.696V92.4286H231.316V99.4259H241.416V103.313H231.316V110.448H242.879V114.335H227.293V88.5869Z" fill="white"/>
<path d="M247.998 88.5869H256.82C259.608 88.5869 261.893 89.4559 263.355 91.0108C264.635 92.3829 265.366 94.3037 265.366 96.6819V96.8191C265.366 100.798 263.264 103.268 260.293 104.365L266.052 114.335H261.39L256.18 105.188C256.088 105.234 255.997 105.234 255.951 105.234H252.02V114.335H247.953V88.5869H247.998ZM256.408 101.438C259.562 101.438 261.299 99.6546 261.299 97.002V96.9105C261.299 93.9835 259.516 92.4743 256.5 92.4743H252.066V101.438H256.408Z" fill="white"/>
<path d="M99.0894 157.875H104.711C108.55 157.875 111.018 160.07 111.018 163.728V163.774C111.018 167.662 108.139 169.72 104.528 169.765H102.015V175.482H99.0894V157.875ZM104.528 167.113C106.768 167.113 108.048 165.787 108.048 163.82V163.774C108.048 161.67 106.722 160.527 104.528 160.527H102.015V167.113H104.528Z" fill="white"/>
<path d="M114.355 157.875H120.662C122.673 157.875 124.319 158.469 125.37 159.521C126.284 160.436 126.833 161.762 126.833 163.408V163.5C126.833 166.198 125.324 167.89 123.176 168.668L127.335 175.482H123.953L120.205 169.262C120.16 169.308 120.068 169.308 120.023 169.308H117.189V175.528H114.264V157.875H114.355ZM120.388 166.655C122.628 166.655 123.908 165.466 123.908 163.591V163.546C123.908 161.579 122.628 160.527 120.434 160.527H117.235V166.61H120.388V166.655Z" fill="white"/>
<path d="M130.626 157.875H141.687V160.527H133.506V165.283H140.773V167.936H133.506V172.83H141.824V175.482H130.626V157.875Z" fill="white"/>
<path d="M145.526 157.875H148.589L153.068 165.969L157.593 157.875H160.655V175.482H157.775V163.042L153.068 171.183H153.022L148.36 163.088V175.482H145.526V157.875Z" fill="white"/>
<path d="M168.151 157.875H165.226V175.436H168.151V157.875Z" fill="white"/>
<path d="M172.721 157.875H183.782V160.527H175.601V165.283H182.868V167.936H175.601V172.83H183.919V175.482H172.721V157.875Z" fill="white"/>
<path d="M187.621 157.875H193.974C195.985 157.875 197.631 158.469 198.682 159.521C199.596 160.436 200.145 161.762 200.145 163.408V163.5C200.145 166.198 198.636 167.89 196.488 168.668L200.647 175.482H197.265L193.517 169.262C193.472 169.308 193.38 169.308 193.335 169.308H190.501V175.528H187.576V157.875H187.621ZM193.655 166.655C195.894 166.655 197.174 165.466 197.174 163.591V163.546C197.174 161.579 195.894 160.527 193.7 160.527H190.501V166.61H193.655V166.655Z" fill="white"/>
<path d="M31.4912 199.722L33.228 197.526C34.5535 198.715 35.9704 199.63 37.8443 199.63C39.5354 199.63 40.5866 198.715 40.5866 197.389V197.343C40.5866 196.246 39.9924 195.514 37.2044 194.462C33.8679 193.227 32.1311 191.992 32.1311 189.157V189.111C32.1311 186.23 34.4621 184.172 37.7072 184.172C39.7182 184.172 41.6378 184.812 43.2375 186.23L41.5921 188.471C40.4038 187.51 39.0326 186.824 37.6615 186.824C36.0618 186.824 35.1019 187.693 35.1019 188.882V188.928C35.1019 190.163 35.7418 190.803 38.7584 191.947C42.0035 193.182 43.5118 194.554 43.5118 197.115V197.16C43.5118 200.27 41.0894 202.237 37.7986 202.237C35.6047 202.237 33.4108 201.459 31.4912 199.722Z" fill="white"/>
<path d="M45.6143 193.41V193.136C45.6143 187.922 48.8136 184.172 53.4299 184.172C58.0005 184.172 61.1998 187.876 61.1998 193.09V193.319C61.1998 198.532 58.0005 202.283 53.3842 202.283C48.8136 202.328 45.6143 198.578 45.6143 193.41ZM58.1833 193.364V193.182C58.1833 189.431 56.1722 186.87 53.3842 186.87C50.6419 186.87 48.6308 189.34 48.6308 193.136V193.319C48.6308 197.069 50.6876 199.63 53.4299 199.63C56.1722 199.63 58.1833 197.16 58.1833 193.364Z" fill="white"/>
<path d="M64.125 184.446H67.0044V199.356H74.5459V202.054H64.125V184.446Z" fill="white"/>
<path d="M76.3281 195.331V184.446H79.2533V195.285C79.2533 198.121 80.6244 199.584 82.9097 199.584C85.1036 199.584 86.5205 198.166 86.5205 195.377V184.4H89.3999V195.194C89.3999 199.904 86.7947 202.282 82.864 202.282C78.8876 202.328 76.3281 199.904 76.3281 195.331Z" fill="white"/>
<path d="M96.2559 187.145H91.6396V184.446H103.797V187.145H99.1811V202.054H96.2559V187.145Z" fill="white"/>
<path d="M109.373 184.446H106.448V202.008H109.373V184.446Z" fill="white"/>
<path d="M112.39 193.41V193.136C112.39 187.922 115.589 184.172 120.205 184.172C124.776 184.172 127.975 187.876 127.975 193.09V193.319C127.975 198.532 124.776 202.283 120.16 202.283C115.589 202.328 112.39 198.578 112.39 193.41ZM124.959 193.364V193.182C124.959 189.431 122.948 186.87 120.16 186.87C117.417 186.87 115.406 189.34 115.406 193.136V193.319C115.406 197.069 117.417 199.63 120.205 199.63C122.948 199.63 124.959 197.16 124.959 193.364Z" fill="white"/>
<path d="M130.855 184.446H133.597L141.322 196.2V184.446H144.155V202.054H141.687L133.734 189.934V202.054H130.855V184.446Z" fill="white"/>
<path d="M153.936 184.446H159.558C163.397 184.446 165.865 186.642 165.865 190.3V190.346C165.865 194.233 162.986 196.291 159.375 196.337H156.861V202.054H153.936V184.446ZM159.421 193.685C161.66 193.685 162.94 192.358 162.94 190.392V190.346C162.94 188.242 161.615 187.099 159.421 187.099H156.907V193.685H159.421Z" fill="white"/>
<path d="M168.333 184.446H174.686C176.697 184.446 178.343 185.041 179.394 186.093C180.308 187.007 180.857 188.334 180.857 189.934V190.026C180.857 192.724 179.348 194.416 177.2 195.194L181.359 202.008H177.977L174.229 195.788C174.184 195.834 174.092 195.834 174.046 195.834H171.213V202.054H168.288V184.446H168.333ZM174.366 193.227C176.606 193.227 177.886 192.038 177.886 190.163V190.117C177.886 188.151 176.606 187.099 174.412 187.099H171.213V193.182H174.366V193.227Z" fill="white"/>
<path d="M183.096 193.41V193.136C183.096 187.922 186.296 184.172 190.912 184.172C195.482 184.172 198.682 187.876 198.682 193.09V193.319C198.682 198.532 195.482 202.283 190.866 202.283C186.296 202.328 183.096 198.578 183.096 193.41ZM195.665 193.364V193.182C195.665 189.431 193.654 186.87 190.866 186.87C188.124 186.87 186.113 189.34 186.113 193.136V193.319C186.113 197.069 188.17 199.63 190.912 199.63C193.654 199.63 195.665 197.16 195.665 193.364Z" fill="white"/>
<path d="M199.413 184.446H202.567L206.863 197.755L211.205 184.446H214.267L208.189 202.145H205.492L199.413 184.446Z" fill="white"/>
<path d="M219.615 184.446H216.69V202.008H219.615V184.446Z" fill="white"/>
<path d="M223.271 184.446H228.665C233.692 184.446 236.983 187.968 236.983 193.09V193.273C236.983 198.441 233.647 202.008 228.665 202.008H223.271V184.446ZM226.197 187.099V199.401H228.619C231.818 199.401 233.967 197.115 233.967 193.364V193.227C233.967 189.431 231.818 187.099 228.619 187.099H226.197Z" fill="white"/>
<path d="M239.908 184.446H250.969V187.099H242.788V191.855H250.055V194.508H242.788V199.401H251.106V202.054H239.908V184.446Z" fill="white"/>
<path d="M253.94 184.446H260.293C262.304 184.446 263.949 185.041 265 186.093C265.915 187.007 266.463 188.334 266.463 189.934V190.026C266.463 192.724 264.955 194.416 262.807 195.194L266.966 202.008H263.584L259.836 195.788C259.79 195.834 259.699 195.834 259.653 195.834H256.819V202.054H253.894V184.446H253.94ZM259.973 193.227C262.212 193.227 263.492 192.038 263.492 190.163V190.117C263.492 188.151 262.212 187.099 260.019 187.099H256.819V193.182H259.973V193.227Z" fill="white"/>
</svg>
